<svg width="412" height="376" viewBox="0 0 412 376" fill="none" xmlns="http://www.w3.org/2000/svg">
<g clip-path="url(#clip0)">
<path d="M217.39 363.985C183.441 363.984 149.517 359.944 116.786 351.011C93.2234 344.582 69.673 335.225 52.12 318.191C42.6717 309.024 35.4183 297.834 30.5132 285.632C37.1695 294.406 45.6332 302.087 55.6611 307.886C62.433 311.802 69.6966 314.752 77.2678 316.844C85.5331 330.055 98.2099 340.608 111.87 346.446C115.581 348.031 119.396 349.332 123.28 350.354C126.322 351.649 129.528 352.627 132.86 353.246C136.916 354.451 141.214 355.099 145.662 355.099C152.172 355.099 158.36 353.711 163.947 351.216C170.827 349.754 177.542 347.481 183.893 344.422C196.028 338.577 207.005 329.795 215.066 318.614C215.192 318.438 215.317 318.263 215.441 318.086L311.324 348.119C313.449 348.785 315.597 349.1 317.712 349.1C326.862 349.1 335.363 343.182 338.23 333.967L345.643 310.14C351.907 308.048 357.968 305.342 363.705 301.941C385.307 289.137 402.721 265.424 399.938 238.512C398.582 225.407 397.913 213.135 395.24 199.891C393.463 191.084 394.48 183.275 396.596 175.748C404.344 189.886 409.46 205.443 411.27 221.476C412.014 228.067 412.186 234.723 411.803 241.347C410.385 265.85 401.373 289.931 385.641 308.708C356.152 343.909 308.055 357.062 262.458 361.676C247.494 363.191 232.443 363.985 217.391 363.985H217.39ZM237.344 41.2193C233.479 36.6946 227.954 33.6077 221.658 32.9415C219.373 32.1207 216.932 31.6182 214.386 31.4908L207.928 31.1679C219.662 27.0981 232.332 24.9922 244.944 24.9922C256.713 24.9922 268.435 26.8249 279.304 30.6044C279.631 30.7177 279.957 30.8329 280.282 30.9504C262.605 35.1294 249.789 38.7132 237.345 41.219L237.344 41.2193Z" fill="#EAF2F5"/>
<path d="M177.379 25.8021C170.803 25.8021 165.471 20.4529 165.471 13.8547C165.471 7.25503 170.803 1.90576 177.379 1.90576C183.956 1.90576 189.286 7.25503 189.286 13.8547C189.286 20.4529 183.956 25.8021 177.379 25.8021Z" fill="#EEF8F9"/>
<path d="M338.285 12.7327C334.891 12.7327 332.14 9.97317 332.14 6.56763C332.14 3.16285 334.891 0.40332 338.285 0.40332C341.678 0.40332 344.428 3.16285 344.428 6.56763C344.428 9.97317 341.678 12.7327 338.285 12.7327Z" fill="#EEF8F9"/>
<path d="M20.0498 61.1584C13.3049 61.1584 6.6391 55.004 3.21815 48.3181C-2.12583 37.8729 1.98036 25.0585 12.3904 19.6967C16.6019 17.5267 22.3859 16.3003 28.1322 16.3003C36.5883 16.3003 44.9646 18.9557 48.1467 25.1745C53.4903 35.6201 37.4694 44.5836 30.9371 54.3244C27.6587 59.2131 23.8415 61.1584 20.0498 61.1584Z" fill="#E5F0F5"/>
<path d="M42.2219 376C36.1033 376 30.1102 372.98 26.5444 367.438C20.9616 358.761 19.5664 341.154 28.2157 335.551C29.6759 334.605 31.1518 334.197 32.6409 334.197C39.9711 334.197 47.6085 344.069 55.1444 348.135C67.7896 354.958 60.9637 367.405 52.314 373.008C49.1885 375.033 45.6847 376 42.2219 376Z" fill="#E5F0F5"/>
<path d="M30.5132 285.631C24.368 277.531 19.7644 268.499 16.8903 259.152C12.1057 243.591 11.4984 229.04 15.0847 213.153C18.7662 196.841 24.9836 180.399 23.053 163.403C21.7076 151.561 16.3092 140.129 17.2979 128.251C17.9558 120.358 21.419 112.953 25.6541 106.27C41.1168 81.8669 67.0096 65.5291 94.3969 56.5263C97.5794 55.48 100.775 54.47 103.981 53.5054L103.959 53.935C103.923 54.6795 104.493 55.3125 105.235 55.3491L125.741 56.3748L125.495 61.3265L76.7887 77.3998C47.3772 87.1067 27.8821 115.391 29.7139 146.404C29.726 146.608 29.739 146.812 29.7523 147.015C30.6725 161.143 34.5586 175.049 40.97 187.529C33.1014 199.605 27.4699 213.24 24.741 227.763C21.1144 247.059 23.2101 267.466 30.5132 285.632V285.631Z" fill="#E5F0F5"/>
<path d="M77.2676 316.844C69.6959 314.751 62.4327 311.802 55.6608 307.886C45.6334 302.087 37.1692 294.406 30.5129 285.631C23.2097 267.466 21.1141 247.058 24.7407 227.762C27.47 213.239 33.1014 199.605 40.9697 187.528C42.717 190.929 44.6522 194.226 46.7662 197.39C55.7011 210.77 68.0326 225.734 71.1193 242.155C73.5793 255.24 68.2657 268.466 67.6196 281.783C67.0047 294.447 70.7748 306.467 77.2676 316.844Z" fill="#D8EAF0"/>
<path d="M396.595 175.748C394.729 172.345 392.709 169.02 390.548 165.795L404.197 121.924C407.726 110.579 401.399 98.4686 390.093 94.9272L341.448 79.6899C336.802 75.4151 332.024 71.6799 327.812 69.041C327.164 67.9569 326.473 66.8828 325.727 65.8205C314.605 49.9532 298.486 37.5177 280.282 30.9512C285.432 29.7344 290.997 28.4657 297.081 27.1611C301.304 26.2541 305.585 25.8252 309.886 25.8252C342.874 25.8252 377.102 51.0517 396.052 79.7506C398.237 83.0592 400.156 86.5315 401.806 90.1259C409.192 106.214 411.208 124.762 407.665 142.101C405.186 154.23 399.703 164.687 396.595 175.749V175.748Z" fill="#E5F0F5"/>
<path d="M345.642 310.141L349.24 298.576C354.631 296.759 359.743 294.187 364.366 290.683C373.163 284.012 379.605 274.369 384.015 263.991C393.164 242.459 393.526 217.697 385.992 195.601C385.235 193.38 384.314 191.238 383.282 189.151L390.548 165.795C392.709 169.02 394.729 172.345 396.595 175.748C394.479 183.276 393.462 191.084 395.239 199.891C397.913 213.136 398.581 225.407 399.937 238.512C402.72 265.424 385.307 289.137 363.704 301.941C357.967 305.342 351.906 308.048 345.642 310.141H345.642ZM327.812 69.0408C326.733 68.365 325.692 67.761 324.701 67.2386C296.972 52.6332 268.104 44.8075 238.629 42.8615C238.224 42.2952 237.796 41.7477 237.344 41.2192C249.789 38.713 262.605 35.1297 280.282 30.9507C298.486 37.5172 314.605 49.9526 325.727 65.8199C326.472 66.8826 327.164 67.9568 327.812 69.0404V69.0408Z" fill="#D8EAF0"/>
<path d="M163.947 351.215C179.693 344.181 190.671 328.345 190.671 309.935C190.671 309.408 190.661 308.882 190.645 308.359C194.405 308.98 198.221 309.41 202.099 309.644C204.784 313.253 208.52 315.918 212.888 317.286L215.44 318.086C215.316 318.263 215.191 318.439 215.065 318.614C207.004 329.795 196.027 338.577 183.892 344.422C177.541 347.481 170.826 349.754 163.947 351.216L163.947 351.215ZM123.28 350.353C119.396 349.332 115.58 348.03 111.87 346.445C98.2095 340.608 85.5327 330.055 77.2675 316.844C83.5922 318.592 90.1306 319.741 96.7687 320.351C100.649 333.892 110.508 344.916 123.28 350.353Z" fill="#CCE3ED"/>
<path d="M40.9698 187.528C34.5584 175.048 30.6724 161.142 29.7521 147.014C29.7388 146.811 29.7259 146.607 29.7137 146.403C27.8815 115.389 47.377 87.1054 76.7885 77.3986L125.495 61.3252L123.135 108.818C118.663 113.031 114.998 117.165 112.052 120.902C104.975 129.884 102.047 136.583 102.011 136.664C101.714 137.346 102.023 138.142 102.703 138.44C102.878 138.518 103.061 138.554 103.241 138.554C103.758 138.554 104.252 138.252 104.472 137.745L104.478 137.734C104.62 137.414 107.571 130.847 114.487 122.162C116.834 119.215 119.636 116.025 122.94 112.749L122.221 127.23C119.376 130.741 116.739 134.43 114.328 138.274C84.1054 143.524 57.5657 162.056 40.9698 187.528ZM341.448 79.6891L331.6 76.6045C330.526 74.0415 329.288 71.5162 327.812 69.0402C332.023 71.6796 336.801 75.4144 341.448 79.6891H341.448Z" fill="#CEE6EE"/>
<path d="M96.7687 320.351C90.1306 319.741 83.5922 318.592 77.2675 316.844C70.7747 306.467 67.0047 294.447 67.6196 281.783C68.266 268.466 73.5792 255.24 71.1192 242.155C68.0329 225.734 55.7014 210.77 46.7661 197.39C44.6522 194.226 42.717 190.929 40.9696 187.528C57.5655 162.056 84.1052 143.525 114.328 138.274C103.511 155.528 97.2539 175.949 97.2539 197.838C97.2539 223.505 105.86 247.158 120.332 266.046C117.822 267.331 115.445 268.838 113.225 270.541C112.327 269.099 111.479 267.668 110.677 266.257C106.558 259.011 103.682 252.319 101.839 247.447C100.917 245.012 100.255 243.031 99.8227 241.664C99.6071 240.98 99.4492 240.451 99.3462 240.093C99.2945 239.914 99.2557 239.78 99.2317 239.69C99.2066 239.601 99.1967 239.561 99.1967 239.561C99.0363 238.958 98.4925 238.56 97.8985 238.56C97.784 238.56 97.6673 238.575 97.5517 238.606C96.8341 238.798 96.4078 239.537 96.5995 240.256C96.62 240.329 99.9345 252.8 108.343 267.593C109.214 269.124 110.139 270.681 111.122 272.253C101.24 280.789 94.9723 293.43 94.9723 307.51C94.9723 311.962 95.599 316.272 96.7683 320.352L96.7687 320.351ZM349.24 298.575L383.283 189.15C384.315 191.238 385.235 193.38 385.992 195.601C393.527 217.697 393.164 242.458 384.015 263.991C379.605 274.369 373.163 284.012 364.366 290.683C359.744 294.186 354.631 296.759 349.24 298.575ZM251.024 94.0822C247.91 92.8074 244.718 91.6676 241.47 90.6744L243.089 58.0847C243.371 52.4282 241.683 47.1316 238.629 42.8618C268.104 44.8078 296.973 52.6331 324.701 67.239C325.693 67.7613 326.734 68.3654 327.812 69.0411C329.289 71.5172 330.526 74.0424 331.6 76.6054L291.657 64.094C289.534 63.429 287.383 63.1123 285.267 63.1123C280.117 63.1123 275.174 64.9877 271.325 68.2692L268.68 67.4404C267.807 67.1661 266.912 67.0314 266.021 67.0314C264.593 67.0314 263.173 67.3802 261.868 68.0662C259.747 69.1816 258.188 71.0516 257.48 73.3315L251.024 94.0826L251.024 94.0822Z" fill="#C9E2EA"/>
<path d="M401.77 327.978C399.544 327.978 397.739 326.167 397.739 323.933C397.739 321.7 399.544 319.889 401.77 319.889C403.996 319.889 405.801 321.7 405.801 323.933C405.801 326.167 403.996 327.978 401.77 327.978Z" fill="#8A98AE"/>
<path d="M268.667 8.94292C266.317 8.94292 264.412 7.03124 264.412 4.67274C264.412 2.31462 266.317 0.40332 268.667 0.40332C271.018 0.40332 272.924 2.315 272.924 4.67274C272.924 7.03162 271.018 8.94292 268.667 8.94292Z" fill="#98B7E0"/>
<path d="M77.3685 375.168C75.1417 375.168 73.3376 373.356 73.3376 371.123C73.3376 368.889 75.142 367.078 77.3685 367.078C79.5947 367.078 81.3995 368.889 81.3995 371.123C81.3995 373.357 79.5943 375.168 77.3685 375.168Z" fill="#8A98AE"/>
<path d="M324.361 375.098C322.63 375.098 321.226 373.689 321.226 371.952C321.226 370.215 322.63 368.807 324.361 368.807C326.092 368.807 327.496 370.215 327.496 371.952C327.496 373.69 326.092 375.098 324.361 375.098Z" fill="#FED49D"/>
<path d="M71.3004 35.4878C69.5682 35.4878 68.1654 34.0787 68.1654 32.3414C68.1654 30.6045 69.5686 29.1953 71.3004 29.1953C73.0321 29.1953 74.4354 30.6048 74.4354 32.3414C74.4354 34.0791 73.0318 35.4878 71.3004 35.4878Z" fill="#FED49D"/>
<path d="M46.2816 68.3777C45.539 68.3777 44.9377 67.7745 44.9377 67.0296C44.9377 66.2859 45.539 65.6812 46.2816 65.6812C47.0235 65.6812 47.6251 66.2859 47.6251 67.0296C47.6251 67.7745 47.0235 68.3777 46.2816 68.3777Z" fill="#98B7E0"/>
<path d="M103.245 3.81039C103.113 3.81039 102.979 3.79703 102.846 3.76841C101.82 3.54901 101.167 2.53593 101.386 1.50759C101.575 0.613187 102.364 0 103.24 0C103.372 0 103.504 0.013355 103.638 0.0423546C104.664 0.262522 105.318 1.27483 105.098 2.30317C104.908 3.19758 104.121 3.81039 103.245 3.81039Z" fill="#98B7E0"/>
<path d="M409.366 179.232C409.234 179.232 409.101 179.218 408.967 179.189C407.942 178.97 407.289 177.958 407.507 176.928C407.697 176.034 408.486 175.421 409.362 175.421C409.493 175.421 409.627 175.435 409.761 175.463C410.786 175.683 411.44 176.695 411.222 177.724C411.031 178.618 410.242 179.232 409.366 179.232Z" fill="#FED49D"/>
<path d="M391.326 63.0182C391.215 63.0182 391.101 63.0067 390.988 62.9835C390.116 62.7965 389.561 61.936 389.746 61.0615C389.909 60.2999 390.579 59.7798 391.323 59.7798C391.435 59.7798 391.548 59.7912 391.662 59.8157C392.533 60.0026 393.089 60.8627 392.903 61.7372C392.741 62.4981 392.071 63.0182 391.326 63.0182Z" fill="#8A98AE"/>
<path d="M369.555 25.2262C366.161 25.2262 363.409 22.464 363.409 19.0573C363.409 15.6517 366.161 12.8892 369.555 12.8892C372.95 12.8892 375.702 15.6517 375.702 19.0573C375.702 22.464 372.95 25.2262 369.555 25.2262Z" fill="#FED49D"/>
<path d="M4.91504 213.781C2.20026 213.781 0 211.574 0 208.851C0 206.127 2.20064 203.919 4.91504 203.919C7.62867 203.919 9.82932 206.128 9.82932 208.851C9.82932 211.574 7.62829 213.781 4.91504 213.781Z" fill="#DFEEF4"/>
<path d="M202.099 309.644C198.221 309.41 194.405 308.98 190.645 308.36C190.563 305.979 190.298 303.644 189.864 301.37C192.542 300.713 195.255 300.176 198.02 299.801C198.366 302.186 199.117 304.521 200.265 306.718C200.804 307.75 201.418 308.727 202.1 309.644L202.099 309.644Z" fill="#E9F2FB"/>
<path d="M114.328 138.274C116.739 134.43 119.376 130.742 122.221 127.23L121.723 137.265C119.237 137.513 116.768 137.851 114.328 138.274Z" fill="#ECF4FB"/>
<path d="M189.864 301.37C187.958 291.409 182.793 282.614 175.525 276.141C173.342 273.747 170.916 271.584 168.282 269.69L198.684 262.325L191.025 286.944C190.315 289.224 190.536 291.651 191.648 293.779C192.76 295.907 194.623 297.471 196.895 298.183L197.87 298.488C197.906 298.927 197.956 299.365 198.02 299.801C195.255 300.176 192.542 300.713 189.864 301.37ZM120.332 266.046C105.861 247.157 97.2542 223.504 97.2542 197.837C97.2542 175.949 103.511 155.528 114.328 138.274C116.768 137.851 119.237 137.513 121.723 137.265L120.603 159.806C115.416 161.139 112.23 166.43 113.49 171.669L118.95 194.362C119.023 195.424 119.275 196.441 119.677 197.38L135.083 261.417C129.839 262.127 124.87 263.723 120.332 266.045V266.046ZM239.474 130.858L241.47 90.6743C244.717 91.6679 247.91 92.8077 251.024 94.0821L239.592 130.828L239.474 130.858Z" fill="#E9F2FB"/>
<path d="M103.241 138.554C103.061 138.554 102.878 138.518 102.704 138.44C102.023 138.142 101.714 137.347 102.011 136.664C102.047 136.583 104.975 129.884 112.053 120.902C114.998 117.165 118.663 113.031 123.135 108.818L122.94 112.749C119.636 116.025 116.834 119.215 114.487 122.162C107.571 130.846 104.619 137.414 104.478 137.734L104.472 137.745C104.252 138.252 103.758 138.553 103.241 138.553L103.241 138.554Z" fill="#ECF7FD"/>
<path d="M111.123 272.253C110.14 270.682 109.214 269.124 108.343 267.593C99.9351 252.8 96.6206 240.329 96.6001 240.257C96.4084 239.537 96.8347 238.799 97.5523 238.606C97.6679 238.575 97.7846 238.56 97.8991 238.56C98.4931 238.56 99.0369 238.958 99.1974 239.562C99.1974 239.562 99.2072 239.601 99.2323 239.69C99.2563 239.78 99.2951 239.915 99.3468 240.094C99.4499 240.451 99.6077 240.981 99.8233 241.664C100.255 243.031 100.918 245.012 101.839 247.447C103.683 252.319 106.559 259.011 110.678 266.257C111.479 267.668 112.328 269.099 113.226 270.542C112.508 271.092 111.806 271.663 111.123 272.253V272.253Z" fill="#E7F1F7"/>
<path d="M197.295 296.896L200.208 297.808C204.197 299.058 208.48 296.804 209.725 292.802L276.181 79.1888C277.426 75.1861 275.181 70.8885 271.192 69.6396L268.279 68.7268C264.29 67.4776 260.007 69.7292 258.762 73.7327L192.307 287.346C191.061 291.349 193.306 295.646 197.295 296.896Z" fill="#37466A"/>
<path d="M202.468 299.504C201.575 299.504 200.68 299.369 199.808 299.095L196.895 298.183C194.623 297.471 192.76 295.907 191.648 293.78C190.536 291.651 190.315 289.224 191.025 286.945L257.48 73.3313C258.189 71.0514 259.748 69.1813 261.868 68.066C263.988 66.951 266.408 66.7274 268.68 67.4402L271.593 68.3525C276.298 69.8269 278.933 74.8683 277.463 79.591L211.008 293.205C210.299 295.484 208.739 297.353 206.619 298.469C205.314 299.157 203.894 299.504 202.468 299.504Z" fill="#37466A"/>
<path d="M311.724 346.833L213.29 315.999C202.673 312.674 196.753 301.343 200.068 290.69L266.034 78.6473C269.348 67.9953 280.64 62.0554 291.257 65.38L389.692 96.213C400.309 99.5388 406.228 110.87 402.914 121.522L336.948 333.565C333.633 344.217 322.341 350.157 311.724 346.833Z" fill="#3E5276"/>
<path d="M312.125 345.546C316.916 347.046 322.003 346.585 326.45 344.247C330.895 341.908 334.168 337.972 335.664 333.164L401.631 121.121C404.718 111.195 399.183 100.599 389.291 97.5008L290.855 66.6678C280.962 63.5687 270.404 69.1236 267.315 79.0495L201.349 291.092C199.854 295.901 200.312 301.004 202.644 305.466C204.974 309.927 208.897 313.211 213.689 314.712L312.125 345.545L312.125 345.546ZM317.711 349.101C315.596 349.101 313.448 348.785 311.324 348.119L212.888 317.286C207.411 315.57 202.928 311.818 200.264 306.718C197.6 301.619 197.075 295.784 198.784 290.287L264.751 78.2459C268.28 66.9014 280.345 60.5509 291.657 64.0934L390.092 94.9271C401.398 98.4685 407.725 110.579 404.196 121.924L338.229 333.967C335.363 343.181 326.861 349.1 317.711 349.1V349.101Z" fill="#37466A"/>
<path d="M364.646 205.77L249.74 169.779L276.027 85.2847L390.933 121.277L364.646 205.77Z" fill="#FEFEFE"/>
<path d="M251.424 168.894L363.764 204.082L389.249 122.162L276.909 86.9734L251.424 168.894ZM364.646 207.118C364.514 207.118 364.38 207.1 364.246 207.057L249.34 171.065C248.999 170.959 248.715 170.721 248.551 170.405C248.384 170.088 248.351 169.718 248.458 169.377L274.744 84.8828C274.849 84.5413 275.087 84.2562 275.403 84.0899C275.718 83.9235 276.086 83.8911 276.427 83.9975L391.334 119.989C391.673 120.097 391.957 120.334 392.122 120.651C392.289 120.967 392.322 121.337 392.215 121.679L365.929 206.172C365.75 206.749 365.219 207.118 364.646 207.118Z" fill="#37466A"/>
<path d="M377.079 105.502C376.991 105.502 376.901 105.489 376.813 105.461L296.606 80.3374C296.134 80.1901 295.871 79.686 296.018 79.2121C296.164 78.7374 296.668 78.4741 297.14 78.6214L377.346 103.745C377.819 103.893 378.082 104.397 377.935 104.871C377.815 105.256 377.461 105.502 377.079 105.502Z" fill="#FEFEFE"/>
<path d="M296.528 107.877L278.64 102.274C278.082 102.1 277.77 101.505 277.944 100.944L278.979 97.6188C279.153 97.059 279.746 96.7473 280.304 96.9213L298.194 102.525C298.751 102.7 299.063 103.295 298.888 103.855L297.854 107.18C297.68 107.741 297.086 108.053 296.528 107.877Z" fill="#FBB459"/>
<path d="M296.794 107.02C296.879 107.043 296.972 106.999 296.999 106.913L298.033 103.587L297.926 103.382L280.038 97.7797L279.835 97.887L278.799 101.212C278.772 101.298 278.821 101.389 278.907 101.417L296.794 107.02ZM296.845 108.826C296.65 108.826 296.454 108.796 296.261 108.736L278.373 103.132C277.344 102.811 276.768 101.709 277.088 100.677L278.125 97.3508C278.279 96.8514 278.619 96.4423 279.082 96.1989C279.545 95.9558 280.072 95.9074 280.572 96.0638L298.46 101.666C298.958 101.824 299.366 102.164 299.609 102.629C299.851 103.093 299.899 103.624 299.742 104.125L298.71 107.448C298.554 107.948 298.213 108.358 297.751 108.601C297.466 108.75 297.158 108.826 296.845 108.826Z" fill="#37466A"/>
<path d="M323.114 116.205L305.226 110.602C304.666 110.428 304.357 109.832 304.53 109.272L305.564 105.947C305.739 105.387 306.333 105.074 306.891 105.249L324.779 110.852C325.337 111.027 325.648 111.623 325.474 112.182L324.44 115.508C324.265 116.068 323.672 116.38 323.114 116.205Z" fill="#FBB459"/>
<path d="M323.38 115.348L323.584 115.241L324.619 111.916L324.512 111.711L306.624 106.107L306.42 106.215L305.385 109.54C305.358 109.627 305.406 109.718 305.491 109.745L323.38 115.348ZM323.431 117.155C323.235 117.155 323.039 117.124 322.846 117.065L304.958 111.461C303.93 111.14 303.355 110.037 303.675 109.004L304.708 105.68C305.03 104.648 306.127 104.068 307.158 104.391L325.045 109.995C325.544 110.151 325.951 110.492 326.194 110.956C326.436 111.421 326.485 111.951 326.329 112.451L325.294 115.776C325.139 116.276 324.798 116.686 324.336 116.929C324.052 117.078 323.743 117.155 323.431 117.155Z" fill="#37466A"/>
<path d="M351.698 125.158L333.81 119.555C333.251 119.381 332.941 118.785 333.114 118.225L334.149 114.9C334.323 114.34 334.917 114.027 335.475 114.202L353.363 119.805C353.921 119.981 354.233 120.575 354.058 121.136L353.024 124.461C352.85 125.021 352.256 125.333 351.698 125.158Z" fill="#FBB459"/>
<path d="M351.964 124.301C352.049 124.328 352.142 124.279 352.168 124.194L353.203 120.868C353.229 120.783 353.181 120.691 353.096 120.664L335.207 115.061L335.004 115.169L333.969 118.494C333.942 118.58 333.99 118.671 334.076 118.698L351.964 124.301ZM352.012 126.107C351.819 126.107 351.624 126.078 351.431 126.018L333.542 120.414C332.514 120.093 331.939 118.991 332.258 117.958L333.293 114.633C333.448 114.133 333.788 113.723 334.251 113.48C334.715 113.238 335.242 113.189 335.741 113.345L353.629 118.948C354.658 119.27 355.234 120.372 354.914 121.404L353.878 124.73C353.617 125.568 352.844 126.107 352.012 126.107Z" fill="#37466A"/>
<path d="M378.611 133.589L360.723 127.987C360.164 127.811 359.852 127.216 360.027 126.655L361.062 123.33C361.236 122.771 361.83 122.458 362.388 122.633L380.276 128.237C380.834 128.412 381.145 129.007 380.971 129.567L379.937 132.891C379.763 133.452 379.169 133.764 378.611 133.589Z" fill="#FBB459"/>
<path d="M378.878 132.731C378.963 132.757 379.056 132.71 379.081 132.624L380.117 129.299C380.143 129.213 380.096 129.121 380.009 129.094L362.121 123.491C362.034 123.463 361.944 123.511 361.918 123.598L360.883 126.923L360.99 127.128L378.878 132.731ZM378.929 134.537C378.733 134.537 378.537 134.508 378.345 134.447L360.456 128.845C359.957 128.688 359.549 128.346 359.307 127.882C359.065 127.418 359.016 126.887 359.173 126.386L360.206 123.063C360.527 122.031 361.625 121.452 362.656 121.775L380.544 127.378C381.572 127.7 382.148 128.803 381.827 129.835L380.792 133.16C380.637 133.659 380.296 134.069 379.835 134.313C379.55 134.462 379.241 134.537 378.929 134.537Z" fill="#37466A"/>
<path d="M354.953 231.411L243.176 196.4L249.634 175.638L361.411 210.649L354.953 231.411Z" fill="#37466A"/>
<path d="M244.859 195.515L354.071 229.723L359.728 211.535L250.517 177.327L244.859 195.515ZM354.953 232.76C354.819 232.76 354.683 232.74 354.552 232.699L242.776 197.686C242.068 197.466 241.672 196.709 241.893 195.998L248.352 175.237C248.458 174.895 248.695 174.61 249.012 174.444C249.327 174.277 249.694 174.243 250.035 174.351L361.812 209.363C362.52 209.585 362.916 210.341 362.694 211.052L356.236 231.814C356.13 232.156 355.893 232.44 355.577 232.606C355.383 232.709 355.168 232.76 354.953 232.76Z" fill="#37466A"/>
<path d="M280.368 200.845C281.067 201.066 281.83 200.67 282.051 199.96L283.78 194.402C283.888 194.058 283.854 193.693 283.687 193.374C283.521 193.055 283.24 192.82 282.898 192.713L263.066 186.501C262.727 186.393 262.36 186.427 262.042 186.594C261.724 186.761 261.491 187.043 261.384 187.387L259.655 192.944C259.434 193.654 259.831 194.411 260.537 194.633L280.368 200.845ZM280.767 201.805C280.547 201.805 280.323 201.773 280.101 201.704L260.269 195.491C259.091 195.121 258.432 193.86 258.799 192.676L260.528 187.119C260.706 186.545 261.097 186.076 261.627 185.797C262.156 185.518 262.761 185.463 263.334 185.643L283.165 191.855C283.735 192.034 284.204 192.424 284.48 192.957C284.759 193.488 284.813 194.096 284.636 194.669L282.906 200.228C282.608 201.188 281.721 201.805 280.767 201.805Z" fill="#FEFEFE"/>
<path d="M311.022 210.446C311.364 210.553 311.728 210.519 312.046 210.353C312.364 210.186 312.598 209.905 312.705 209.561L314.434 204.003C314.541 203.66 314.509 203.295 314.341 202.976C314.176 202.656 313.894 202.422 313.551 202.314L293.72 196.102C293.379 195.995 293.016 196.028 292.697 196.195C292.379 196.363 292.145 196.645 292.038 196.988L290.309 202.546C290.202 202.889 290.235 203.254 290.401 203.574C290.568 203.892 290.849 204.128 291.192 204.235L311.022 210.446ZM311.425 211.408C311.201 211.408 310.975 211.373 310.754 211.304L290.924 205.093C290.354 204.915 289.885 204.523 289.608 203.991C289.329 203.459 289.275 202.851 289.454 202.277L291.183 196.72C291.361 196.147 291.751 195.679 292.281 195.399C292.812 195.12 293.417 195.065 293.989 195.245L313.819 201.456C314.39 201.635 314.857 202.027 315.135 202.558C315.414 203.091 315.468 203.698 315.29 204.272L313.56 209.829C313.382 210.401 312.991 210.871 312.463 211.149C312.137 211.32 311.783 211.408 311.425 211.408Z" fill="#FEFEFE"/>
<path d="M342.016 220.155C342.36 220.261 342.722 220.229 343.04 220.061C343.359 219.895 343.592 219.613 343.699 219.269L345.428 213.712C345.535 213.368 345.502 213.003 345.336 212.684C345.169 212.365 344.888 212.13 344.545 212.024L324.714 205.812C324.372 205.705 324.008 205.737 323.691 205.904C323.372 206.071 323.139 206.353 323.032 206.697L321.303 212.254C321.082 212.964 321.477 213.722 322.185 213.944L342.016 220.155ZM342.419 221.116C342.195 221.116 341.969 221.081 341.749 221.013L321.917 214.802C320.739 214.432 320.08 213.169 320.447 211.986L322.176 206.428C322.355 205.857 322.745 205.386 323.274 205.109C323.804 204.83 324.41 204.774 324.982 204.953L344.814 211.165C345.384 211.344 345.852 211.736 346.129 212.267C346.407 212.799 346.462 213.407 346.283 213.98L344.554 219.537C344.376 220.11 343.986 220.58 343.456 220.858C343.131 221.029 342.776 221.116 342.419 221.116Z" fill="#FEFEFE"/>
<path d="M256.232 239.561L242.011 235.107C238.022 233.857 235.777 229.561 237.023 225.558L239.597 217.281C240.842 213.28 245.125 211.026 249.114 212.276L263.335 216.729C267.324 217.979 269.569 222.276 268.324 226.279L265.749 234.555C264.504 238.559 260.221 240.811 256.232 239.561Z" fill="#617592"/>
<path d="M246.853 213.277C244.19 213.277 241.715 215.001 240.879 217.683L238.304 225.96C237.278 229.262 239.12 232.789 242.411 233.82L256.632 238.274C258.221 238.771 259.911 238.615 261.395 237.834C262.881 237.053 263.971 235.746 264.467 234.154L267.041 225.877C268.068 222.574 266.225 219.048 262.934 218.016L248.714 213.562C248.095 213.369 247.469 213.277 246.853 213.277H246.853ZM258.492 241.257C257.599 241.257 256.704 241.121 255.832 240.847L241.61 236.394C236.905 234.92 234.27 229.877 235.739 225.155L238.314 216.878C239.785 212.156 244.807 209.514 249.515 210.989L263.735 215.443C268.441 216.917 271.075 221.959 269.606 226.681L267.031 234.958C266.322 237.238 264.764 239.107 262.643 240.221C261.337 240.909 259.918 241.257 258.492 241.257Z" fill="#37466A"/>
<path d="M295.099 251.736L280.877 247.282C276.888 246.032 274.643 241.735 275.889 237.733L278.463 229.457C279.709 225.454 283.991 223.201 287.98 224.45L302.202 228.905C306.191 230.154 308.435 234.45 307.191 238.453L304.615 246.73C303.37 250.733 299.087 252.985 295.099 251.736Z" fill="#617592"/>
<path d="M295.5 250.449C297.084 250.945 298.775 250.789 300.261 250.009C301.747 249.228 302.837 247.921 303.332 246.328L305.908 238.051C306.403 236.46 306.246 234.763 305.469 233.273C304.69 231.783 303.388 230.689 301.8 230.192L287.58 225.737C285.995 225.241 284.302 225.398 282.816 226.178C281.332 226.959 280.241 228.266 279.746 229.859L277.171 238.135C276.676 239.726 276.832 241.423 277.609 242.913C278.389 244.404 279.691 245.497 281.278 245.995L295.5 250.449ZM297.356 253.433C296.465 253.433 295.571 253.297 294.698 253.023L280.477 248.568C275.77 247.094 273.137 242.052 274.606 237.33L277.181 229.053C277.89 226.774 279.449 224.905 281.569 223.789C283.69 222.674 286.108 222.45 288.381 223.164L302.602 227.618C307.308 229.091 309.942 234.132 308.472 238.856L305.897 247.132C305.188 249.412 303.63 251.281 301.51 252.397C300.203 253.084 298.784 253.433 297.356 253.433Z" fill="#37466A"/>
<path d="M333.381 263.727L319.16 259.273C315.171 258.023 312.926 253.726 314.171 249.724L316.746 241.447C317.991 237.444 322.274 235.192 326.263 236.441L340.484 240.895C344.473 242.145 346.718 246.442 345.472 250.444L342.898 258.721C341.653 262.723 337.37 264.976 333.381 263.727Z" fill="#617592"/>
<path d="M324.007 237.443C323.008 237.443 322.015 237.687 321.1 238.168C319.614 238.95 318.524 240.257 318.028 241.849L315.453 250.126C314.427 253.428 316.27 256.955 319.561 257.986L333.782 262.44C337.072 263.469 340.587 261.624 341.616 258.32L344.191 250.043C345.218 246.741 343.375 243.213 340.084 242.182L325.863 237.729C325.254 237.538 324.63 237.443 324.008 237.443H324.007ZM335.64 265.422C334.759 265.422 333.864 265.291 332.98 265.013L318.76 260.56C314.054 259.086 311.42 254.044 312.889 249.321L315.463 241.044C316.173 238.765 317.731 236.896 319.851 235.781C321.974 234.664 324.392 234.442 326.663 235.155L340.884 239.609C345.59 241.083 348.224 246.125 346.755 250.847L344.181 259.124C342.986 262.959 339.448 265.422 335.64 265.422H335.64Z" fill="#37466A"/>
<path d="M246.732 270.098L232.512 265.643C228.522 264.395 226.278 260.096 227.522 256.094L230.098 247.818C231.343 243.816 235.624 241.563 239.614 242.812L253.835 247.267C257.823 248.517 260.069 252.814 258.824 256.816L256.249 265.092C255.003 269.095 250.721 271.348 246.732 270.098Z" fill="#617592"/>
<path d="M247.133 268.811C250.423 269.84 253.939 267.994 254.967 264.69L257.541 256.414C258.037 254.822 257.881 253.126 257.102 251.634C256.324 250.145 255.022 249.05 253.435 248.554L239.213 244.099C237.629 243.602 235.936 243.76 234.451 244.539C232.966 245.321 231.876 246.628 231.381 248.221L228.805 256.496C228.31 258.088 228.467 259.785 229.244 261.276C230.023 262.765 231.325 263.86 232.912 264.356L247.133 268.811H247.133ZM248.99 271.793C248.11 271.793 247.215 271.662 246.331 271.385L232.11 266.93C229.838 266.219 227.975 264.654 226.863 262.527C225.753 260.398 225.53 257.972 226.24 255.691L228.815 247.415C230.282 242.694 235.302 240.052 240.015 241.524L254.237 245.979C256.508 246.69 258.37 248.255 259.482 250.382C260.594 252.51 260.816 254.938 260.106 257.218L257.531 265.494C256.338 269.329 252.799 271.793 248.99 271.793H248.99Z" fill="#37466A"/>
<path d="M285.598 282.272L271.378 277.818C267.388 276.569 265.144 272.271 266.389 268.268L268.964 259.992C270.21 255.99 274.492 253.737 278.48 254.987L292.701 259.441C296.69 260.691 298.935 264.988 297.69 268.991L295.115 277.267C293.87 281.269 289.587 283.522 285.598 282.272Z" fill="#617592"/>
<path d="M286 280.986C289.29 282.015 292.804 280.168 293.834 276.865L296.408 268.589C296.903 266.997 296.747 265.3 295.969 263.809C295.19 262.32 293.887 261.224 292.301 260.729L278.08 256.274C274.792 255.247 271.275 257.091 270.246 260.395L267.672 268.671C267.176 270.262 267.333 271.96 268.111 273.45C268.889 274.94 270.192 276.035 271.779 276.531L286 280.986ZM287.857 283.968C286.976 283.968 286.082 283.836 285.198 283.559L270.977 279.105C268.705 278.394 266.842 276.83 265.73 274.702C264.619 272.574 264.396 270.147 265.106 267.867L267.681 259.59C269.15 254.869 274.172 252.227 278.881 253.699L293.102 258.154C295.374 258.865 297.238 260.43 298.35 262.557C299.46 264.685 299.682 267.112 298.973 269.392L296.398 277.668C295.205 281.504 291.666 283.968 287.857 283.968H287.857Z" fill="#37466A"/>
<path d="M323.881 294.264L309.66 289.81C305.671 288.56 303.426 284.263 304.671 280.261L307.246 271.984C308.492 267.982 312.773 265.729 316.762 266.979L330.984 271.433C334.973 272.683 337.218 276.979 335.973 280.982L333.398 289.259C332.152 293.261 327.87 295.514 323.881 294.264Z" fill="#617592"/>
<path d="M324.282 292.977C327.572 294.007 331.088 292.159 332.116 288.856L334.69 280.58C335.186 278.987 335.03 277.29 334.251 275.8C333.474 274.311 332.171 273.216 330.584 272.719L316.362 268.264C314.776 267.769 313.084 267.926 311.6 268.706C310.116 269.487 309.025 270.794 308.529 272.385L305.954 280.662C304.927 283.964 306.769 287.491 310.061 288.523L324.282 292.978L324.282 292.977ZM326.138 295.959C325.259 295.959 324.364 295.828 323.48 295.551L309.259 291.096C304.553 289.621 301.919 284.58 303.389 279.858L305.964 271.582C307.432 266.86 312.451 264.217 317.163 265.69L331.385 270.145C333.656 270.856 335.519 272.42 336.631 274.548C337.743 276.676 337.964 279.103 337.255 281.382L334.68 289.66C333.487 293.495 329.947 295.959 326.138 295.959H326.138Z" fill="#37466A"/>
<path d="M237.232 300.635L223.011 296.18C219.022 294.931 216.777 290.634 218.023 286.632L220.598 278.355C221.842 274.352 226.126 272.1 230.115 273.349L244.335 277.804C248.324 279.053 250.57 283.351 249.323 287.353L246.749 295.629C245.504 299.632 241.221 301.885 237.232 300.635Z" fill="#47AFD4"/>
<path d="M237.632 299.347C239.218 299.844 240.91 299.687 242.396 298.907C243.88 298.126 244.971 296.819 245.466 295.227L248.041 286.951C248.536 285.358 248.38 283.661 247.602 282.172C246.824 280.682 245.521 279.588 243.935 279.09L229.714 274.635C228.128 274.139 226.436 274.296 224.95 275.077C223.465 275.858 222.375 277.165 221.879 278.757L219.305 287.033C218.81 288.626 218.966 290.322 219.744 291.813C220.522 293.302 221.825 294.397 223.411 294.893L237.632 299.347ZM239.49 302.331C238.598 302.331 237.704 302.195 236.831 301.922L222.61 297.467C220.338 296.756 218.475 295.191 217.363 293.063C216.251 290.936 216.03 288.509 216.74 286.229L219.315 277.952C220.023 275.673 221.582 273.803 223.703 272.687C225.824 271.572 228.243 271.348 230.515 272.061L244.735 276.516C249.442 277.991 252.075 283.032 250.606 287.755L248.031 296.03C247.322 298.31 245.764 300.179 243.643 301.295C242.337 301.982 240.918 302.331 239.49 302.331Z" fill="#37466A"/>
<path d="M276.099 312.809L261.878 308.355C257.889 307.105 255.644 302.809 256.889 298.806L259.465 290.529C260.709 286.527 264.991 284.274 268.98 285.525L283.202 289.978C287.19 291.228 289.436 295.525 288.19 299.528L285.615 307.804C284.369 311.806 280.087 314.06 276.099 312.809Z" fill="#FBB459"/>
<path d="M266.724 286.526C265.725 286.526 264.731 286.77 263.817 287.251C262.333 288.032 261.242 289.34 260.747 290.931L258.171 299.208C257.675 300.8 257.832 302.497 258.61 303.987C259.389 305.477 260.692 306.571 262.278 307.067L276.499 311.522C278.084 312.018 279.777 311.863 281.262 311.082C282.747 310.301 283.837 308.993 284.332 307.401L286.907 299.125C287.936 295.824 286.093 292.297 282.801 291.264L268.579 286.811C267.971 286.62 267.347 286.525 266.724 286.525V286.526ZM278.356 314.505C277.465 314.505 276.57 314.37 275.698 314.097L261.477 309.642C259.204 308.931 257.341 307.367 256.229 305.239C255.118 303.111 254.896 300.685 255.606 298.404L258.181 290.128C258.89 287.848 260.449 285.978 262.569 284.863C264.689 283.746 267.108 283.525 269.381 284.237L283.602 288.691C288.309 290.166 290.942 295.208 289.473 299.929L286.898 308.205C286.188 310.485 284.63 312.355 282.509 313.47C281.203 314.157 279.784 314.505 278.356 314.505Z" fill="#37466A"/>
<path d="M314.38 324.801L300.159 320.346C296.171 319.096 293.925 314.799 295.172 310.797L297.746 302.521C298.992 298.518 303.274 296.266 307.263 297.514L321.484 301.97C325.473 303.218 327.718 307.516 326.472 311.519L323.897 319.795C322.653 323.797 318.369 326.05 314.38 324.801Z" fill="#5C81C0"/>
<path d="M314.781 323.514C316.367 324.01 318.059 323.853 319.545 323.073C321.029 322.292 322.121 320.985 322.615 319.393L325.19 311.117C325.685 309.524 325.529 307.828 324.751 306.337C323.973 304.848 322.67 303.753 321.084 303.256L306.863 298.802C305.277 298.305 303.585 298.463 302.099 299.242C300.615 300.023 299.523 301.331 299.029 302.923L296.455 311.199C295.959 312.791 296.115 314.487 296.892 315.978C297.671 317.468 298.974 318.562 300.56 319.059L314.781 323.514ZM316.639 326.497C315.748 326.497 314.854 326.361 313.98 326.088L299.759 321.632C297.487 320.921 295.624 319.357 294.513 317.229C293.401 315.102 293.179 312.674 293.889 310.395L296.464 302.119C297.172 299.838 298.731 297.969 300.852 296.853C302.973 295.739 305.392 295.515 307.664 296.228L321.885 300.682C324.157 301.393 326.02 302.958 327.131 305.085C328.243 307.213 328.464 309.641 327.755 311.921L325.18 320.197C324.471 322.476 322.913 324.345 320.792 325.461C319.486 326.148 318.066 326.497 316.639 326.497Z" fill="#37466A"/>
<path d="M310.169 351.513L211.915 320.736C208.748 319.744 206.964 316.331 207.954 313.153C208.943 309.975 212.343 308.186 215.51 309.178L313.766 339.954C316.933 340.947 318.716 344.359 317.726 347.537C316.737 350.715 313.336 352.504 310.169 351.513Z" fill="#37466A"/>
<path d="M310.569 350.225C313.034 350.998 315.673 349.612 316.443 347.135C316.814 345.942 316.698 344.669 316.115 343.552C315.53 342.434 314.554 341.614 313.363 341.24L215.109 310.465C212.644 309.692 210.007 311.079 209.235 313.555C208.466 316.032 209.847 318.675 212.316 319.449L310.568 350.225H310.569ZM311.962 353.136C311.235 353.136 310.497 353.027 309.768 352.799L211.514 322.022C207.632 320.807 205.458 316.648 206.67 312.751C207.883 308.855 212.025 306.674 215.911 307.89L314.165 338.667C316.041 339.254 317.577 340.545 318.494 342.3C319.411 344.056 319.594 346.057 319.008 347.939C318.024 351.103 315.104 353.136 311.962 353.136H311.962Z" fill="#37466A"/>
<path d="M308.599 304.196C308.599 305.379 307.643 306.339 306.463 306.339C305.283 306.339 304.327 305.379 304.327 304.196C304.327 303.012 305.283 302.052 306.463 302.052C307.643 302.052 308.599 303.012 308.599 304.196Z" fill="#FEFEFE"/>
<path d="M270.317 292.465C270.317 293.649 269.36 294.609 268.182 294.609C267.001 294.609 266.045 293.649 266.045 292.465C266.045 291.282 267.001 290.322 268.182 290.322C269.36 290.322 270.317 291.282 270.317 292.465Z" fill="#FEFEFE"/>
<path d="M230.188 279.602C230.188 280.785 229.231 281.746 228.053 281.746C226.873 281.746 225.916 280.785 225.916 279.602C225.916 278.417 226.873 277.458 228.053 277.458C229.231 277.458 230.188 278.417 230.188 279.602Z" fill="#FEFEFE"/>
<path d="M318.869 319.821C318.869 320.435 318.373 320.933 317.761 320.933C317.148 320.933 316.652 320.435 316.652 319.821C316.652 319.206 317.148 318.709 317.761 318.709C318.373 318.709 318.869 319.206 318.869 319.821Z" fill="#FEFEFE"/>
<path d="M325.474 241.338C325.474 242.129 324.835 242.772 324.047 242.772C323.258 242.772 322.619 242.129 322.619 241.338C322.619 240.548 323.258 239.907 324.047 239.907C324.835 239.907 325.474 240.548 325.474 241.338Z" fill="#37466A"/>
<path d="M315.256 273.409C315.256 274.2 314.616 274.841 313.828 274.841C313.04 274.841 312.4 274.2 312.4 273.409C312.4 272.618 313.04 271.977 313.828 271.977C314.616 271.977 315.256 272.618 315.256 273.409Z" fill="#37466A"/>
<path d="M360.688 190.044C360.688 192.116 359.014 193.794 356.95 193.794C354.884 193.794 353.211 192.115 353.211 190.044C353.211 187.971 354.884 186.292 356.95 186.292C359.014 186.292 360.688 187.972 360.688 190.044Z" fill="#3E5276"/>
<path d="M356.95 187.64C355.628 187.64 354.554 188.718 354.554 190.043C354.554 191.368 355.628 192.446 356.95 192.446C358.269 192.446 359.344 191.368 359.344 190.043C359.344 188.718 358.269 187.64 356.95 187.64ZM356.95 195.142C354.147 195.142 351.867 192.855 351.867 190.043C351.867 187.231 354.147 184.944 356.95 184.944C359.752 184.944 362.031 187.232 362.031 190.043C362.031 192.855 359.752 195.142 356.95 195.142Z" fill="#37466A"/>
<path d="M190.671 309.935C190.671 334.878 170.52 355.099 145.661 355.099C120.802 355.099 100.65 334.878 100.65 309.935C100.65 284.99 120.802 264.77 145.661 264.77C170.52 264.77 190.671 284.99 190.671 309.935Z" fill="#37466A"/>
<path d="M186.337 307.51C186.337 332.454 166.186 352.675 141.326 352.675C116.468 352.675 96.3164 332.454 96.3164 307.51C96.3164 282.566 116.468 262.344 141.326 262.344C166.186 262.344 186.337 282.566 186.337 307.51Z" fill="#37466A"/>
<path d="M186.337 307.51C186.337 332.454 166.186 352.675 141.326 352.675C116.468 352.675 96.3164 332.454 96.3164 307.51C96.3164 282.566 116.468 262.344 141.326 262.344C166.186 262.344 186.337 282.566 186.337 307.51Z" fill="#FBB459"/>
<path d="M141.327 263.693C117.248 263.693 97.66 283.35 97.66 307.51C97.66 331.67 117.249 351.327 141.327 351.327C165.405 351.327 184.994 331.669 184.994 307.51C184.994 283.35 165.404 263.693 141.327 263.693ZM141.327 354.024C115.766 354.024 94.9727 333.157 94.9727 307.51C94.9727 281.862 115.766 260.996 141.327 260.996C166.886 260.996 187.681 281.862 187.681 307.51C187.681 333.157 166.886 354.024 141.327 354.024Z" fill="#37466A"/>
<path d="M141.326 272.033C121.831 272.033 105.971 287.948 105.971 307.51C105.971 327.071 121.831 342.986 141.326 342.986C160.821 342.986 176.682 327.071 176.682 307.51C176.682 287.948 160.821 272.033 141.326 272.033ZM141.326 344.784C120.843 344.784 104.179 328.063 104.179 307.51C104.179 286.956 120.843 270.235 141.326 270.235C161.81 270.235 178.474 286.955 178.474 307.51C178.474 328.063 161.81 344.784 141.326 344.784Z" fill="#FEFEFE"/>
<path d="M140.914 276.068C123.636 276.068 109.578 290.173 109.578 307.511C109.578 324.848 123.636 338.953 140.914 338.953C158.192 338.953 172.249 324.848 172.249 307.511C172.249 290.173 158.192 276.068 140.914 276.068ZM140.914 340.75C122.647 340.75 107.786 325.839 107.786 307.511C107.786 289.182 122.647 274.271 140.914 274.271C159.179 274.271 174.04 289.182 174.04 307.511C174.04 325.839 159.179 340.75 140.914 340.75Z" fill="#FEFEFE"/>
<path d="M166.689 308.903C166.689 310.704 165.234 312.163 163.44 312.163C161.647 312.163 160.192 310.704 160.192 308.903C160.192 307.104 161.647 305.645 163.44 305.645C165.235 305.645 166.689 307.104 166.689 308.903Z" fill="#37466A"/>
<path d="M121.057 308.903C121.057 310.704 119.602 312.163 117.808 312.163C116.014 312.163 114.56 310.704 114.56 308.903C114.56 307.104 116.014 305.645 117.808 305.645C119.602 305.645 121.057 307.104 121.057 308.903Z" fill="#37466A"/>
<path d="M110.762 254.605C108.801 263.397 100.109 268.931 91.3466 266.963C82.5844 264.995 77.07 256.274 79.0307 247.481C80.9922 238.689 89.6837 233.157 98.4467 235.124C107.209 237.091 112.723 245.814 110.762 254.605Z" fill="#37466A"/>
<path d="M109.425 253.408C107.465 262.2 98.7717 267.733 90.0098 265.766C81.2467 263.798 75.7335 255.077 77.6942 246.283C79.6545 237.492 88.3472 231.958 97.1091 233.926C105.872 235.894 111.386 244.616 109.425 253.408Z" fill="#37466A"/>
<path d="M109.425 253.408C107.465 262.2 98.7717 267.733 90.0098 265.766C81.2467 263.798 75.7335 255.077 77.6942 246.283C79.6545 237.492 88.3472 231.958 97.1091 233.926C105.872 235.894 111.386 244.616 109.425 253.408Z" fill="#FBB459"/>
<path d="M109.425 253.408H109.434H109.425ZM93.53 234.426C90.6491 234.426 87.8229 235.243 85.3313 236.829C81.8663 239.034 79.4641 242.462 78.5682 246.48C77.6722 250.498 78.3887 254.626 80.587 258.103C82.7846 261.579 86.201 263.99 90.2053 264.889C98.4683 266.74 106.7 261.507 108.551 253.211C109.447 249.194 108.73 245.066 106.532 241.59C104.334 238.113 100.918 235.702 96.9141 234.803C95.7889 234.552 94.6549 234.426 93.53 234.426ZM93.5612 267.061C92.3249 267.061 91.0697 266.925 89.8144 266.642C85.3431 265.639 81.5286 262.948 79.0739 259.065C76.62 255.183 75.8199 250.573 76.8204 246.087C77.8205 241.6 80.5022 237.773 84.3719 235.311C88.24 232.849 92.8315 232.044 97.3058 233.049C101.777 234.052 105.591 236.743 108.045 240.626C110.5 244.508 111.3 249.117 110.3 253.604C108.515 261.604 101.413 267.061 93.5616 267.061H93.5612Z" fill="#37466A"/>
<path d="M90.7734 262.339C94.0936 263.084 97.5088 262.485 100.389 260.652C103.27 258.818 105.266 255.973 106.009 252.641C107.546 245.753 103.21 238.895 96.3452 237.353C93.0254 236.608 89.6094 237.208 86.7292 239.04C83.8478 240.875 81.8522 243.719 81.1095 247.05C79.5732 253.938 83.9091 260.798 90.7734 262.339ZM93.5756 263.325C92.5945 263.325 91.6073 263.216 90.6266 262.997C83.4006 261.374 78.837 254.154 80.4535 246.903C81.2361 243.396 83.3371 240.401 86.3691 238.471C89.401 236.541 92.9938 235.911 96.4923 236.694C103.719 238.319 108.283 245.537 106.665 252.788C105.883 256.295 103.783 259.29 100.75 261.221C98.5667 262.609 96.0938 263.325 93.5756 263.325Z" fill="#FEFEFE"/>
<path d="M93.4 238.465C91.2796 238.465 89.1983 239.069 87.3608 240.238C84.8081 241.863 83.0394 244.383 82.3808 247.336C81.0194 253.44 84.8617 259.519 90.9449 260.885C93.889 261.545 96.9152 261.014 99.4665 259.388C102.021 257.764 103.789 255.243 104.447 252.291C105.106 249.339 104.576 246.302 102.957 243.74C101.337 241.178 98.8242 239.403 95.8824 238.743C95.0572 238.558 94.2259 238.465 93.4 238.465ZM93.4152 261.834C92.5508 261.834 91.6754 261.739 90.7974 261.542C84.3533 260.095 80.2828 253.656 81.7244 247.188C82.4226 244.062 84.2966 241.39 87.0015 239.668C89.706 237.946 92.9125 237.386 96.0288 238.084C102.474 239.531 106.545 245.97 105.102 252.438C103.857 258.024 98.8968 261.832 93.4148 261.834L93.4152 261.834Z" fill="#FEFEFE"/>
<path d="M102.39 252.344C102.249 252.979 101.62 253.378 100.988 253.236C100.355 253.094 99.9578 252.464 100.099 251.829C100.241 251.196 100.869 250.796 101.501 250.938C102.134 251.079 102.531 251.709 102.39 252.344Z" fill="#37466A"/>
<path d="M86.3049 248.733C86.1627 249.368 85.5356 249.766 84.9028 249.625C84.2716 249.483 83.8734 248.853 84.0141 248.219C84.156 247.584 84.783 247.184 85.4158 247.326C86.0478 247.469 86.4463 248.098 86.3049 248.733Z" fill="#37466A"/>
<path d="M88.0298 286.838C91.3249 298.511 84.5651 310.655 72.931 313.96C61.2969 317.267 49.1951 310.483 45.9008 298.81C42.6053 287.136 49.3655 274.993 60.9992 271.687C72.6333 268.38 84.7355 275.164 88.0298 286.838Z" fill="#37466A"/>
<path d="M85.6817 286.279C88.976 297.953 82.2159 310.097 70.5829 313.402C58.9492 316.709 46.847 309.925 43.5515 298.252C40.2572 286.577 47.0173 274.435 58.6514 271.129C70.2848 267.823 82.3874 274.606 85.6817 286.279Z" fill="#37466A"/>
<path d="M85.6817 286.279C88.976 297.953 82.2159 310.097 70.5829 313.402C58.9492 316.709 46.847 309.925 43.5515 298.252C40.2572 286.577 47.0173 274.435 58.6514 271.129C70.2848 267.823 82.3874 274.606 85.6817 286.279Z" fill="#FBB459"/>
<path d="M64.6475 271.636C62.767 271.636 60.8759 271.897 59.0179 272.426C48.1151 275.525 41.7573 286.946 44.844 297.885C47.9322 308.824 59.313 315.202 70.2162 312.106C75.4982 310.606 79.8809 307.131 82.5572 302.322C85.234 297.514 85.8846 291.948 84.389 286.649C82.8942 281.348 79.4306 276.951 74.6388 274.264C71.5331 272.524 68.1095 271.636 64.6479 271.636L64.6475 271.636ZM64.625 315.585C54.4926 315.585 45.1531 308.874 42.2585 298.62C38.7672 286.249 45.957 273.335 58.2847 269.831C70.6193 266.329 83.4843 273.544 86.9745 285.912C90.4658 298.283 83.2771 311.197 70.9494 314.7C68.84 315.299 66.7162 315.585 64.625 315.585Z" fill="#37466A"/>
<path d="M64.628 274.903C63.0491 274.903 61.4629 275.123 59.9046 275.566C50.7278 278.174 45.3755 287.787 47.9735 296.994C50.5746 306.203 60.1594 311.569 69.33 308.965C73.7678 307.704 77.4546 304.778 79.7104 300.726C81.9669 296.673 82.5168 291.99 81.2596 287.537C80.0028 283.083 77.0869 279.384 73.0476 277.12C70.4287 275.651 67.5428 274.903 64.6276 274.903L64.628 274.903ZM64.6238 310.298C56.7882 310.298 49.5668 305.11 47.3278 297.179C44.6282 287.613 50.1878 277.626 59.7205 274.918C64.3317 273.605 69.1814 274.18 73.3765 276.532C77.571 278.884 80.601 282.726 81.9057 287.352C83.2119 291.979 82.6408 296.845 80.2968 301.055C77.9543 305.264 74.1245 308.303 69.5141 309.613C67.8835 310.077 66.2403 310.298 64.6242 310.298L64.6238 310.298Z" fill="#FEFEFE"/>
<path d="M64.4337 276.921C63.0332 276.921 61.6266 277.116 60.2439 277.509C56.3073 278.628 53.0373 281.222 51.0367 284.817C49.0361 288.411 48.5478 292.566 49.6624 296.515C50.7777 300.465 53.3643 303.746 56.9461 305.753C60.5279 307.762 64.6706 308.249 68.6034 307.133C72.54 306.014 75.8104 303.418 77.8106 299.824C79.8112 296.231 80.2999 292.076 79.1849 288.127C78.0696 284.177 75.4841 280.895 71.9023 278.888C69.5785 277.586 67.0192 276.921 64.4337 276.921ZM64.4121 308.394C61.7133 308.394 59.0434 307.701 56.6172 306.343C52.8795 304.246 50.1799 300.822 49.0163 296.699C47.8519 292.575 48.3611 288.239 50.4495 284.488C52.538 280.736 55.9506 278.028 60.0598 276.861C64.1702 275.692 68.492 276.204 72.2293 278.3C75.9678 280.396 78.6678 283.819 79.8303 287.942C80.995 292.065 80.4859 296.402 78.3978 300.153C76.3085 303.904 72.8956 306.613 68.7871 307.78C67.3436 308.191 65.8742 308.394 64.4121 308.394Z" fill="#FEFEFE"/>
<path d="M76.6708 289.545C76.9088 290.389 76.4205 291.264 75.5809 291.503C74.7409 291.742 73.8678 291.252 73.6297 290.41C73.3924 289.568 73.8799 288.691 74.72 288.452C75.5596 288.214 76.4327 288.704 76.6708 289.545Z" fill="#37466A"/>
<path d="M55.3137 295.614C55.5517 296.457 55.0634 297.333 54.2242 297.572C53.3842 297.811 52.511 297.321 52.2734 296.478C52.0357 295.636 52.524 294.759 53.3629 294.521C54.2025 294.283 55.0756 294.772 55.3137 295.614Z" fill="#37466A"/>
<path d="M227.034 206.334L133.806 201.671C129.431 201.451 126.062 197.716 126.28 193.326L133.271 52.5918C133.932 39.3112 145.196 29.0804 158.433 29.7428L220.317 32.8374C233.554 33.4998 243.749 44.8039 243.089 58.0845L236.135 198.07C235.895 202.873 231.822 206.574 227.034 206.334V206.334Z" fill="#37466A"/>
<path d="M221.037 206.334L127.809 201.671C123.434 201.451 120.065 197.716 120.282 193.326L127.274 52.5918C127.934 39.3112 139.2 29.0804 152.435 29.7428L214.32 32.8374C227.556 33.4998 237.751 44.8039 237.092 58.0845L230.137 198.07C229.899 202.873 225.825 206.574 221.037 206.334V206.334Z" fill="#FEFEFE"/>
<path d="M221.104 204.988C225.176 205.193 228.594 202.054 228.795 198.002L235.75 58.0176C236.372 45.5001 226.729 34.808 214.254 34.1834L152.369 31.0888C146.324 30.7866 140.527 32.8631 136.041 36.9376C131.554 41.012 128.917 46.5948 128.616 52.6587L121.625 193.393C121.444 197.033 124.248 200.142 127.876 200.324L221.104 204.987L221.104 204.988ZM221.474 207.693C221.307 207.693 221.14 207.689 220.971 207.681L127.742 203.017C122.634 202.761 118.686 198.384 118.941 193.26L125.933 52.5244C126.269 45.7416 129.218 39.4964 134.237 34.9393C139.257 30.3821 145.761 28.0591 152.502 28.3964L214.386 31.491C228.342 32.1893 239.129 44.1497 238.434 58.1519L231.479 198.137C231.212 203.506 226.773 207.693 221.474 207.693H221.474Z" fill="#37466A"/>
<path d="M213.206 32.8111L213.208 32.7821L125.001 28.37C114.85 27.8621 106.192 36.066 105.664 46.6924L105.301 54.0018L194.504 58.4639L194.867 51.1541C195.377 40.8787 203.49 32.8695 213.205 32.8111H213.206Z" fill="#FEFEFE"/>
<path d="M106.71 52.7229L193.228 57.05L193.525 51.0879C193.904 43.45 198.228 36.9449 204.371 33.6905L124.935 29.7168C120.388 29.4939 116.03 31.1297 112.646 34.3365C109.247 37.557 107.244 41.9691 107.006 46.7601L106.71 52.7229ZM194.504 59.8126L194.437 59.8107L105.235 55.3485C104.493 55.3119 103.923 54.6789 103.959 53.9344L104.322 46.6258C104.595 41.1376 106.896 36.0768 110.8 32.3752C114.723 28.6602 119.786 26.7592 125.068 27.0233L213.274 31.4358C213.633 31.4541 213.969 31.6147 214.208 31.883C214.448 32.1512 214.57 32.5049 214.549 32.8644C214.506 33.5726 213.922 34.1552 213.214 34.1594C204.15 34.2136 196.682 41.7085 196.209 51.2218L195.846 58.5305C195.829 58.888 195.671 59.2234 195.406 59.4634C195.158 59.6882 194.837 59.8126 194.504 59.8126H194.504Z" fill="#37466A"/>
<path d="M193.228 57.0498L106.71 52.7228L107.006 46.7599C107.244 41.9689 109.247 37.5572 112.646 34.3363C115.827 31.323 119.866 29.6968 124.115 29.6968C124.388 29.6968 124.661 29.7033 124.935 29.7166L204.371 33.6903C198.228 36.9447 193.904 43.4498 193.525 51.0877L193.228 57.0498Z" fill="#E7E9ED"/>
<path d="M194.504 58.4641L105.301 54.0019L105.664 46.6925C106.177 36.3782 114.346 28.3477 124.109 28.3477C124.404 28.3477 124.704 28.3557 125.002 28.3702L213.208 32.7823L213.206 32.8113C203.491 32.8697 195.378 40.8789 194.867 51.1543L194.504 58.4641H194.504ZM124.115 29.6969C119.866 29.6969 115.827 31.3232 112.646 34.3364C109.247 37.5569 107.244 41.969 107.006 46.7601L106.71 52.7229L193.228 57.0499L193.525 51.0879C193.904 43.4499 198.228 36.9449 204.371 33.6904L124.935 29.7167C124.662 29.7034 124.388 29.6969 124.115 29.6969Z" fill="#37466A"/>
<path d="M170.005 71.6494L169.938 71.6475L147.454 70.523C146.712 70.4864 146.142 69.8534 146.179 69.1089C146.216 68.3656 146.867 67.7921 147.587 67.8299L170.071 68.9548C170.813 68.9914 171.382 69.6244 171.346 70.3685C171.31 71.0893 170.716 71.6494 170.005 71.6494Z" fill="#37466A"/>
<path d="M220.989 74.8522L220.922 74.8503L198.438 73.7258C197.695 73.6888 197.126 73.055 197.163 72.3117C197.199 71.5684 197.849 70.9934 198.571 71.0327L221.055 72.1572C221.797 72.1942 222.367 72.8268 222.33 73.5713C222.294 74.2913 221.7 74.8522 220.989 74.8522Z" fill="#37466A"/>
<path d="M190.857 99.0805L190.797 99.0798L146.141 97.1238C145.4 97.0903 144.824 96.461 144.856 95.7177C144.888 94.9744 145.487 94.3918 146.258 94.4284L190.915 96.3855C191.655 96.4179 192.231 97.0471 192.199 97.7916C192.168 98.515 191.572 99.0805 190.857 99.0805Z" fill="#37466A"/>
<path d="M163.574 112.824L163.498 112.822L144.878 111.777C144.136 111.736 143.569 111.099 143.61 110.356C143.652 109.612 144.287 109.049 145.027 109.085L163.649 110.129C164.39 110.171 164.957 110.808 164.916 111.551C164.875 112.269 164.282 112.824 163.574 112.824Z" fill="#37466A"/>
<path d="M178.923 85.4402L178.855 85.4383L146.793 83.8334C146.051 83.7968 145.481 83.163 145.517 82.4197C145.555 81.6752 146.189 81.1044 146.927 81.1403L178.989 82.744C179.731 82.781 180.3 83.4137 180.263 84.1581C180.228 84.8789 179.634 85.4402 178.923 85.4402Z" fill="#37466A"/>
<path d="M190.857 86.0372L190.788 86.0353L186.627 85.8269C185.887 85.7899 185.316 85.1561 185.353 84.4128C185.39 83.6684 185.993 83.0876 186.762 83.1334L190.923 83.3421C191.665 83.3787 192.235 84.0118 192.198 84.7551C192.162 85.4763 191.568 86.0372 190.857 86.0372Z" fill="#37466A"/>
<path d="M221.518 107.542L220.624 107.503C220.531 109.715 219.552 111.824 217.973 113.317L217.967 113.322L217.964 113.325C216.895 114.363 215.653 115.05 214.235 115.397L213.58 115.556L213.476 118.021V118.022C213.449 118.651 213.19 119.224 212.765 119.629L212.76 119.634L212.764 119.63C212.361 120.014 211.843 120.226 211.27 120.227L211.173 120.225C210.482 120.191 209.961 119.933 209.541 119.481L209.54 119.479C209.143 119.047 208.914 118.483 208.915 117.916L208.917 117.827L209.016 115.48L205.169 115.316C204.018 115.265 203.161 114.868 202.606 114.312L201.972 114.948L202.614 114.32C202.12 113.808 201.841 113.119 201.837 112.231L201.841 112.06C201.86 111.602 201.948 111.237 202.082 110.946C202.285 110.512 202.573 110.215 203.046 109.979C203.516 109.746 204.184 109.602 205.046 109.603C205.164 109.603 205.286 109.606 205.411 109.611L212.398 109.91L212.485 109.911C212.95 109.903 213.452 109.783 213.933 109.42L213.384 108.71L213.898 109.447C214.184 109.248 214.426 108.986 214.592 108.682C214.758 108.377 214.842 108.037 214.855 107.706L214.856 107.68L214.855 107.705L214.858 107.569C214.859 107.173 214.78 106.774 214.584 106.419C214.39 106.063 214.085 105.779 213.748 105.594L213.733 105.586L213.717 105.578C213.442 105.438 213.222 105.359 213.046 105.316L213.023 105.31L212.999 105.306L212.874 105.279L212.848 105.272H212.846L212.71 105.762L212.851 105.273L212.846 105.272L212.71 105.762L212.851 105.273L212.748 105.242L209.304 105.096L209.266 105.994L209.329 105.097C207.236 104.95 205.34 104.037 204.014 102.626L204.017 102.631C202.758 101.269 202.04 99.5536 202.037 97.6065C202.037 97.4966 202.04 97.3859 202.044 97.2749C202.134 95.1224 203.142 93.0574 204.746 91.5795C206.027 90.4001 207.658 89.6381 209.374 89.4233L210.126 89.3286L210.208 87.3761V87.3773C210.246 86.7255 210.459 86.2669 210.971 85.7815L210.97 85.7823C211.43 85.3679 211.901 85.1809 212.522 85.1748L212.639 85.1775C213.22 85.2027 213.766 85.4621 214.187 85.9189L214.846 85.3114L214.176 85.9074C214.595 86.3936 214.763 86.8431 214.77 87.4482L214.767 87.5715L214.765 87.6215L214.722 88.6372L214.685 89.5354L216.705 89.6217C217.921 89.6728 218.783 89.9987 219.308 90.4504C219.83 90.9064 220.105 91.4834 220.115 92.3732L220.111 92.5396C220.059 93.5866 219.737 94.2368 219.228 94.6851C218.714 95.1323 217.912 95.417 216.766 95.4178C216.666 95.4178 216.564 95.4158 216.459 95.4117L209.94 95.1331L209.832 95.1304C209.288 95.1274 208.752 95.317 208.362 95.6849C207.969 96.0489 207.745 96.5751 207.726 97.1123V97.1116L207.723 97.231C207.724 97.7228 207.848 98.2071 208.146 98.6214C208.435 99.0362 208.956 99.3533 209.527 99.3697L212.734 99.5063C215.009 99.6032 217.05 100.492 218.494 101.93L218.496 101.933L218.497 101.934C219.871 103.29 220.628 105.081 220.632 107.147C220.632 107.265 220.629 107.384 220.624 107.503L221.519 107.542L222.413 107.58C222.42 107.435 222.423 107.29 222.423 107.147C222.427 104.631 221.47 102.334 219.751 100.649L219.756 100.654C217.974 98.8805 215.502 97.8251 212.81 97.7106L209.603 97.574L209.597 97.5733L209.588 97.6015L209.607 97.5786L209.597 97.5733L209.588 97.6015L209.607 97.5786L209.56 97.4985C209.535 97.4397 209.514 97.3466 209.515 97.2314L209.516 97.189C209.524 97.0662 209.555 97.031 209.584 96.9994C209.615 96.9727 209.673 96.9311 209.832 96.9284L209.864 96.9295L216.383 97.2081C216.513 97.2134 216.64 97.2161 216.766 97.2161C218.197 97.2173 219.463 96.8567 220.399 96.0458C221.339 95.2377 221.848 94.0178 221.9 92.6159C221.904 92.535 221.906 92.4541 221.906 92.374C221.916 91.0633 221.407 89.8724 220.47 89.0825C219.536 88.2888 218.265 87.8905 216.781 87.8267L216.55 87.8168L216.557 87.6486L216.561 87.4494C216.569 86.4424 216.201 85.4789 215.516 84.7158L215.51 84.7101L215.505 84.704C214.786 83.9164 213.79 83.4284 212.716 83.3826L212.522 83.378C211.486 83.3719 210.509 83.7592 209.759 84.4586L209.758 84.4594C208.942 85.1985 208.456 86.2051 208.418 87.3002V87.3009L208.367 88.4937L209.263 88.5323L209.151 87.6409C207.059 87.9042 205.09 88.8246 203.534 90.2566C201.597 92.0427 200.37 94.5352 200.255 97.1993C200.249 97.3359 200.246 97.4725 200.246 97.6076C200.243 100.01 201.156 102.191 202.707 103.857L202.71 103.862H202.711C204.358 105.61 206.672 106.712 209.203 106.892L209.216 106.893L212.563 107.035L212.601 106.137L212.35 107C212.373 107.007 212.484 107.038 212.665 107.073L212.832 106.19L212.618 107.063C212.652 107.072 212.724 107.09 212.911 107.184L213.314 106.381L212.879 107.167C212.974 107.222 212.993 107.251 213.015 107.288C213.036 107.327 213.066 107.401 213.067 107.569L213.066 107.63L213.064 107.655L213.066 107.629C213.061 107.724 213.042 107.776 213.019 107.821C212.994 107.865 212.958 107.912 212.871 107.975L212.853 107.988L212.836 108.001L212.485 108.114L212.475 108.113L205.487 107.815C205.338 107.809 205.192 107.806 205.046 107.806C203.647 107.807 202.435 108.104 201.517 108.832C201.062 109.193 200.698 109.66 200.454 110.198C200.209 110.736 200.079 111.337 200.051 111.984C200.048 112.067 200.046 112.149 200.046 112.231C200.043 113.512 200.483 114.707 201.332 115.576L201.335 115.579L201.34 115.584C202.253 116.5 203.568 117.049 205.093 117.112L207.151 117.2L207.128 117.751V117.75L207.124 117.916C207.125 118.965 207.537 119.95 208.222 120.697L208.222 120.696C208.938 121.488 209.96 121.979 211.097 122.022L211.27 122.026C212.297 122.027 213.272 121.631 214.001 120.931L214 120.932C214.774 120.194 215.22 119.175 215.266 118.098V118.099L215.342 116.308L214.447 116.271L214.658 117.145C216.379 116.727 217.925 115.869 219.211 114.617L218.588 113.971L219.202 114.626C221.121 112.809 222.298 110.272 222.413 107.58L221.518 107.543V107.542Z" fill="#FEFEFE"/>
<path d="M106.951 48.1073L126.042 48.8903C126.784 48.9208 127.41 48.3419 127.44 47.5983C127.47 46.8542 126.894 46.2257 126.152 46.1952L107.06 45.4122C106.319 45.3825 105.693 45.9606 105.663 46.705C105.633 47.4494 106.209 48.0768 106.951 48.1073Z" fill="#37466A"/>
<path d="M44.6921 121.589L117.481 219.695L179.888 173.076L105.723 73.1143L105.082 84.2279L94.8366 81.7866L94.2285 92.3348L84.5323 90.0256L83.9455 100.197L74.4318 97.9302L73.8565 107.914L64.3432 105.648L63.8214 114.689L53.3939 112.205L52.7642 123.13L44.6921 121.589Z" fill="#47AFD4"/>
<path d="M47.8301 123.56L117.757 217.809L178.008 172.8L106.85 76.8921L106.423 84.3065C106.399 84.7037 106.203 85.0712 105.883 85.3096C105.565 85.5477 105.16 85.6321 104.771 85.5397L96.086 83.4705L95.5689 92.413C95.546 92.811 95.3487 93.1788 95.03 93.4162C94.7117 93.655 94.306 93.7405 93.9169 93.647L85.781 91.709L85.2859 100.275C85.2634 100.674 85.0661 101.04 84.747 101.278C84.4295 101.517 84.0226 101.602 83.6343 101.509L75.6802 99.6137L75.1968 107.991C75.174 108.389 74.977 108.757 74.658 108.995C74.3389 109.234 73.9343 109.319 73.5449 109.225L65.5911 107.331L65.1614 114.767C65.1386 115.165 64.942 115.533 64.6226 115.771C64.305 116.009 63.8981 116.094 63.5099 116.001L54.6419 113.888L54.1038 123.208C54.0818 123.596 53.8943 123.954 53.5893 124.193C53.2843 124.432 52.8896 124.525 52.5116 124.454L47.8289 123.56L47.8301 123.56ZM117.481 221.043L117.286 221.029C116.933 220.977 116.616 220.786 116.403 220.5L43.6147 122.393C43.2839 121.948 43.2592 121.344 43.5531 120.873C43.8471 120.402 44.3996 120.16 44.9434 120.264L51.5115 121.517L52.053 112.127C52.0758 111.729 52.2728 111.36 52.5918 111.123C52.9098 110.885 53.3147 110.799 53.7049 110.892L62.5725 113.005L63.0022 105.569C63.025 105.172 63.2216 104.803 63.5411 104.566C63.8586 104.328 64.2647 104.241 64.6537 104.335L72.6075 106.23L73.0916 97.8523C73.1145 97.454 73.3111 97.0865 73.6305 96.848C73.948 96.6099 74.3534 96.5256 74.7432 96.6179L82.6973 98.5132L83.1925 89.9469C83.2153 89.5485 83.4119 89.1807 83.7309 88.9437C84.0488 88.7053 84.4554 88.6206 84.8436 88.7125L92.9796 90.6517L93.4967 81.7091C93.5199 81.3108 93.7162 80.9429 94.036 80.7048C94.3531 80.4663 94.76 80.382 95.1487 80.4747L103.833 82.544L104.382 73.036C104.416 72.4705 104.797 71.9851 105.338 71.8226C105.879 71.6596 106.464 71.8539 106.802 72.3087L180.967 172.271C181.41 172.868 181.287 173.713 180.691 174.158L118.285 220.776C118.052 220.952 117.77 221.043 117.483 221.043L117.481 221.043Z" fill="#37466A"/>
<path d="M66.9654 135.498C66.555 135.498 66.1497 135.311 65.8865 134.955C65.4431 134.358 65.5663 133.513 66.1622 133.069L85.3501 118.735C85.9441 118.29 86.7875 118.414 87.2301 119.012C87.6739 119.609 87.5503 120.454 86.9548 120.898L67.7666 135.232C67.5259 135.411 67.2445 135.498 66.9654 135.498Z" fill="#FEFEFE"/>
<path d="M72.6442 143.152C72.2342 143.152 71.8292 142.964 71.5657 142.609C71.1223 142.011 71.2455 141.166 71.8414 140.723L107.115 114.373C107.709 113.929 108.553 114.051 108.996 114.649C109.439 115.246 109.316 116.091 108.72 116.536L73.4462 142.885C73.2055 143.065 72.9237 143.152 72.6442 143.152Z" fill="#37466A"/>
<path d="M111.733 113.952C111.323 113.952 110.918 113.764 110.654 113.409C110.211 112.812 110.335 111.967 110.93 111.522L115.655 107.994C116.249 107.549 117.092 107.673 117.535 108.271C117.978 108.867 117.855 109.713 117.259 110.157L112.534 113.685C112.294 113.865 112.012 113.952 111.733 113.952Z" fill="#FEFEFE"/>
<path d="M80.8186 154.17C80.4087 154.17 80.0037 153.982 79.7402 153.626C79.2968 153.029 79.42 152.184 80.0159 151.74L92.9771 142.058C93.5711 141.614 94.4149 141.738 94.8576 142.335C95.301 142.932 95.1774 143.776 94.5815 144.221L81.6206 153.903C81.3795 154.083 81.0981 154.17 80.8186 154.17Z" fill="#37466A"/>
<path d="M99.3768 140.307C98.9664 140.307 98.5607 140.12 98.2971 139.764C97.8537 139.167 97.9773 138.322 98.5732 137.877L123.829 119.011C124.423 118.566 125.267 118.689 125.709 119.288C126.152 119.884 126.03 120.73 125.433 121.174L100.178 140.041C99.9377 140.221 99.6555 140.307 99.3768 140.307Z" fill="#37466A"/>
<path d="M92.8212 170.347C92.4109 170.347 92.0059 170.16 91.7427 169.804C91.2993 169.208 91.4225 168.362 92.0184 167.918L120.461 146.671C121.055 146.226 121.898 146.35 122.34 146.948C122.784 147.545 122.661 148.39 122.065 148.834L93.6232 170.08C93.3821 170.261 93.1007 170.347 92.8212 170.347Z" fill="#FEFEFE"/>
<path d="M135.003 162.9C134.593 162.9 134.188 162.713 133.925 162.357C133.481 161.76 133.605 160.915 134.2 160.471L147.319 150.671C147.913 150.227 148.757 150.35 149.199 150.948C149.642 151.545 149.519 152.39 148.923 152.835L135.805 162.634C135.564 162.814 135.283 162.9 135.003 162.9Z" fill="#37466A"/>
<path d="M142.983 103.249L133.918 176.205L189.267 183.13L198.504 108.794L192.802 113.248L188.588 107.816L183.175 112.043L179.188 106.903L173.968 110.979L170.057 105.936L164.932 109.937L161.021 104.893L156.381 108.516L152.093 102.987L146.486 107.366L143.056 102.942L142.983 103.249Z" fill="#FBB459"/>
<path d="M135.417 175.035L188.1 181.627L196.769 111.858L193.626 114.313C193.041 114.77 192.197 114.665 191.741 114.077L188.353 109.709L184 113.109C183.415 113.566 182.571 113.459 182.115 112.873L178.953 108.796L174.793 112.044C174.512 112.264 174.154 112.364 173.802 112.318C173.448 112.274 173.127 112.09 172.908 111.808L169.821 107.829L165.758 111.001C165.173 111.458 164.328 111.353 163.873 110.765L160.786 106.786L157.206 109.581C156.926 109.801 156.568 109.902 156.215 109.855C155.861 109.811 155.54 109.628 155.321 109.345L151.858 104.881L147.312 108.431C146.727 108.888 145.882 108.782 145.427 108.195L143.958 106.301L135.417 175.035H135.417ZM189.267 184.48L189.102 184.469L133.752 177.544C133.015 177.451 132.492 176.778 132.585 176.039L141.65 103.084C141.663 102.98 141.687 102.88 141.721 102.786C141.762 102.441 141.935 102.11 142.23 101.88C142.815 101.421 143.66 101.527 144.116 102.115L146.722 105.474L151.268 101.925C151.549 101.705 151.907 101.607 152.26 101.651C152.613 101.694 152.936 101.878 153.154 102.16L156.616 106.625L160.196 103.829C160.78 103.372 161.624 103.478 162.082 104.066L165.168 108.045L169.231 104.873C169.816 104.414 170.66 104.521 171.116 105.108L174.203 109.087L178.362 105.84C178.947 105.381 179.791 105.488 180.248 106.076L183.41 110.152L187.764 106.754C188.347 106.294 189.192 106.402 189.648 106.989L193.036 111.356L197.679 107.731C198.106 107.396 198.695 107.352 199.168 107.622C199.64 107.892 199.904 108.421 199.837 108.962L190.6 183.297C190.557 183.652 190.374 183.976 190.092 184.195C189.854 184.38 189.564 184.48 189.267 184.48H189.267Z" fill="#37466A"/>
<path d="M165.657 121.174L165.545 121.167L148.528 119.037C148.037 118.976 147.689 118.527 147.751 118.035C147.81 117.542 148.256 117.189 148.75 117.254L165.768 119.383C166.259 119.444 166.606 119.894 166.545 120.386C166.489 120.841 166.103 121.174 165.657 121.174Z" fill="#FEFEFE"/>
<path d="M179.216 128.651L179.104 128.644L147.82 124.729C147.329 124.668 146.981 124.219 147.042 123.727C147.104 123.234 147.544 122.884 148.042 122.946L179.327 126.86C179.817 126.921 180.166 127.37 180.105 127.862C180.049 128.318 179.663 128.651 179.216 128.651Z" fill="#37466A"/>
<path d="M186.791 129.597L186.679 129.591L182.489 129.066C181.998 129.005 181.65 128.556 181.712 128.063C181.772 127.571 182.215 127.219 182.711 127.283L186.901 127.807C187.391 127.868 187.74 128.318 187.679 128.809C187.622 129.265 187.236 129.597 186.791 129.597Z" fill="#FEFEFE"/>
<path d="M158.409 134.367L158.297 134.359L146.801 132.921C146.311 132.86 145.962 132.411 146.024 131.918C146.083 131.426 146.534 131.076 147.024 131.138L158.519 132.576C159.01 132.637 159.359 133.087 159.297 133.579C159.241 134.034 158.854 134.367 158.409 134.367Z" fill="#37466A"/>
<path d="M185.773 137.791L185.661 137.783L163.261 134.981C162.77 134.919 162.422 134.47 162.483 133.977C162.544 133.485 162.992 133.132 163.483 133.197L185.883 135.999C186.374 136.061 186.722 136.51 186.66 137.002C186.605 137.458 186.218 137.791 185.773 137.791Z" fill="#37466A"/>
<path d="M170.644 148.115L170.532 148.108L145.307 144.952C144.816 144.891 144.468 144.442 144.53 143.949C144.591 143.456 145.03 143.104 145.529 143.168L170.754 146.324C171.245 146.386 171.594 146.834 171.532 147.327C171.476 147.782 171.089 148.115 170.644 148.115Z" fill="#37466A"/>
<path d="M182.847 161.784L182.68 161.773L171.045 160.318C170.308 160.226 169.786 159.552 169.878 158.813C169.969 158.074 170.631 157.548 171.378 157.642L183.012 159.097C183.749 159.189 184.271 159.863 184.18 160.602C184.095 161.284 183.515 161.784 182.847 161.784Z" fill="#37466A"/>
<path d="M292.547 238.201L148.027 273.209C143.475 274.313 138.894 271.504 137.794 266.935L114.797 171.353C113.699 166.784 116.498 162.188 121.05 161.085L265.57 126.076C270.122 124.973 274.703 127.782 275.803 132.35L298.8 227.933C299.898 232.501 297.099 237.098 292.547 238.201Z" fill="#5C81C0"/>
<path d="M292.547 238.201H292.555H292.547ZM267.56 127.186C267.006 127.186 266.444 127.25 265.885 127.386L121.365 162.395C117.54 163.322 115.18 167.198 116.103 171.037L139.099 266.618C139.547 268.478 140.69 270.051 142.316 271.049C143.943 272.045 145.861 272.348 147.711 271.898L292.231 236.89H292.231C296.055 235.963 298.416 232.087 297.493 228.249L274.497 132.666C273.708 129.391 270.778 127.186 267.559 127.186H267.56ZM146.019 274.799C144.233 274.799 142.478 274.307 140.916 273.35C138.676 271.976 137.104 269.811 136.488 267.252L113.491 171.669C112.219 166.386 115.47 161.049 120.735 159.774L265.254 124.765C270.516 123.488 275.837 126.75 277.109 132.033L300.106 227.617C301.377 232.899 298.127 238.235 292.863 239.511H292.862L148.343 274.519C147.571 274.706 146.792 274.799 146.019 274.799Z" fill="#37466A"/>
<path d="M239.467 131.012L239.474 130.858L239.592 130.828L239.541 130.994L239.467 131.012Z" fill="#A5B2C5"/>
<path d="M239.541 130.994L239.592 130.828L248.294 128.7L249.118 128.499L249.058 128.689L239.541 130.994Z" fill="#37466A"/>
<path d="M252.103 127.95L252.165 127.753L260.635 125.681C261.137 125.558 261.639 125.465 262.139 125.4L262.099 125.529L252.103 127.95H252.103Z" fill="#3C4E71"/>
<path d="M249.059 128.689L249.118 128.499L252.165 127.753L252.103 127.951L249.059 128.689Z" fill="#37466A"/>
<path d="M262.099 125.53L262.139 125.401C262.413 125.366 262.686 125.34 262.959 125.321L262.099 125.53Z" fill="#37466A"/>
<path d="M234.757 132.153L234.764 132.009L239.474 130.857L239.467 131.012L234.757 132.153Z" fill="#37466A"/>
<path d="M205.843 139.157L205.827 139.089L232.04 132.676L232.034 132.813L205.843 139.157Z" fill="#B2B9C9"/>
<path d="M232.034 132.813L232.04 132.676L234.764 132.009L234.757 132.153L232.034 132.813Z" fill="#37466A"/>
<path d="M159.622 269.014L156.074 254.409C153.202 242.588 163.273 229.973 178.567 226.232C184.047 224.892 187.654 220.371 186.626 216.137C184.193 206.128 192.72 195.448 205.67 192.28C212.488 190.612 216.979 184.987 215.698 179.716L206.48 141.776L265.885 127.386C266.445 127.251 267.007 127.186 267.56 127.186C270.779 127.186 273.709 129.391 274.498 132.666L297.494 228.249C298.417 232.087 296.057 235.964 292.232 236.891H292.233L159.623 269.014H159.622Z" fill="#4B6FB4"/>
<path d="M159.96 270.406L159.622 269.014L292.231 236.891H292.231C296.056 235.964 298.416 232.087 297.493 228.249L274.497 132.667C273.708 129.392 270.778 127.186 267.559 127.186C267.006 127.186 266.444 127.251 265.884 127.387L206.479 141.777L205.842 139.157L232.033 132.813L234.757 132.153L239.466 131.012L239.54 130.994L249.058 128.689L252.102 127.95L262.098 125.529L262.958 125.321C263.256 125.3 263.553 125.292 263.848 125.292C269.939 125.292 275.471 129.449 276.976 135.65L298.485 224.174C300.048 230.61 296.117 237.099 289.702 238.668L159.96 270.406L159.96 270.406Z" fill="#37466A"/>
<path d="M170.331 219.543L150.701 224.345C150.211 224.465 149.715 224.163 149.595 223.67L148.594 219.548C148.474 219.054 148.775 218.558 149.266 218.438L168.895 213.636C169.385 213.515 169.881 213.818 170 214.311L171.003 218.434C171.122 218.926 170.82 219.424 170.331 219.543Z" fill="#37466A"/>
<path d="M195.483 213.39L175.855 218.191C175.363 218.311 174.868 218.009 174.748 217.517L173.746 213.394C173.627 212.902 173.928 212.405 174.419 212.284L194.048 207.483C194.539 207.363 195.034 207.664 195.154 208.157L196.156 212.28C196.275 212.772 195.974 213.27 195.483 213.39Z" fill="#37466A"/>
<path d="M220.1 207.367L200.471 212.17C199.981 212.289 199.485 211.987 199.366 211.494L198.364 207.371C198.245 206.879 198.546 206.383 199.036 206.262L218.665 201.46C219.156 201.34 219.652 201.642 219.771 202.135L220.773 206.258C220.892 206.751 220.591 207.248 220.1 207.367Z" fill="#37466A"/>
<path d="M244.719 201.346L225.089 206.147C224.599 206.268 224.103 205.966 223.984 205.472L222.982 201.35C222.862 200.857 223.163 200.361 223.655 200.24L243.283 195.438C243.775 195.319 244.27 195.621 244.388 196.114L245.391 200.235C245.51 200.729 245.209 201.225 244.719 201.346Z" fill="#37466A"/>
<path d="M169.685 234.163L153.527 238.115C153.036 238.236 152.54 237.933 152.421 237.441L151.927 235.407C151.807 234.915 152.108 234.418 152.599 234.297L168.758 230.345C169.249 230.225 169.743 230.527 169.863 231.02L170.358 233.054C170.477 233.545 170.176 234.042 169.685 234.163Z" fill="#FEFEFE"/>
<path d="M263.182 143.907L246.773 146.622C246.274 146.705 245.803 146.366 245.72 145.865L245.381 143.801C245.298 143.3 245.636 142.827 246.135 142.744L262.544 140.029C263.043 139.947 263.514 140.286 263.597 140.785L263.936 142.851C264.018 143.351 263.681 143.824 263.182 143.907Z" fill="#FEFEFE"/>
<path d="M203.132 159.902L138.236 175.777C137.576 175.939 136.91 175.532 136.748 174.87L136.083 172.133C135.922 171.47 136.328 170.801 136.989 170.64L201.883 154.765C202.544 154.603 203.211 155.009 203.371 155.673L204.037 158.409C204.197 159.072 203.792 159.741 203.132 159.902Z" fill="#FEFEFE"/>
<path d="M192.579 228.46L176.421 232.414C175.93 232.533 175.435 232.231 175.315 231.739L174.82 229.705C174.7 229.212 175.001 228.715 175.493 228.596L191.651 224.643C192.141 224.523 192.637 224.825 192.757 225.317L193.251 227.351C193.371 227.844 193.07 228.34 192.579 228.46Z" fill="#FEFEFE"/>
<path d="M214.908 223.176L198.751 227.129C198.259 227.249 197.764 226.947 197.645 226.454L197.151 224.42C197.031 223.928 197.332 223.43 197.823 223.311L213.981 219.358C214.472 219.238 214.967 219.54 215.087 220.032L215.581 222.066C215.701 222.559 215.399 223.056 214.908 223.176Z" fill="#FEFEFE"/>
<path d="M171.998 246.015L155.84 249.967C155.349 250.088 154.853 249.786 154.733 249.292L154.24 247.259C154.12 246.766 154.421 246.27 154.912 246.15L171.071 242.196C171.562 242.077 172.056 242.379 172.176 242.871L172.67 244.905C172.79 245.397 172.489 245.895 171.998 246.015Z" fill="#FBB459"/>
<path d="M171.856 201.773L148.229 207.497C146.921 207.814 145.606 207.007 145.29 205.695L143.573 198.562L141.998 192.009C141.681 190.697 142.485 189.377 143.792 189.061L167.421 183.337C168.729 183.02 170.043 183.827 170.359 185.138L173.652 198.825C173.968 200.137 173.164 201.456 171.856 201.773H171.856Z" fill="#FBB459"/>
<path d="M142.101 200.381C141.5 200.381 140.953 199.973 140.8 199.362C140.618 198.639 141.054 197.906 141.774 197.725L171.563 190.196C172.283 190.015 173.014 190.452 173.194 191.174C173.376 191.896 172.939 192.63 172.219 192.811L142.43 200.34C142.32 200.368 142.21 200.381 142.101 200.381Z" fill="#5C81C0"/>
<path d="M162.049 194.729C162.29 197.232 160.462 199.458 157.967 199.699C155.472 199.939 153.254 198.105 153.014 195.602C152.773 193.098 154.602 190.874 157.096 190.633C159.591 190.391 161.809 192.225 162.049 194.729Z" fill="#FBB459"/>
<path d="M157.537 191.96C157.434 191.96 157.33 191.965 157.225 191.975C156.375 192.057 155.609 192.465 155.066 193.126C154.523 193.788 154.269 194.62 154.351 195.473C154.52 197.233 156.077 198.529 157.837 198.357C158.687 198.275 159.454 197.865 159.996 197.205C160.539 196.544 160.794 195.71 160.711 194.858C160.629 194.006 160.221 193.237 159.563 192.692C158.986 192.214 158.276 191.959 157.536 191.959L157.537 191.96ZM157.528 201.068C154.536 201.068 151.968 198.78 151.676 195.732C151.525 194.163 151.993 192.627 152.992 191.411C153.991 190.194 155.403 189.442 156.968 189.291C160.193 188.978 163.075 191.359 163.387 194.599C163.698 197.838 161.324 200.729 158.095 201.041C157.905 201.059 157.716 201.068 157.528 201.068Z" fill="#5C81C0"/>
<path d="M262.306 222.564C261.605 220.084 262.041 217.557 263.291 215.523C261.391 214.565 259.146 214.281 256.94 214.909C252.262 216.24 249.546 221.125 250.873 225.819C252.2 230.512 257.068 233.238 261.745 231.906C263.952 231.279 265.713 229.855 266.829 228.038C264.701 226.966 263.007 225.044 262.306 222.564Z" fill="#FEFEFE"/>
<path d="M271.375 210.835C269.17 211.463 267.408 212.887 266.293 214.702C265.044 216.736 264.607 219.265 265.308 221.745C266.009 224.224 267.703 226.146 269.831 227.218C271.73 228.177 273.975 228.46 276.181 227.832C280.858 226.502 283.575 221.616 282.248 216.923C280.922 212.23 276.053 209.503 271.375 210.835Z" fill="#FBB459"/>
<path d="M277.353 54.6487C277.458 54.4323 277.626 54.2446 277.847 54.1133L292.435 45.4554C293.038 45.0968 293.817 45.299 294.174 45.903C294.53 46.5116 294.326 47.29 293.728 47.648L279.139 56.3055C278.536 56.6634 277.758 56.4619 277.4 55.8567C277.174 55.474 277.173 55.0199 277.353 54.6487Z" fill="#37466A"/>
<path d="M267.432 52.3049C267.413 52.1332 267.427 51.9557 267.483 51.7806L274.509 29.1591C274.717 28.4875 275.428 28.1128 276.098 28.3223C276.767 28.5318 277.141 29.2453 276.932 29.9161L269.904 52.5384C269.695 53.21 268.984 53.5839 268.315 53.3744C267.821 53.2199 267.489 52.7891 267.432 52.3049Z" fill="#37466A"/>
<path d="M243.104 31.1025C242.823 30.4924 243.063 29.7613 243.663 29.4442C244.282 29.1149 245.05 29.3526 245.377 29.9738L257.394 52.7846C257.712 53.4295 257.485 54.1781 256.865 54.5055C256.246 54.8344 255.477 54.5967 255.15 53.9747L243.133 31.1647L243.104 31.1025Z" fill="#37466A"/>
<path d="M207.163 332.331C207.053 332.507 206.892 332.654 206.69 332.748L193.362 338.892C192.811 339.147 192.158 338.903 191.906 338.351C191.652 337.797 191.898 337.144 192.444 336.889L205.773 330.744C206.324 330.491 206.976 330.733 207.229 331.286C207.39 331.637 207.352 332.027 207.163 332.331Z" fill="#37466A"/>
<path d="M215.494 335.238C215.496 335.387 215.467 335.539 215.405 335.685L207.341 354.527C207.102 355.087 206.457 355.346 205.9 355.106C205.343 354.866 205.083 354.217 205.324 353.658L213.387 334.815C213.626 334.255 214.271 333.997 214.829 334.238C215.24 334.415 215.489 334.816 215.494 335.238Z" fill="#37466A"/>
<path d="M234.549 355.669C234.737 356.219 234.463 356.827 233.92 357.047C233.358 357.275 232.717 357.001 232.491 356.437L224.178 335.723C223.962 335.141 224.224 334.516 224.786 334.291C225.349 334.063 225.988 334.336 226.215 334.9L234.529 355.613L234.549 355.669Z" fill="#37466A"/>
<path d="M67.7135 200.938L67.1088 185.466L93.6618 210.24L69.1247 237.025L68.5193 221.555C68.5193 221.555 45.6051 216.939 31.1361 243.683C31.1361 243.683 26.4884 223.886 43.2352 208.756C43.2352 208.756 50.786 201.091 67.7135 200.938Z" fill="#FBB459"/>
<path d="M68.5795 188.679L69.0564 200.885C69.0704 201.25 68.9377 201.604 68.6863 201.869C68.435 202.132 68.0889 202.283 67.7258 202.286C51.5394 202.432 44.2629 209.631 44.191 209.704C32.5132 220.257 31.6051 233.26 31.9812 239.575C46.8031 216.124 68.5552 220.185 68.7845 220.232C69.3933 220.355 69.8386 220.88 69.8633 221.502L70.3409 233.705L91.7686 210.314L68.5795 188.679V188.679ZM31.1366 245.03L30.9579 245.018C30.4061 244.944 29.9566 244.535 29.8288 243.991C29.7805 243.785 25.1967 223.24 42.3368 207.754C42.5977 207.486 50.0008 200.159 66.3176 199.618L65.7662 185.518C65.7453 184.973 66.0541 184.467 66.5485 184.24C67.042 184.014 67.6265 184.106 68.0243 184.478L94.5773 209.251C95.1192 209.756 95.1523 210.605 94.6514 211.151L70.1147 237.936C69.7462 238.339 69.1727 238.477 68.662 238.29C68.1509 238.101 67.8045 237.622 67.7828 237.076L67.2212 222.722C62.6742 222.201 44.561 221.694 32.3173 244.325C32.0797 244.763 31.6241 245.03 31.1362 245.03L31.1366 245.03Z" fill="#37466A"/>
<path d="M339.208 253.932L338.78 269.41L313.938 242.908L340.207 217.832L339.779 233.308C339.779 233.308 362.334 239.452 378.556 213.74C378.556 213.74 381.872 233.805 364.154 247.775C364.154 247.775 356.107 254.916 339.207 253.931L339.208 253.932Z" fill="#FBB459"/>
<path d="M315.833 242.961L337.526 266.105L337.865 253.894C337.874 253.53 338.031 253.185 338.298 252.938C338.567 252.692 338.926 252.564 339.286 252.586C355.355 253.512 363.19 246.832 363.266 246.764C375.658 236.991 377.413 224.086 377.448 217.771C361.093 240.184 339.651 234.671 339.428 234.609C338.828 234.446 338.419 233.892 338.437 233.27L338.775 221.062L315.833 242.961L315.833 242.961ZM338.78 270.759C338.415 270.759 338.059 270.61 337.8 270.333L312.96 243.832C312.453 243.292 312.477 242.442 313.013 241.932L339.281 216.855C339.677 216.479 340.257 216.378 340.754 216.601C341.251 216.823 341.566 217.325 341.55 217.87L341.153 232.229C345.653 233.056 363.693 234.776 377.42 213.02C377.718 212.548 378.273 212.307 378.823 212.42C379.37 212.531 379.791 212.969 379.881 213.52C379.916 213.729 383.119 234.537 364.983 248.836C364.707 249.086 356.834 255.9 340.513 255.342L340.122 269.448C340.107 269.992 339.766 270.475 339.257 270.67C339.101 270.73 338.939 270.759 338.78 270.759Z" fill="#37466A"/>
<path fill-rule="evenodd" clip-rule="evenodd" d="M150.051 291.809C148.512 291.809 147.252 293.074 147.252 294.619V300.552H139.504L135.021 292.838C134.245 291.503 132.529 291.037 131.197 291.809C130.245 292.361 129.734 293.4 129.802 294.435C129.798 294.496 129.796 294.557 129.796 294.619V300.552H126.735C125.196 300.552 123.936 301.817 123.936 303.362C123.936 304.907 125.196 306.171 126.735 306.171H129.796V311.547H126.735C125.196 311.547 123.936 312.811 123.936 314.356C123.936 315.901 125.196 317.165 126.735 317.165H129.796V323.896C129.796 325.441 131.056 326.705 132.596 326.705C134.136 326.705 135.396 325.441 135.396 323.896V317.165H142.676L147.626 325.684C148.402 327.018 150.118 327.484 151.45 326.712C152.403 326.16 152.913 325.121 152.844 324.085C152.849 324.023 152.851 323.96 152.851 323.896V317.165H155.912C157.452 317.165 158.712 315.901 158.712 314.356C158.712 312.811 157.452 311.547 155.912 311.547H152.851V306.171H155.912C157.452 306.171 158.712 304.907 158.712 303.362C158.712 301.817 157.452 300.552 155.912 300.552H152.851V294.619C152.851 293.074 151.591 291.809 150.051 291.809ZM135.396 311.546V306.171H136.288L139.411 311.546H135.396ZM147.252 311.546H145.893L142.769 306.171H147.252V311.546Z" fill="#37466A"/>
<path fill-rule="evenodd" clip-rule="evenodd" d="M66.3837 283.662C65.6471 283.86 65.206 284.627 65.4034 285.366L66.1613 288.204L62.4555 289.201L59.3258 286.087C58.7843 285.549 57.9044 285.546 57.3652 286.087C56.9803 286.474 56.8689 287.036 57.0336 287.522C57.0393 287.552 57.0461 287.582 57.0541 287.611L57.812 290.45L56.3479 290.843C55.611 291.041 55.1698 291.808 55.3676 292.547C55.5649 293.287 56.3289 293.729 57.0655 293.531L58.5296 293.137L59.2163 295.709L57.7523 296.103C57.0157 296.301 56.5746 297.067 56.7719 297.806C56.9693 298.545 57.7333 298.988 58.4698 298.79L59.9339 298.397L60.7937 301.615C60.9911 302.355 61.7554 302.797 62.492 302.599C63.2286 302.401 63.6697 301.635 63.4724 300.895L62.6126 297.676L66.0951 296.74L69.5506 300.177C70.0918 300.716 70.9721 300.718 71.5113 300.178C71.8962 299.791 72.0072 299.228 71.8426 298.742C71.8365 298.711 71.8296 298.681 71.8216 298.65L70.9618 295.431L72.4263 295.038C73.1629 294.84 73.604 294.073 73.4066 293.334C73.2093 292.595 72.4449 292.152 71.7083 292.35L70.2443 292.744L69.5575 290.172L71.0216 289.778C71.7585 289.58 72.1993 288.814 72.0019 288.075C71.8045 287.336 71.0406 286.893 70.304 287.091L68.8399 287.485L68.0817 284.646C67.8843 283.907 67.1203 283.464 66.3837 283.663V283.662ZM61.8946 294.988L61.2078 292.416L61.6345 292.301L63.8154 294.471L61.8946 294.988ZM67.5656 293.463L66.9157 293.638L64.7345 291.468L66.8792 290.891L67.5656 293.463Z" fill="#37466A"/>
<path fill-rule="evenodd" clip-rule="evenodd" d="M96.8841 245.434C96.4076 245.351 95.9506 245.674 95.868 246.152L95.5513 247.988L93.1544 247.571L92.1798 244.943C92.0113 244.489 91.5055 244.253 91.0519 244.42C90.7279 244.539 90.5145 244.833 90.4803 245.157C90.4757 245.175 90.4719 245.195 90.4685 245.214L90.1518 247.049L89.2049 246.885C88.7288 246.802 88.2713 247.125 88.1888 247.603C88.1066 248.081 88.4287 248.539 88.9048 248.622L89.8517 248.787L89.5646 250.45L88.6177 250.285C88.1416 250.202 87.6845 250.525 87.602 251.004C87.5195 251.481 87.8416 251.94 88.3177 252.023L89.2646 252.188L88.9052 254.269C88.8227 254.747 89.1448 255.206 89.6213 255.289C90.0974 255.371 90.5545 255.048 90.637 254.571L90.9967 252.488L93.2487 252.88L94.3249 255.78C94.4933 256.235 94.9991 256.472 95.4528 256.304C95.7768 256.185 95.9901 255.891 96.0243 255.567C96.0289 255.548 96.0331 255.528 96.0365 255.508L96.3958 253.427L97.3427 253.591C97.8192 253.674 98.2763 253.351 98.3588 252.873C98.4413 252.395 98.1192 251.936 97.6428 251.853L96.6959 251.689L96.983 250.026L97.9299 250.19C98.4064 250.273 98.8634 249.95 98.946 249.472C99.0285 248.994 98.706 248.536 98.2299 248.453L97.283 248.288L97.5998 246.453C97.6823 245.975 97.3602 245.516 96.8841 245.433V245.434ZM91.2971 250.75L91.5839 249.087L91.8599 249.135L92.5391 250.966L91.2971 250.75ZM94.9641 251.388L94.5435 251.315L93.8644 249.484L95.2512 249.725L94.9641 251.388Z" fill="#37466A"/>
<path fill-rule="evenodd" clip-rule="evenodd" d="M217.843 84.871C216.789 84.8146 215.881 85.633 215.825 86.6904L215.608 90.7503L210.307 90.4657L207.521 85.0225C207.039 84.0808 205.882 83.6988 204.942 84.1785C204.27 84.5208 203.883 85.2125 203.892 85.9234C203.887 85.965 203.883 86.007 203.881 86.049L203.664 90.1089L201.57 89.9967C200.516 89.9399 199.608 90.7587 199.552 91.816C199.495 92.873 200.311 93.7842 201.365 93.8411L203.459 93.9532L203.263 97.6316L201.169 97.519C200.115 97.4626 199.207 98.281 199.15 99.3384C199.094 100.396 199.91 101.307 200.964 101.363L203.058 101.476L202.812 106.081C202.756 107.138 203.572 108.05 204.626 108.106C205.679 108.163 206.587 107.344 206.644 106.287L206.889 101.682L211.871 101.949L214.947 107.959C215.429 108.901 216.586 109.283 217.526 108.803C218.198 108.461 218.585 107.768 218.576 107.058C218.581 107.015 218.585 106.972 218.587 106.928L218.833 102.323L220.928 102.436C221.981 102.492 222.889 101.674 222.946 100.616C223.002 99.5589 222.186 98.6477 221.133 98.5913L219.038 98.4787L219.234 94.8003L221.329 94.9129C222.383 94.9694 223.291 94.1509 223.347 93.0935C223.404 92.0362 222.587 91.125 221.534 91.0685L219.439 90.956L219.656 86.896C219.712 85.8387 218.897 84.9279 217.843 84.871H217.843ZM207.095 97.8373L207.291 94.1593L207.901 94.1917L209.843 97.9849L207.095 97.8373ZM215.208 98.273L214.277 98.223L212.336 94.4302L215.403 94.5947L215.207 98.273H215.208Z" fill="#37466A"/>
</g>
<defs>
<clipPath id="clip0">
<rect width="412" height="376" fill="white"/>
</clipPath>
</defs>
</svg>
