<svg width="175" height="42" viewBox="0 0 175 42" fill="none" xmlns="http://www.w3.org/2000/svg">
<g clip-path="url(#clip0)">
<path d="M23.7873 22.2826C23.8023 21.3109 23.8891 20.3416 24.0471 19.3827C24.0471 19.3827 25.0046 14.0682 27.4407 11.9196C29.8768 9.77101 32.5494 8.61193 35.4876 8.44092C39.6766 8.44092 42.861 9.71157 45.0407 12.2529C47.2204 14.7942 48.3102 17.8212 48.3102 21.334C48.3068 21.9931 48.2556 22.6511 48.157 23.3028C48.0548 24.0029 48.0533 24.0088 48.0533 24.0088C47.8019 24.9473 47.4799 25.8654 47.09 26.7552C47.09 26.7552 46.0026 29.1347 44.3518 30.7206C42.7009 32.3065 40.2649 33.1001 37.0712 33.1001C36.7983 33.1001 36.5166 33.0913 36.229 33.0753C35.9415 33.0592 35.6583 33.0314 35.3868 32.9978C35.1475 32.9978 34.9183 32.989 34.6965 32.973L34.4746 32.9554C34.2454 32.9233 34.0586 32.2378 34.0586 31.4339V24.9442C34.0586 24.1403 34.2162 23.5937 34.4074 23.7311L34.5957 23.8158C34.7826 23.9006 34.9796 23.9781 35.1796 24.0468C35.3704 24.1096 35.5655 24.1585 35.7634 24.1929C35.94 24.2266 36.1193 24.2437 36.2991 24.2441C36.7146 24.2532 37.1277 24.1785 37.5138 24.0246C37.9 23.8707 38.2513 23.6406 38.5469 23.3481C39.1599 22.7518 39.4665 21.9235 39.4665 20.8633C39.4665 19.8402 39.1512 19.0475 38.5206 18.4853C38.3081 18.2805 38.0839 18.0882 37.8492 17.9094C37.08 17.677 36.3896 17.487 36.3152 17.487H35.8641C35.8218 17.487 35.1533 17.658 34.3783 17.867C34.3783 17.867 34.3651 17.867 33.7696 18.4327C33.1741 18.9983 33.1055 19.4193 33.1055 19.4193C32.9652 20.3812 32.8882 21.3514 32.8749 22.3235V40.5281C32.8749 40.9158 32.7211 41.2875 32.4474 41.5617C32.1736 41.8358 31.8024 41.9898 31.4152 41.9898H25.2411C24.854 41.9898 24.4827 41.8358 24.209 41.5617C23.9353 41.2875 23.7815 40.9158 23.7815 40.5281V22.2723L23.7873 22.2826Z" fill="#151522"/>
<path d="M66.5977 23.5028V31.0712C66.5977 31.8751 66.4372 32.5796 66.2401 32.6351H65.4738C65.1332 32.6692 64.8097 32.6951 64.5032 32.7126C64.1966 32.7301 63.9072 32.7384 63.6347 32.7374C60.1939 32.7374 57.3331 31.6802 55.0522 29.5657C52.7713 27.4512 51.6304 24.5533 51.6294 20.8719C51.6294 16.8768 52.8895 13.8673 55.4098 11.8434C57.9301 9.81953 60.9466 8.80467 64.4594 8.79883C68.375 8.79883 71.4232 9.98421 73.6038 12.355C75.783 14.7257 77.0135 18.8081 77.0135 18.8081C77.2456 19.5784 77.4849 20.4831 77.5448 20.8208L77.5623 21.1277L77.5798 21.4346C77.5798 21.7723 77.5886 22.7063 77.5886 23.5102V31.0741C77.5886 31.4618 77.4348 31.8335 77.1611 32.1076C76.8873 32.3817 76.5161 32.5357 76.129 32.5357H69.5461C69.159 32.5357 68.7877 32.3817 68.514 32.1076C68.2403 31.8335 68.0865 31.4618 68.0865 31.0741V22.2824C68.0718 21.3108 67.986 20.3415 67.8296 19.3825C67.8296 19.3825 67.745 18.9119 67.0648 18.3594C66.3846 17.8069 66.189 17.7747 66.189 17.7747C65.4067 17.5935 64.7294 17.4444 64.69 17.4444H64.4083C64.3762 17.4444 63.7048 17.5745 62.918 17.7367C62.918 17.7367 62.7823 17.7645 62.1006 18.2921C61.419 18.8198 61.0789 19.5637 61.0789 20.5167C61.0789 21.5749 61.3684 22.4617 61.9474 23.1769C62.2037 23.516 62.5361 23.79 62.9177 23.9766C63.2993 24.1632 63.7194 24.2573 64.1441 24.2512C64.4028 24.2487 64.6601 24.2144 64.9104 24.1489L65.1833 24.0816C65.4753 23.9779 65.8737 23.8551 66.0518 23.8083L66.189 23.7396L66.3248 23.6724C66.4226 23.6277 66.5143 23.5707 66.5977 23.5028Z" fill="#151522"/>
<path d="M79.7268 19.3665C79.7455 18.3963 79.854 17.4299 80.0508 16.4797C80.0508 16.4797 80.8682 12.8841 83.1496 11.4342C85.4067 9.992 88.0331 9.23649 90.7104 9.25929H91.0753C91.1833 9.25929 91.9189 9.37329 92.71 9.51069C92.71 9.51069 96.4321 10.1626 98.6799 11.6637C100.928 13.1648 101.745 16.8861 101.745 16.8861C101.934 17.8381 102.039 18.8052 102.057 19.7757V31.0742C102.057 31.4618 101.904 31.8336 101.63 32.1077C101.356 32.3818 100.985 32.5358 100.598 32.5358H93.6515C93.2644 32.5358 92.8931 32.3818 92.6194 32.1077C92.3457 31.8336 92.1919 31.4618 92.1919 31.0742V20.4919C92.1951 19.7392 92.1581 18.9868 92.081 18.2381L91.8606 17.9823L91.6387 17.7265C91.3468 17.5994 91.0855 17.4737 91.0432 17.4444H90.8126C90.7436 17.4444 90.6749 17.4533 90.6082 17.4707L90.5396 17.4883C90.2894 17.5674 90.0482 17.6727 89.82 17.8025L89.5646 18.0949L89.3092 18.3872C89.2183 19.1065 89.1754 19.8312 89.1807 20.5562V31.08C89.1807 31.4676 89.0269 31.8394 88.7532 32.1135C88.4795 32.3876 88.1082 32.5416 87.7211 32.5416H81.1864C80.7993 32.5416 80.4281 32.3876 80.1543 32.1135C79.8806 31.8394 79.7268 31.4676 79.7268 31.08V19.3665Z" fill="#151522"/>
<path d="M113.311 2.19971C113.698 2.19971 114.069 2.3537 114.343 2.62781C114.617 2.90192 114.77 3.27369 114.77 3.66134V8.1047C114.77 8.49235 114.924 8.86412 115.198 9.13823C115.472 9.41234 115.843 9.56633 116.23 9.56633H118.113C118.5 9.56633 118.871 9.72033 119.145 9.99444C119.419 10.2685 119.573 10.6403 119.573 11.028V16.0852C119.573 16.4729 119.419 16.8446 119.145 17.1187C118.871 17.3928 118.5 17.5468 118.113 17.5468H116.23C115.843 17.5468 115.472 17.7008 115.198 17.9749C114.924 18.2491 114.77 18.6208 114.77 19.0085V20.894C114.77 21.6979 114.832 22.9651 114.906 23.7105L115.179 24.0686C115.452 24.4267 115.569 24.4399 115.569 24.4399C116.475 24.538 117.386 24.5868 118.297 24.5861C119 24.5729 119.574 25.2189 119.574 26.0228V31.0801C119.574 31.4677 119.42 31.8395 119.147 32.1136C118.873 32.3877 118.502 32.5417 118.114 32.5417H115.874C114.902 32.5308 113.932 32.4664 112.968 32.3488C112.968 32.3488 108.443 31.7481 107.129 30.0599C105.816 28.3717 105.305 25.8898 105.305 25.8898C105.143 25.102 104.987 24.3317 104.958 24.1768V3.65987C104.958 3.27223 105.111 2.90046 105.385 2.62635C105.659 2.35224 106.03 2.19824 106.417 2.19824H113.305L113.311 2.19971Z" fill="#151522"/>
<path d="M122.944 1.46163C122.944 1.07398 123.098 0.702215 123.372 0.428105C123.646 0.153996 124.017 0 124.404 0H130.936C131.323 0 131.694 0.153996 131.968 0.428105C132.242 0.702215 132.395 1.07398 132.395 1.46163V9.17906C132.395 9.98295 132.956 10.2987 133.642 9.88065C133.949 9.72829 134.267 9.59739 134.592 9.48892C134.89 9.36738 135.195 9.26391 135.506 9.17906C136.298 9.05336 137.066 8.92765 137.211 8.89988H137.662C139.67 8.89988 141.501 9.65848 143.154 11.1757C144.806 12.6943 145.405 16.5106 145.405 16.5106C145.542 17.4733 145.618 18.4439 145.631 19.4163V31.0728C145.631 31.4605 145.477 31.8323 145.204 32.1064C144.93 32.3805 144.559 32.5345 144.171 32.5345H137.538C137.15 32.5345 136.779 32.3805 136.505 32.1064C136.232 31.8323 136.078 31.4605 136.078 31.0728V20.4906C136.077 19.6717 136.026 18.8535 135.925 18.0409L135.618 17.6989L135.312 17.3583L134.521 17.0339H134.192C134.16 17.0339 133.754 17.1376 133.29 17.2648L132.932 17.6229L132.575 17.981C132.46 18.8298 132.4 19.6852 132.397 20.5418V31.0655C132.397 31.4532 132.243 31.825 131.969 32.0991C131.696 32.3732 131.324 32.5272 130.937 32.5272H124.405C124.018 32.5272 123.647 32.3732 123.373 32.0991C123.1 31.825 122.946 31.4532 122.946 31.0655V1.46163H122.944Z" fill="#151522"/>
<path d="M164.017 23.5028V31.0712C164.017 31.8751 163.856 32.5796 163.659 32.6351H162.893C162.551 32.6687 162.229 32.695 161.922 32.7126C161.616 32.7301 161.327 32.7374 161.046 32.7374C157.606 32.7374 154.746 31.6802 152.464 29.5657C150.182 27.4512 149.041 24.5523 149.041 20.869C149.041 16.8738 150.301 13.8643 152.821 11.8405C155.342 9.8166 158.358 8.80174 161.871 8.7959C165.787 8.7959 168.835 9.98128 171.015 12.352C173.195 14.7228 174.425 18.8052 174.425 18.8052C174.657 19.5754 174.897 20.4802 174.956 20.8178L174.974 21.1248L174.991 21.4317C174.991 21.7693 175 22.7033 175 23.5072V31.0712C175 31.4588 174.846 31.8306 174.573 32.1047C174.299 32.3788 173.928 32.5328 173.541 32.5328H166.958C166.571 32.5328 166.199 32.3788 165.926 32.1047C165.652 31.8306 165.498 31.4588 165.498 31.0712V22.2795C165.483 21.3078 165.398 20.3386 165.241 19.3796C165.241 19.3796 165.157 18.9089 164.476 18.3564C163.796 17.8039 163.601 17.7718 163.601 17.7718C162.818 17.5905 162.141 17.4415 162.102 17.4415H161.827C161.795 17.4415 161.124 17.5715 160.337 17.7338C160.337 17.7338 160.201 17.7615 159.52 18.2892C158.838 18.8168 158.498 19.5608 158.498 20.5138C158.498 21.572 158.79 22.4587 159.374 23.174C159.629 23.5121 159.96 23.7854 160.341 23.972C160.721 24.1586 161.14 24.2532 161.563 24.2483C161.822 24.2458 162.079 24.2114 162.329 24.146L162.602 24.0787C162.894 23.9749 163.293 23.8522 163.471 23.8054L163.606 23.7367L163.742 23.6695C163.84 23.626 163.933 23.57 164.017 23.5028Z" fill="#151522"/>
<path d="M17.4526 30.0102C16.3625 29.8767 15.3542 29.3627 14.6049 28.5587C13.8556 27.7546 13.4132 26.7119 13.3555 25.6136V25.6136L13.408 24.6285C13.5528 23.7223 13.9607 22.8788 14.5808 22.203C15.2008 21.5273 16.0057 21.0491 16.8952 20.8281C17.7847 20.6071 18.7194 20.653 19.583 20.9601C20.4467 21.2672 21.201 21.8219 21.7521 22.5552C22.3031 23.2884 22.6266 24.1678 22.6822 25.0839C22.7378 25.9999 22.5231 26.9121 22.0648 27.7068C21.6065 28.5015 20.9248 29.1436 20.1047 29.5532C19.2846 29.9628 18.3623 30.1217 17.4526 30.0102V30.0102Z" stroke="#4E4B66" stroke-width="5.6" stroke-miterlimit="10"/>
<path d="M9.92227 37.149C8.72163 37.0096 7.62171 36.4095 6.85369 35.4749C6.08567 34.5403 5.70936 33.3439 5.80386 32.1373C5.89835 30.9306 6.45629 29.8076 7.3604 29.0043C8.26452 28.201 9.44441 27.7799 10.6521 27.8296L11.6242 27.967C12.7816 28.2524 13.7864 28.97 14.4326 29.9731C15.0788 30.9761 15.3176 32.1886 15.1 33.3622C14.8825 34.5358 14.2251 35.5818 13.2625 36.2858C12.2999 36.9898 11.1049 37.2986 9.92227 37.149Z" stroke="#4E4B66" stroke-width="5.6" stroke-miterlimit="10"/>
<path d="M12.4141 21.5224L11.4391 21.404C10.2733 21.1356 9.25479 20.4295 8.59353 19.4313C7.93226 18.4331 7.67864 17.2189 7.88495 16.039C8.09126 14.8591 8.74176 13.8035 9.70237 13.0896C10.663 12.3758 11.8605 12.0583 13.048 12.2025C14.2355 12.3467 15.3224 12.9416 16.0849 13.8646C16.8473 14.7877 17.227 15.9684 17.1457 17.1635C17.0644 18.3586 16.5283 19.4769 15.648 20.2879C14.7677 21.0989 13.6101 21.5407 12.4141 21.5224V21.5224Z" stroke="#4E4B66" stroke-width="5.6" stroke-miterlimit="10"/>
<path d="M4.51167 28.274C3.59575 28.161 2.73378 27.7789 2.03453 27.1758C1.33529 26.5727 0.830112 25.7758 0.582765 24.8855C0.335418 23.9951 0.356981 23.0514 0.644739 22.1734C0.932496 21.2953 1.47355 20.5223 2.19961 19.9519C2.92567 19.3815 3.8042 19.0393 4.72432 18.9684C5.64444 18.8975 6.56491 19.1011 7.36956 19.5536C8.17421 20.0061 8.82698 20.6871 9.24548 21.5107C9.66398 22.3344 9.82945 23.2637 9.72102 24.1814V24.1814L9.50353 25.1461C9.15643 26.162 8.47083 27.0274 7.56184 27.597C6.65286 28.1666 5.57585 28.4056 4.51167 28.274Z" stroke="#4E4B66" stroke-width="5.6" stroke-miterlimit="10"/>
<path d="M11.623 27.967C11.4376 27.9198 11.2494 27.8846 11.0596 27.8618C10.9224 27.8457 10.7852 27.834 10.6494 27.8296L10.9574 25.3186L11.0771 24.3407L11.4376 21.4028C11.5945 21.4397 11.7534 21.4675 11.9134 21.4861C12.0791 21.5067 12.2457 21.5179 12.4126 21.5198L12.0521 24.4591L11.9324 25.4369L11.623 27.967Z" fill="#4E4B66"/>
<path d="M13.4329 24.5729C13.4329 24.5173 13.4475 24.4603 13.4562 24.4048L12.1017 24.2382L11.1267 24.1183L9.76779 23.9517C9.76779 23.9604 9.76779 23.9692 9.76779 23.9765C9.7286 24.2963 9.6567 24.6113 9.55322 24.9164L11.0128 25.0961L11.9879 25.216L13.411 25.3899C13.3943 25.1175 13.4017 24.844 13.4329 24.5729Z" fill="#4E4B66"/>
</g>
<defs>
<clipPath id="clip0">
<rect width="175" height="42" fill="white"/>
</clipPath>
</defs>
</svg>
