<svg width="175" height="42" viewBox="0 0 175 42" fill="none" xmlns="http://www.w3.org/2000/svg">
<g clip-path="url(#clip0)">
<path d="M23.7873 22.2826C23.8023 21.3109 23.8891 20.3416 24.0471 19.3827C24.0471 19.3827 25.0046 14.0682 27.4407 11.9196C29.8768 9.77101 32.5494 8.61193 35.4876 8.44092C39.6766 8.44092 42.861 9.71157 45.0407 12.2529C47.2204 14.7942 48.3102 17.8212 48.3102 21.334C48.3068 21.9931 48.2556 22.6511 48.157 23.3028C48.0548 24.0029 48.0533 24.0088 48.0533 24.0088C47.8019 24.9473 47.4799 25.8654 47.09 26.7552C47.09 26.7552 46.0026 29.1347 44.3518 30.7206C42.7009 32.3065 40.2649 33.1001 37.0712 33.1001C36.7983 33.1001 36.5166 33.0913 36.229 33.0753C35.9415 33.0592 35.6583 33.0314 35.3868 32.9978C35.1475 32.9978 34.9183 32.989 34.6965 32.973L34.4746 32.9554C34.2454 32.9233 34.0586 32.2378 34.0586 31.4339V24.9442C34.0586 24.1403 34.2162 23.5937 34.4074 23.7311L34.5957 23.8158C34.7826 23.9006 34.9796 23.9781 35.1796 24.0468C35.3704 24.1096 35.5655 24.1585 35.7634 24.1929C35.94 24.2266 36.1193 24.2437 36.2991 24.2441C36.7146 24.2532 37.1277 24.1785 37.5138 24.0246C37.9 23.8707 38.2513 23.6406 38.5469 23.3481C39.1599 22.7518 39.4665 21.9235 39.4665 20.8633C39.4665 19.8402 39.1512 19.0475 38.5206 18.4853C38.3081 18.2805 38.0839 18.0882 37.8492 17.9094C37.08 17.677 36.3896 17.487 36.3152 17.487H35.8641C35.8218 17.487 35.1533 17.658 34.3783 17.867C34.3783 17.867 34.3651 17.867 33.7696 18.4327C33.1741 18.9983 33.1055 19.4193 33.1055 19.4193C32.9652 20.3812 32.8882 21.3514 32.8749 22.3235V40.5281C32.8749 40.9158 32.7211 41.2875 32.4474 41.5617C32.1736 41.8358 31.8024 41.9898 31.4152 41.9898H25.2411C24.854 41.9898 24.4827 41.8358 24.209 41.5617C23.9353 41.2875 23.7815 40.9158 23.7815 40.5281V22.2723L23.7873 22.2826Z" fill="#E37C1D"/>
<path d="M66.5977 23.503V31.0714C66.5977 31.8753 66.4372 32.5798 66.2401 32.6353H65.4738C65.1332 32.6694 64.8097 32.6952 64.5032 32.7128C64.1966 32.7303 63.9072 32.7386 63.6347 32.7376C60.1939 32.7376 57.3331 31.6804 55.0522 29.5659C52.7713 27.4514 51.6304 24.5535 51.6294 20.8721C51.6294 16.877 52.8895 13.8675 55.4098 11.8436C57.9301 9.81971 60.9466 8.80486 64.4594 8.79901C68.375 8.79901 71.4232 9.98439 73.6038 12.3552C75.783 14.7259 77.0135 18.8083 77.0135 18.8083C77.2456 19.5785 77.4849 20.4833 77.5448 20.8209L77.5623 21.1279L77.5798 21.4348C77.5798 21.7725 77.5886 22.7064 77.5886 23.5103V31.0743C77.5886 31.4619 77.4348 31.8337 77.1611 32.1078C76.8873 32.3819 76.5161 32.5359 76.129 32.5359H69.5461C69.159 32.5359 68.7877 32.3819 68.514 32.1078C68.2403 31.8337 68.0865 31.4619 68.0865 31.0743V22.2826C68.0718 21.311 67.986 20.3417 67.8296 19.3827C67.8296 19.3827 67.745 18.9121 67.0648 18.3596C66.3846 17.8071 66.189 17.7749 66.189 17.7749C65.4067 17.5937 64.7294 17.4446 64.69 17.4446H64.4083C64.3762 17.4446 63.7048 17.5747 62.918 17.7369C62.918 17.7369 62.7823 17.7647 62.1006 18.2923C61.419 18.82 61.0789 19.5639 61.0789 20.5169C61.0789 21.5751 61.3684 22.4619 61.9474 23.1771C62.2037 23.5162 62.5361 23.7902 62.9177 23.9768C63.2993 24.1634 63.7194 24.2575 64.1441 24.2514C64.4028 24.2489 64.6601 24.2146 64.9104 24.1491L65.1833 24.0818C65.4753 23.9781 65.8737 23.8553 66.0518 23.8085L66.189 23.7398L66.3248 23.6726C66.4226 23.6279 66.5143 23.5709 66.5977 23.503Z" fill="#E37C1D"/>
<path d="M79.7268 19.3666C79.7455 18.3964 79.854 17.4301 80.0508 16.4799C80.0508 16.4799 80.8682 12.8843 83.1496 11.4344C85.4067 9.99218 88.0331 9.23668 90.7104 9.25947H91.0753C91.1833 9.25947 91.9189 9.37348 92.71 9.51087C92.71 9.51087 96.4321 10.1628 98.6799 11.6639C100.928 13.1649 101.745 16.8863 101.745 16.8863C101.934 17.8383 102.039 18.8053 102.057 19.7759V31.0743C102.057 31.462 101.904 31.8338 101.63 32.1079C101.356 32.382 100.985 32.536 100.598 32.536H93.6515C93.2644 32.536 92.8931 32.382 92.6194 32.1079C92.3457 31.8338 92.1919 31.462 92.1919 31.0743V20.4921C92.1951 19.7394 92.1581 18.987 92.081 18.2383L91.8606 17.9825L91.6387 17.7267C91.3468 17.5995 91.0855 17.4738 91.0432 17.4446H90.8126C90.7436 17.4446 90.6749 17.4535 90.6082 17.4709L90.5396 17.4885C90.2894 17.5676 90.0482 17.6729 89.82 17.8027L89.5646 18.095L89.3092 18.3874C89.2183 19.1067 89.1754 19.8313 89.1807 20.5564V31.0802C89.1807 31.4678 89.0269 31.8396 88.7532 32.1137C88.4795 32.3878 88.1082 32.5418 87.7211 32.5418H81.1864C80.7993 32.5418 80.4281 32.3878 80.1543 32.1137C79.8806 31.8396 79.7268 31.4678 79.7268 31.0802V19.3666Z" fill="#E37C1D"/>
<path d="M113.311 2.19977C113.698 2.19977 114.069 2.35376 114.343 2.62787C114.617 2.90198 114.771 3.27375 114.771 3.6614V8.10476C114.771 8.49241 114.924 8.86418 115.198 9.13829C115.472 9.4124 115.843 9.56639 116.23 9.56639H118.113C118.5 9.56639 118.871 9.72039 119.145 9.9945C119.419 10.2686 119.573 10.6404 119.573 11.028V16.0853C119.573 16.4729 119.419 16.8447 119.145 17.1188C118.871 17.3929 118.5 17.5469 118.113 17.5469H116.23C115.843 17.5469 115.472 17.7009 115.198 17.975C114.924 18.2491 114.771 18.6209 114.771 19.0085V20.894C114.771 21.6979 114.832 22.9652 114.906 23.7106L115.179 24.0687C115.452 24.4268 115.569 24.44 115.569 24.44C116.475 24.538 117.386 24.5868 118.297 24.5861C119.001 24.573 119.574 25.219 119.574 26.0229V31.0801C119.574 31.4678 119.42 31.8396 119.147 32.1137C118.873 32.3878 118.502 32.5418 118.115 32.5418H115.874C114.903 32.5309 113.932 32.4665 112.968 32.3489C112.968 32.3489 108.443 31.7481 107.13 30.0599C105.816 28.3717 105.305 25.8899 105.305 25.8899C105.143 25.1021 104.987 24.3318 104.958 24.1769V3.65994C104.958 3.27229 105.111 2.90052 105.385 2.62641C105.659 2.3523 106.03 2.1983 106.417 2.1983H113.305L113.311 2.19977Z" fill="#E37C1D"/>
<path d="M122.944 1.46163C122.944 1.07398 123.098 0.702215 123.372 0.428105C123.646 0.153996 124.017 0 124.404 0H130.936C131.323 0 131.694 0.153996 131.968 0.428105C132.242 0.702215 132.395 1.07398 132.395 1.46163V9.17906C132.395 9.98295 132.956 10.2987 133.642 9.88065C133.949 9.72829 134.267 9.59739 134.592 9.48892C134.89 9.36738 135.195 9.26391 135.506 9.17906C136.298 9.05336 137.066 8.92765 137.211 8.89988H137.662C139.67 8.89988 141.501 9.65848 143.154 11.1757C144.807 12.6943 145.405 16.5106 145.405 16.5106C145.542 17.4733 145.618 18.4439 145.631 19.4163V31.0728C145.631 31.4605 145.477 31.8323 145.204 32.1064C144.93 32.3805 144.559 32.5345 144.172 32.5345H137.538C137.151 32.5345 136.779 32.3805 136.506 32.1064C136.232 31.8323 136.078 31.4605 136.078 31.0728V20.4906C136.078 19.6717 136.026 18.8535 135.925 18.0409L135.618 17.6989L135.312 17.3583L134.521 17.0339H134.192C134.16 17.0339 133.754 17.1376 133.29 17.2648L132.933 17.6229L132.575 17.981C132.46 18.8298 132.4 19.6852 132.397 20.5418V31.0655C132.397 31.4532 132.243 31.825 131.969 32.0991C131.696 32.3732 131.324 32.5272 130.937 32.5272H124.406C124.018 32.5272 123.647 32.3732 123.373 32.0991C123.1 31.825 122.946 31.4532 122.946 31.0655V1.46163H122.944Z" fill="#E37C1D"/>
<path d="M164.016 23.5031V31.0714C164.016 31.8753 163.856 32.5798 163.659 32.6354H162.893C162.551 32.669 162.228 32.6953 161.922 32.7128C161.615 32.7304 161.326 32.7377 161.046 32.7377C157.606 32.7377 154.746 31.6804 152.464 29.5659C150.182 27.4514 149.041 24.5525 149.041 20.8692C149.041 16.8741 150.301 13.8646 152.821 11.8407C155.342 9.81684 158.358 8.80199 161.871 8.79614C165.787 8.79614 168.835 9.98152 171.015 12.3523C173.195 14.7231 174.425 18.8054 174.425 18.8054C174.657 19.5757 174.896 20.4804 174.956 20.8181L174.974 21.125L174.991 21.4319C174.991 21.7696 175 22.7036 175 23.5075V31.0714C175 31.4591 174.846 31.8308 174.573 32.1049C174.299 32.3791 173.928 32.5331 173.54 32.5331H166.958C166.57 32.5331 166.199 32.3791 165.926 32.1049C165.652 31.8308 165.498 31.4591 165.498 31.0714V22.2797C165.483 21.3081 165.397 20.3389 165.241 19.3798C165.241 19.3798 165.156 18.9092 164.476 18.3567C163.796 17.8042 163.601 17.772 163.601 17.772C162.818 17.5908 162.141 17.4417 162.101 17.4417H161.827C161.795 17.4417 161.124 17.5718 160.337 17.734C160.337 17.734 160.201 17.7618 159.519 18.2894C158.838 18.8171 158.498 19.5611 158.498 20.5141C158.498 21.5723 158.79 22.459 159.373 23.1742C159.629 23.5123 159.96 23.7857 160.341 23.9723C160.721 24.1588 161.139 24.2535 161.563 24.2485C161.822 24.246 162.079 24.2117 162.329 24.1462L162.602 24.079C162.894 23.9752 163.293 23.8524 163.471 23.8056L163.606 23.7369L163.742 23.6697C163.84 23.6263 163.933 23.5703 164.016 23.5031Z" fill="#E37C1D"/>
<path d="M17.4526 30.0102C16.3625 29.8767 15.3542 29.3627 14.6049 28.5587C13.8556 27.7546 13.4132 26.7119 13.3555 25.6136V25.6136L13.408 24.6285C13.5528 23.7223 13.9607 22.8788 14.5808 22.203C15.2008 21.5273 16.0057 21.0491 16.8952 20.8281C17.7847 20.6071 18.7194 20.653 19.583 20.9601C20.4467 21.2672 21.201 21.8219 21.7521 22.5552C22.3031 23.2884 22.6266 24.1678 22.6822 25.0839C22.7378 25.9999 22.5231 26.9121 22.0648 27.7068C21.6065 28.5015 20.9248 29.1436 20.1047 29.5532C19.2846 29.9628 18.3623 30.1217 17.4526 30.0102V30.0102Z" stroke="#EA6424" stroke-width="5.6" stroke-miterlimit="10"/>
<path d="M9.9224 37.1489C8.72175 37.0094 7.62183 36.4093 6.85381 35.4747C6.08579 34.5401 5.70948 33.3438 5.80398 32.1371C5.89847 30.9304 6.45641 29.8074 7.36052 29.0041C8.26464 28.2008 9.44453 27.7798 10.6522 27.8295L11.6243 27.9669C12.7818 28.2522 13.7865 28.9699 14.4327 29.9729C15.0789 30.976 15.3177 32.1885 15.1002 33.3621C14.8826 34.5357 14.2252 35.5816 13.2626 36.2856C12.3 36.9896 11.105 37.2985 9.9224 37.1489Z" stroke="#EA6424" stroke-width="5.6" stroke-miterlimit="10"/>
<path d="M12.414 21.5225L11.4389 21.4042C10.2732 21.1357 9.25467 20.4297 8.59341 19.4315C7.93214 18.4333 7.67852 17.2191 7.88483 16.0392C8.09113 14.8593 8.74164 13.8036 9.70225 13.0898C10.6629 12.376 11.8603 12.0585 13.0478 12.2027C14.2353 12.3469 15.3223 12.9418 16.0847 13.8648C16.8471 14.7879 17.2268 15.9686 17.1456 17.1637C17.0643 18.3588 16.5282 19.4771 15.6479 20.2881C14.7675 21.0991 13.61 21.5409 12.414 21.5225V21.5225Z" stroke="#EA6424" stroke-width="5.6" stroke-miterlimit="10"/>
<path d="M4.51167 28.2738C3.59575 28.1609 2.73378 27.7787 2.03453 27.1757C1.33529 26.5726 0.830112 25.7756 0.582765 24.8853C0.335418 23.995 0.356981 23.0513 0.644739 22.1733C0.932496 21.2952 1.47355 20.5222 2.19961 19.9518C2.92567 19.3814 3.8042 19.0391 4.72432 18.9683C5.64444 18.8974 6.56491 19.101 7.36956 19.5535C8.17421 20.006 8.82698 20.687 9.24548 21.5106C9.66398 22.3343 9.82945 23.2636 9.72102 24.1813V24.1813L9.50353 25.1459C9.15643 26.1619 8.47083 27.0273 7.56184 27.5969C6.65286 28.1664 5.57585 28.4055 4.51167 28.2738Z" stroke="#EA6424" stroke-width="5.6" stroke-miterlimit="10"/>
<path d="M11.6229 27.9669C11.4375 27.9196 11.2493 27.8845 11.0594 27.8617C10.9222 27.8456 10.785 27.8339 10.6493 27.8295L10.9573 25.3184L11.077 24.3406L11.4375 21.4027C11.5944 21.4396 11.7532 21.4674 11.9133 21.486C12.079 21.5066 12.2456 21.5178 12.4125 21.5196L12.052 24.459L11.9323 25.4368L11.6229 27.9669Z" fill="#EA6424"/>
<path d="M13.4327 24.573C13.4327 24.5174 13.4473 24.4604 13.4561 24.4049L12.1016 24.2383L11.1266 24.1184L9.76766 23.9518C9.76766 23.9606 9.76766 23.9693 9.76766 23.9766C9.72848 24.2964 9.65658 24.6114 9.5531 24.9165L11.0127 25.0963L11.9877 25.2161L13.4109 25.3901C13.3942 25.1176 13.4015 24.8442 13.4327 24.573Z" fill="#EA6424"/>
</g>
<defs>
<clipPath id="clip0">
<rect width="175" height="42" fill="white"/>
</clipPath>
</defs>
</svg>
