<svg width="629" height="449" viewBox="0 0 629 449" fill="none" xmlns="http://www.w3.org/2000/svg">
<g clip-path="url(#clip0)">
<path d="M209.082 381.038H78.5928C78.5928 381.038 39.8334 378.884 40.7035 390.601C41.727 404.386 191.876 395.297 202.853 403.968C213.83 412.637 219.575 422.831 239.15 427.786C258.725 432.741 295.824 420.129 399.807 433.932C462.73 421.029 258.846 381.038 209.083 381.038L209.082 381.038Z" fill="#5AD2D6"/>
<path d="M53.5567 21.6428C53.3832 -1.90122 98.1089 -5.35954 97.5828 7.02916L177.873 7.30835C187.163 7.43863 194.665 15.8378 194.632 26.0618L193.574 367.561C193.544 377.566 186.078 385.676 176.895 385.679L91.8452 386.106C91.0289 387.772 89.4929 389.284 87.0696 390.537C63.2708 390.349 52.4536 380.987 52.3612 368.933C51.4738 366.711 52.5991 26.0696 53.5567 21.6428Z" fill="#027273"/>
<path d="M62.7325 161.775C64.7035 161.819 66.3306 160.264 66.3478 158.316L67.1104 69.153C67.1269 67.1773 65.5156 65.5222 63.5281 65.4764C61.542 65.4313 59.9028 67.0105 59.887 68.987L59.176 158.152C59.161 160.1 60.7607 161.73 62.7325 161.775Z" fill="#013F40"/>
<path d="M88.4899 390.601L193.135 390.483C202.644 390.498 210.379 382.176 210.416 371.891L211.688 20.6592C211.726 10.141 203.959 1.51918 194.335 1.40894L89.3866 0.0473714C79.6854 -0.0635871 71.802 8.41937 71.784 18.9876L71.1626 371.861C71.1447 382.197 78.9042 390.583 88.4899 390.601Z" fill="#03C0C2"/>
<path d="M86.3732 388.108C87.0068 388.196 87.6548 388.24 88.2991 388.24L192.919 387.958C201.091 387.961 207.808 380.662 207.839 371.683L209.082 20.8374C209.114 11.6558 202.371 4.09627 194.102 3.99318L89.1836 2.46267C88.9421 2.45909 88.6984 2.46267 88.459 2.47198C84.5792 2.61944 80.9625 4.35398 78.2704 7.35057C75.5181 10.4123 74.0015 14.4834 73.9936 18.8215L73.3485 372.053C73.3335 380.183 78.9134 387.081 86.3732 388.108Z" fill="#0D0D0D"/>
<path d="M79.4038 20.6935L78.7021 372.625L202.761 372.617L203.948 21.7136L79.4038 20.6935Z" fill="white"/>
<path d="M203.728 54.2151H79.2271L78.592 372.625L202.65 372.617L203.728 54.2151Z" fill="#E6E6E6"/>
<path d="M202.776 335.836L78.7407 298.258L78.7701 283.456L202.844 315.679L202.776 335.836Z" fill="#04F2F5"/>
<path d="M202.763 339.37L78.7302 303.482L78.741 298.012L202.782 333.903L202.763 339.37Z" fill="white"/>
<path d="M112.18 238.02C109.685 238.446 107.076 238.67 104.414 238.67C101.752 238.67 99.1729 238.446 96.7073 238.02C89.3398 236.762 83.1508 233.793 78.8775 229.801L78.8474 244.596C83.8797 246.934 89.6889 248.597 96.0765 249.379C98.6554 249.696 101.317 249.867 104.032 249.867C106.747 249.867 109.421 249.696 112.036 249.379C136.194 246.447 153.076 231.119 151.348 214.222C149.777 198.859 133.085 187.158 112.854 185.12C110.699 184.904 108.496 184.788 106.255 184.788C104.013 184.788 101.802 184.904 99.6452 185.12C92.161 185.868 85.0673 187.924 78.9556 190.983L78.932 202.609C83.8173 197.912 91.0708 194.555 99.1865 193.362C101.381 193.036 103.653 192.864 105.979 192.864C108.305 192.864 110.576 193.036 112.749 193.362C126.435 195.402 137.193 203.703 137.849 214.223C138.548 225.438 127.646 235.4 112.18 238.02Z" fill="#FFD84F"/>
<path d="M113.373 144.278L112.748 193.362C110.576 193.036 108.304 192.864 105.979 192.864C103.653 192.864 101.381 193.036 99.1859 193.362L101.911 144.278H113.374H113.373Z" fill="#FFD84F"/>
<path d="M203.17 219.354H141.164C141.582 217.687 141.737 215.963 141.609 214.217C141.482 212.489 141.083 210.823 140.446 209.239H203.205L203.17 219.354Z" fill="#FFD84F"/>
<path d="M104.135 246.826C106.857 246.826 109.525 246.568 112.077 246.074L110.645 372.624L90.0134 372.625L96.2599 246.074C98.7778 246.568 101.413 246.826 104.135 246.826Z" fill="#FFD84F"/>
<path d="M79.3335 176.646H78.9823L79.006 164.959H85.3527L79.3335 176.646Z" fill="white"/>
<path d="M96.2235 164.959H89.9993L83.7708 176.646H95.3906L96.2235 164.959Z" fill="white"/>
<path d="M87.5615 184.942C89.9684 184.532 92.4046 184.473 94.8351 184.453L95.1684 179.769H82.1064L78.9642 185.664L78.9613 187.157C81.7208 186.209 84.5999 185.448 87.5615 184.942Z" fill="white"/>
<path d="M131.912 214.222C132.388 224.846 120.164 233.962 104.582 233.962C91.346 233.962 80.9855 227.386 78.8983 218.895L78.9112 212.484C81.1675 203.348 92.7265 196.546 105.858 196.546C119.81 196.546 131.465 204.225 131.912 214.222Z" fill="#03E484"/>
<path d="M106.238 197.992C106.238 197.992 129.356 200.703 126.443 212.573C123.309 225.349 110.473 225.349 112.446 217.113C114.327 209.259 107.474 207.553 103.851 203.96C100.305 200.446 100.207 198.136 106.238 197.992Z" fill="#04F2F5"/>
<path d="M117.349 161.539L117.39 181.803C117.39 181.803 148.967 187.931 153.892 206.748H203.212L203.364 161.901L117.349 161.539Z" fill="#03E484"/>
<path d="M190.424 242.483H160.861L157.06 224.679H183.845L190.424 242.483Z" fill="white"/>
<path d="M203.091 242.483H197.59L190.337 224.679H203.152L203.091 242.483Z" fill="white"/>
<path d="M200.59 270.001H166.735L161.817 246.962H192.078L200.59 270.001Z" fill="white"/>
<path d="M203.046 255.88L199.413 246.962H203.076L203.046 255.88Z" fill="white"/>
<path d="M202.975 276.474L202.93 276.328H168.086L171.272 297.926L202.877 305.664L202.975 276.474Z" fill="white"/>
<path d="M140.603 246.962C136.225 251.211 130.889 255.116 124.6 257.394L125.048 270.001H158.714L154.647 246.962H140.602H140.603Z" fill="white"/>
<path d="M78.7194 308.846C82.8171 310.073 85.2519 310.802 85.2519 310.802L82.5089 348.596H78.6392L78.7187 308.846L78.7194 308.846Z" fill="#03E484"/>
<path d="M79.0103 162.965H203.361L203.726 54.8186H79.226L79.0103 162.965Z" fill="#94F3F7"/>
<path d="M126.394 275.917L159.064 276.99L160.793 297.388L126.189 287.503L126.394 275.917Z" fill="white"/>
<path d="M78.7793 278.661L89.5756 281.283L92.2627 255.519L78.8331 251.703L78.7793 278.661Z" fill="white"/>
<path d="M166.501 76.3969L152.495 76.2823L107.482 20.924L121.55 21.0386L166.501 76.3969Z" fill="#F4B740"/>
<path d="M152.496 76.2823L138.499 76.1685L93.4139 20.8088L107.482 20.924L152.496 76.2823Z" fill="#FCFCFC"/>
<path d="M138.499 76.1685L124.493 76.0539L79.355 20.6935L93.4139 20.8088L138.499 76.1685Z" fill="#F4B740"/>
<path d="M180.496 76.5106L166.501 76.3968L121.549 21.0385L135.608 21.1538L180.496 76.5106Z" fill="#FCFCFC"/>
<path d="M208.496 76.7397L194.502 76.6252L149.676 21.2691L163.734 21.3843L208.496 76.7397Z" fill="#FCFCFC"/>
<path d="M249.124 77.0704L236.496 76.9674L191.858 21.6148L204.531 21.7186L249.124 77.0704Z" fill="#F4B740"/>
<path d="M236.496 76.9674L222.501 76.8536L177.801 21.4996L191.857 21.6148L236.496 76.9674Z" fill="#FCFCFC"/>
<path d="M194.502 76.6252L180.497 76.5107L135.608 21.1538L149.676 21.2691L194.502 76.6252Z" fill="#F4B740"/>
<path d="M222.502 76.8536L208.497 76.7398L163.735 21.3843L177.802 21.4996L222.502 76.8536Z" fill="#F4B740"/>
<path d="M138.499 76.1685L138.505 84.5956C138.51 93.5253 124.522 93.4114 124.507 84.4818L124.493 76.054L138.499 76.1685Z" fill="#F4B740"/>
<path d="M152.496 76.2823L152.492 84.7094C152.487 93.6391 138.51 93.5253 138.505 84.5956L138.499 76.1685L152.496 76.2823Z" fill="#FCFCFC"/>
<path d="M166.502 76.3968L166.488 84.824C166.473 93.7529 152.487 93.6391 152.492 84.7094L152.496 76.2823L166.502 76.3968Z" fill="#E37C1D"/>
<path d="M180.497 76.5107L180.473 84.9378C180.449 93.8667 166.473 93.7529 166.488 84.824L166.502 76.3969L180.497 76.5107Z" fill="#FCFCFC"/>
<path d="M194.502 76.6252L194.469 85.0516C194.434 93.9806 180.449 93.8668 180.473 84.9378L180.497 76.5107L194.502 76.6252Z" fill="#E37C1D"/>
<path d="M208.496 76.7397L208.454 85.1654C208.41 94.0951 194.434 93.9806 194.469 85.0516L194.502 76.6252L208.496 76.7397Z" fill="#FCFCFC"/>
<path d="M222.502 76.8536L222.45 85.28C222.395 94.2089 208.41 94.0951 208.454 85.1654L208.497 76.7397L222.502 76.8536Z" fill="#E37C1D"/>
<path d="M236.495 76.9674L236.434 85.3938C236.369 94.322 222.394 94.2089 222.449 85.28L222.501 76.8536L236.495 76.9674Z" fill="#FCFCFC"/>
<path d="M249.124 77.0705L249.053 85.4969C248.979 94.4258 236.37 94.322 236.434 85.3938L236.496 76.9674L249.124 77.0705Z" fill="#E37C1D"/>
<path d="M124.493 76.0539L125.59 76.2064L79.2937 75.7962L79.3546 20.6935L124.493 76.0539Z" fill="#F4B740"/>
<path d="M119.997 299.787C113.456 293.277 123.768 277.651 138.98 262.92C145.118 256.974 152.057 251.175 159.005 246.176C159.245 246.056 159.447 245.912 159.6 245.753C159.703 245.679 159.808 245.603 159.912 245.53C159.912 245.453 159.899 245.377 159.876 245.297C159.908 245.188 159.92 245.074 159.906 244.959L155.748 223.202L188.039 222.894C188.517 222.894 188.964 222.658 189.231 222.262C189.497 221.865 189.549 221.362 189.369 220.921L183.527 206.583C183.307 206.045 182.781 205.692 182.198 205.692H152.762C152.054 203.976 150.27 200.27 146.728 196.277C142.364 191.358 134.375 185.044 121.102 182.896C118.152 182.777 118.288 185.434 120.643 185.727C130.572 187.334 138.594 191.488 144.485 198.075C148.89 202.999 150.388 207.519 150.402 207.563C150.592 208.157 151.145 208.559 151.77 208.559H181.231L185.904 220.027H153.64C151.587 220.084 150.979 221.474 151.029 223.251L153.261 243.175C132.793 254.605 109.847 269.675 99.3722 278.926C85.1971 291.441 85.3577 313.362 102.612 329.478C141.928 366.196 205.607 390.899 272.222 407.365C405.859 440.399 494.577 446.351 503.442 447.157C533.661 449.636 572.901 445.054 569.289 410.97C565.681 376.884 622.838 379.178 628.999 377.656C561.185 374.947 176.838 356.366 119.995 299.789L119.997 299.787Z" fill="#808080"/>
<path d="M628.999 377.655C609.703 377.187 572.229 378.795 567.955 404.402C567.493 407.413 567.844 410.446 568.06 413.449C568.466 420.233 566.715 427.222 562.195 432.394C548.157 447.014 525.384 446.711 506.474 446.035C449.578 441.654 393.097 432.468 337.227 421.011C275.065 407.841 211.905 393.988 155.082 364.623C134.711 353.772 114.504 341.307 98.6105 324.396C87.2945 311.617 85.8868 290.734 99.3738 278.926C91.4803 285.449 87.531 296.103 89.1021 306.207C92.5497 329.074 119.168 343.871 136.849 355.924C177.195 380.421 222.492 395.533 267.985 407.288C346.28 426.722 425.807 442.136 506.295 448.711C528.065 449.743 560.677 449.255 569.472 424.996C571.951 418.407 570.184 411.532 570.766 404.79C574.263 381.901 612.153 379.648 629.001 379.475V377.655H628.999Z" fill="#636363"/>
<path d="M157.492 346.074C174.216 353.493 193.691 360.185 214.855 366.222C215.996 364.488 217.991 361.202 218.586 360.429C198.065 355.301 179.158 349.555 162.839 343.121C161.061 344.109 159.278 345.094 157.493 346.074H157.492Z" fill="white"/>
<path d="M105.706 301.017C105.314 301.073 103.608 301.608 102.884 301.875C103.782 305.913 106.237 310.45 109.259 314.134C109.723 314.678 110.2 315.216 110.692 315.754C111.715 315.043 112.736 314.328 113.76 313.62C110.558 310.126 107.391 305.692 105.705 301.017H105.706Z" fill="white"/>
<path d="M130.41 263.087C132.888 261.168 135.481 259.215 138.245 257.083C137.926 256.977 137.607 256.871 137.285 256.775C134.569 258.571 131.724 260.48 128.879 262.473C129.388 262.682 129.899 262.884 130.41 263.087Z" fill="white"/>
<path d="M125.515 266.195C122.033 268.681 118.593 271.285 115.445 273.958C116.133 274.393 116.86 274.785 117.586 275.152C120.663 272.126 123.803 269.492 127.142 266.863C126.599 266.643 126.056 266.422 125.515 266.195Z" fill="white"/>
<path d="M113.76 279.645C112.935 279.193 112.118 278.701 111.357 278.149C104.904 284.3 101.694 289.832 102.285 296.753C103.124 296.753 104.863 296.657 105.722 296.518C105.58 289.026 110.348 283.388 113.76 279.645Z" fill="white"/>
<path d="M119.39 323.891C125.609 328.954 133.059 333.756 141.54 338.311C143.076 337.49 144.609 336.667 146.14 335.841C137.009 331.41 129.08 326.689 122.601 321.662C121.53 322.406 120.46 323.147 119.39 323.89V323.891Z" fill="white"/>
<path d="M249.414 367.453C247.056 369.465 244.695 371.476 242.334 373.487C268.436 379.903 296.217 385.476 323.998 390.313C326.607 388.613 332.865 383.308 334.782 381.914C305.827 377.916 276.735 373.14 249.414 367.453H249.414Z" fill="white"/>
<path d="M520.14 400.317C492.992 398.432 432.006 393.216 395.169 389.273C390.576 392.649 385.981 396.021 381.379 399.388C416.029 404.372 475.492 410.744 502.655 413.825C508.44 409.267 514.281 404.778 520.14 400.317Z" fill="white"/>
<path d="M131.827 183.501C131.827 185.369 127.093 186.884 121.253 186.884C115.414 186.884 110.679 185.37 110.679 183.501C110.679 181.633 115.414 180.119 121.253 180.119C127.093 180.119 131.827 181.633 131.827 183.501Z" fill="#222222"/>
<path d="M125.058 183.208C125.058 183.947 123.185 184.546 120.873 184.546C118.563 184.546 116.689 183.947 116.689 183.208C116.689 182.47 118.563 181.87 120.873 181.87C123.185 181.87 125.058 182.47 125.058 183.208Z" fill="white"/>
<path d="M120.87 156.336C114.072 156.336 108.563 150.834 108.563 144.045C108.563 137.257 114.072 131.754 120.87 131.754C127.667 131.754 133.182 137.257 133.182 144.045C133.182 150.834 127.667 156.336 120.87 156.336ZM120.87 122.304C108.826 122.304 99.0564 132.062 99.0564 144.09C99.0564 156.125 120.87 178.129 120.87 178.129C120.87 178.129 142.689 156.125 142.689 144.09C142.689 132.062 132.92 122.304 120.87 122.304Z" fill="#FF3305"/>
<path d="M285.793 95.9785C285.808 95.7845 285.82 95.5905 285.82 95.3936C285.82 91.2681 282.469 87.9243 278.341 87.9243C274.211 87.9243 270.863 91.2681 270.863 95.3936C270.863 95.5905 270.872 95.7845 270.886 95.9785H285.793H285.793Z" fill="#94F3F7"/>
<path d="M310.362 95.9785C310.377 95.7845 310.386 95.5905 310.386 95.3936C310.386 91.2681 307.039 87.9243 302.908 87.9243C298.777 87.9243 295.429 91.2681 295.429 95.3936C295.429 95.5905 295.441 95.7845 295.456 95.9785H310.361H310.362Z" fill="#94F3F7"/>
<path d="M316.723 95.9785C316.744 95.7859 316.756 95.5912 316.756 95.3936C316.756 92.4765 314.388 90.1127 311.468 90.1127C308.547 90.1127 306.181 92.4772 306.181 95.3936C306.181 95.5912 306.192 95.7859 306.213 95.9785H316.723Z" fill="#94F3F7"/>
<path d="M301.759 95.9785C301.817 95.5225 301.847 95.0579 301.847 94.5862C301.847 88.5436 296.942 83.6449 290.892 83.6449C284.842 83.6449 279.937 88.5436 279.937 94.5862C279.937 95.0579 279.967 95.5225 280.025 95.9785H301.759H301.759Z" fill="#94F3F7"/>
<path d="M368.304 68.6569C368.331 68.3412 368.346 68.0234 368.346 67.7027C368.346 60.9743 362.885 55.5194 356.148 55.5194C349.412 55.5194 343.95 60.9736 343.95 67.7027C343.95 68.0234 343.966 68.3412 343.991 68.6569H368.303H368.304Z" fill="#94F3F7"/>
<path d="M408.381 68.6569C408.404 68.3412 408.419 68.0234 408.419 67.7027C408.419 60.9743 402.958 55.5194 396.221 55.5194C389.485 55.5194 384.023 60.9736 384.023 67.7027C384.023 68.0234 384.041 68.3412 384.064 68.6569H408.38H408.381Z" fill="#94F3F7"/>
<path d="M418.757 68.6569C418.79 68.3434 418.811 68.0248 418.811 67.7027C418.811 62.9451 414.948 59.0873 410.184 59.0873C405.421 59.0873 401.558 62.9451 401.558 67.7027C401.558 68.0248 401.579 68.3434 401.614 68.6569H418.757Z" fill="#94F3F7"/>
<path d="M394.347 68.6569C394.442 67.9132 394.492 67.1551 394.492 66.3855C394.492 56.5288 386.489 48.5384 376.621 48.5384C366.752 48.5384 358.753 56.5288 358.753 66.3855C358.753 67.1544 358.8 67.9125 358.895 68.6569H394.347Z" fill="#94F3F7"/>
<path d="M24.1046 314.432C24.0902 314.24 24.0802 314.049 24.0802 313.858C24.0802 309.815 27.3622 306.536 31.4096 306.536C35.4585 306.536 38.7398 309.815 38.7398 313.858C38.7398 314.049 38.7305 314.24 38.7161 314.432H24.1053H24.1046Z" fill="#94F3F7"/>
<path d="M0.0243693 314.432C0.00931769 314.24 0 314.049 0 313.858C0 309.815 3.28126 306.536 7.33015 306.536C11.3783 306.536 14.6603 309.815 14.6603 313.858C14.6603 314.049 14.6503 314.24 14.6352 314.432H0.0250861H0.0243693Z" fill="#94F3F7"/>
<path d="M8.45527 314.432C8.39865 313.985 8.36926 313.529 8.36926 313.067C8.36926 307.143 13.1765 302.341 19.1068 302.341C25.0372 302.341 29.8444 307.143 29.8444 313.067C29.8444 313.529 29.815 313.985 29.7584 314.432H8.45456H8.45527Z" fill="#94F3F7"/>
<path fill-rule="evenodd" clip-rule="evenodd" d="M204.02 298.379C204.018 298.379 204.015 298.376 204.012 298.376C204.015 298.376 204.018 298.379 204.02 298.379ZM203.848 298.294C203.568 298.15 203.291 298.009 203.013 297.864C203.291 298.009 203.568 298.15 203.848 298.294Z" fill="url(#paint0_linear)"/>
<path fill-rule="evenodd" clip-rule="evenodd" d="M168.641 276.328C165.223 273.799 161.83 271.176 158.441 268.445C161.831 271.176 165.224 273.799 168.641 276.328Z" fill="url(#paint1_linear)"/>
<path fill-rule="evenodd" clip-rule="evenodd" d="M158.441 268.445C154.008 264.875 149.584 261.128 145.16 257.218C149.584 261.129 154.008 264.875 158.441 268.445Z" fill="url(#paint2_linear)"/>
<path fill-rule="evenodd" clip-rule="evenodd" d="M145.161 257.218C144.882 256.971 144.606 256.727 144.327 256.48C144.606 256.727 144.882 256.971 145.161 257.218Z" fill="url(#paint3_linear)"/>
<path d="M504.478 399.154C473.807 396.77 426.022 392.574 395.17 389.272C392.376 391.324 389.582 393.377 386.788 395.426C367.867 392.997 347.287 390.304 327.609 387.628C330.362 385.461 333.517 382.835 334.784 381.914C309.699 378.451 284.516 374.401 260.469 369.685C260.41 363.56 268.612 357.085 285.623 357.085C288.689 357.085 292.036 357.294 295.675 357.755L305.414 358.746C308.134 362.848 311.832 366.183 316.207 368.37C320.628 370.932 325.766 372.543 331.336 372.89C332.09 372.937 332.831 372.96 333.57 372.96C342.535 372.96 350.364 369.534 356.087 363.912L473.892 375.921C476.236 378.807 479.14 381.173 482.467 382.835C486.616 385.241 491.438 386.751 496.67 387.079C497.373 387.122 498.075 387.145 498.767 387.145C504.793 387.145 510.272 385.497 514.868 382.626C520.402 387.09 516.313 394.159 504.478 399.154Z" fill="#646464"/>
<path d="M327.607 387.628C308.015 384.962 289.314 382.312 273.998 379.951C265.095 378.578 260.511 374.229 260.467 369.685C284.514 374.402 309.698 378.452 334.782 381.915C333.516 382.836 330.36 385.461 327.607 387.628H327.607Z" fill="white"/>
<path d="M470.11 404.989C467.089 404.989 463.944 404.886 460.672 404.666C460.672 404.666 427.565 400.658 386.789 395.427C389.583 393.378 392.377 391.325 395.171 389.273C426.023 392.575 473.807 396.771 504.478 399.155C496.42 402.555 484.766 404.989 470.11 404.989Z" fill="white"/>
<path d="M337.635 261.047L269.365 255.021L270.527 183.92L338.802 189.945L337.635 261.047Z" fill="#DE7F04"/>
<path d="M268 181.266L267.755 196.204L340.721 202.645L340.977 186.975L268 181.266Z" fill="#DE7F04"/>
<path d="M303.101 258.567L246.541 253.56L247.71 182.457L304.269 187.466L303.101 258.567Z" fill="#FFA305"/>
<path d="M245.627 179.516L245.377 194.781L305.826 200.134L306.075 184.246L245.627 179.516Z" fill="#FFA305"/>
<path d="M318.314 201.567L247.476 195.293L247.537 194.603L318.375 200.875L318.314 201.567Z" fill="#DE7F04"/>
<path d="M258.786 254.642L254.55 254.268L255.772 180.288L260.005 180.663L258.786 254.642Z" fill="white"/>
<path d="M294.237 257.818L290.001 257.442L291.216 183.139L295.453 183.515L294.237 257.818Z" fill="white"/>
<path d="M358.536 342.349C356.962 359.274 342.699 372.182 326.681 371.179C310.662 370.18 298.95 355.648 300.522 338.722C302.094 321.797 316.356 308.889 332.374 309.891C348.396 310.891 360.108 325.422 358.536 342.349Z" fill="#222222"/>
<path d="M365.891 342.81C364.245 360.547 349.992 374.058 331.336 372.891C312.678 371.724 298.889 356.397 300.537 338.661C302.186 320.921 318.646 307.488 337.303 308.653C355.962 309.82 367.539 325.07 365.89 342.81H365.891Z" fill="#222222"/>
<path d="M350.038 341.819C348.925 353.787 338.842 362.914 327.516 362.206C316.186 361.497 307.905 351.223 309.018 339.256C310.128 327.288 320.215 318.157 331.541 318.866C342.869 319.574 351.151 329.851 350.038 341.819Z" fill="#CCCCCC"/>
<path d="M338.284 341.019C337.766 346.6 333.064 350.855 327.785 350.525C322.504 350.196 318.641 345.403 319.159 339.825C319.677 334.244 324.379 329.99 329.661 330.318C334.942 330.651 338.802 335.441 338.284 341.019Z" fill="#737373"/>
<path d="M412.382 334.95C407.135 335.421 349.672 334.632 412.432 270.721C341.275 264.267 306.994 250.785 278.051 333.529L406.681 344.15C412.825 344.536 414.086 337.181 412.381 334.95H412.382Z" fill="#F4B740"/>
<path d="M422.744 271.332L352.552 265.604C344.98 264.978 346.347 248.855 353.919 249.481L424.109 255.209C433.163 255.956 431.796 272.079 422.744 271.332Z" fill="#222222"/>
<path d="M338.673 266.831L278.481 262.084C276.797 261.952 275.548 260.482 275.692 258.806C275.836 257.127 277.32 255.874 279.004 256.006L339.197 260.752C340.88 260.884 342.129 262.351 341.985 264.031C341.841 265.71 340.357 266.964 338.673 266.831Z" fill="#222222"/>
<path d="M305.021 289.013L283.023 260.521L285.625 258.515L307.624 287.008L305.021 289.013Z" fill="#222222"/>
<path d="M399.792 270.218C399.792 270.218 339.688 333.033 399.824 336.036C411.748 336.353 412.381 334.95 412.381 334.95C395.14 331.998 378.827 325.47 392.788 303.196C404.341 284.765 423.831 271.186 423.831 271.186L399.792 270.219L399.792 270.218Z" fill="#E37C1D"/>
<path d="M366.296 340.722C367.245 338.731 368.078 336.687 368.773 334.591C376.451 311.512 364.742 293.971 343.654 289.581C296.121 279.687 282.348 331.72 281.957 333.756L366.296 340.723V340.722Z" fill="#E37C1D"/>
<path d="M355.254 339.807C356.199 337.82 357.032 335.773 357.731 333.68C365.406 310.599 354.159 290.448 332.61 288.67C311.06 286.891 287.369 304.157 279.693 327.235C278.996 329.331 278.459 331.401 278.068 333.435L355.254 339.807Z" fill="#F4B740"/>
<path d="M338.174 310.159L310.256 308.453C309.711 308.421 309.304 307.954 309.355 307.419L309.363 307.322C309.41 306.784 309.899 306.372 310.443 306.405L338.36 308.107C338.907 308.142 339.31 308.609 339.263 309.144L339.254 309.242C339.204 309.779 338.719 310.192 338.174 310.159Z" fill="#222222"/>
<path d="M337.748 314.817L309.832 313.115C309.285 313.082 308.879 312.614 308.929 312.077L308.938 311.98C308.988 311.444 309.473 311.03 310.018 311.065L337.936 312.767C338.481 312.8 338.888 313.267 338.837 313.805L338.829 313.899C338.779 314.437 338.293 314.849 337.748 314.817Z" fill="#222222"/>
<path d="M337.324 319.477L309.405 317.773C308.861 317.74 308.454 317.272 308.502 316.734L308.51 316.64C308.56 316.102 309.046 315.69 309.594 315.723L337.51 317.425C338.054 317.46 338.46 317.925 338.414 318.463L338.404 318.56C338.354 319.098 337.869 319.51 337.324 319.477Z" fill="#222222"/>
<path d="M336.897 324.135L308.978 322.433C308.434 322.398 308.027 321.933 308.077 321.395L308.086 321.298C308.136 320.763 308.621 320.348 309.166 320.384L337.085 322.086C337.63 322.119 338.036 322.585 337.986 323.124L337.977 323.217C337.927 323.756 337.441 324.167 336.897 324.135Z" fill="#222222"/>
<path d="M439.372 178.31C439.372 178.31 430.958 208.068 434.332 219.539C441.245 231.08 493.524 229.977 493.524 229.977L497.357 221.517L462.854 211.096L466.336 190.206C469.813 171.407 448.54 164.95 439.372 178.31V178.31Z" fill="#32613F"/>
<path d="M404.658 334.368L425.956 336.17C431.579 328.701 469.753 277.451 470.751 265.56C471.589 255.592 467.706 245.871 442.794 235.414C426.091 228.4 406.834 231.871 406.834 231.871C406.834 231.871 392.753 246.664 404.455 255.435C416.158 264.21 438.392 269.382 438.392 269.382L404.659 334.366L404.658 334.368Z" fill="#024545"/>
<path d="M404.57 334.529L447.687 337.87C447.687 337.87 460.772 332.583 451.686 321.268C444.58 314.616 430.273 317.956 424.927 325.291L410.115 324.361L404.571 334.529H404.57Z" fill="#222222"/>
<path d="M380.924 332.886L402.225 334.685C407.845 327.219 446.021 275.97 447.019 264.075C447.858 254.109 443.972 244.386 419.062 233.929C402.36 226.915 390.517 228.689 384.687 230.044C378.854 231.397 369.019 245.178 380.721 253.953C392.427 262.725 414.661 267.9 414.661 267.9L380.924 332.884L380.924 332.886Z" fill="#027273"/>
<path d="M380.835 333.048L423.955 336.388C423.955 336.388 437.042 331.101 427.956 319.786C420.849 313.132 406.541 316.475 401.191 323.809L386.38 322.877C379.131 326.397 380.592 329.707 380.836 333.048H380.835Z" fill="#222222"/>
<path d="M438.831 235.544C449.423 231.174 456.447 208.506 463.296 194.503C475.538 169.502 436.825 151.65 416.123 173.696C397.036 192.922 376.916 211.32 379.421 233.479C397.445 242.23 430.761 239.66 438.831 235.543V235.544Z" fill="#56A66B"/>
<path d="M431.103 238.117L430.765 237.512C434.386 235.488 435.76 231.092 437.353 226.002C438.839 221.259 440.524 215.881 444.454 211.655C454.632 197.256 457.567 186.931 458.239 180.802C458.966 174.181 457.276 170.913 457.261 170.88L457.868 170.553C457.943 170.69 459.668 173.99 458.936 180.794C458.269 187.017 455.313 197.496 445.009 212.073L444.978 212.108C441.142 216.222 439.482 221.529 438.015 226.211C436.379 231.442 434.965 235.958 431.102 238.117H431.103Z" fill="#386B45"/>
<path d="M416.552 175.994C416.552 175.994 387.588 203.996 396.517 219.566C403.705 232.089 448.294 234.741 451.294 231.354L455.127 222.894C451.891 215.237 435.353 212.168 422.258 209.171L437.173 195.554C450.161 182.969 432.853 161.597 416.552 175.995V175.994Z" fill="#417D51"/>
<path d="M459.318 178.764C459.318 178.764 461.776 180.248 461.434 183.897C466.507 179.835 461.439 166.472 448.545 161.8C436.31 157.368 459.317 178.764 459.317 178.764H459.318Z" fill="#417D51"/>
<path d="M444.913 164.432C441.168 168.435 459.317 178.763 459.317 178.763L472.065 161.562L457.249 151.863L444.913 164.432Z" fill="#FFA794"/>
<path d="M452.468 146.76C452.468 146.76 456.441 172.846 477.93 170.639C487.548 169.651 491.773 155.4 491.707 147.071C491.568 128.754 475.657 119.73 466.044 123.789C450.11 130.52 452.397 144.295 452.468 146.76Z" fill="#FFA794"/>
<path d="M455.554 156.672C455.554 156.672 459.703 168.48 470.189 170.669C474.424 171.26 475.523 170.771 475.523 170.771C473.772 170.714 462.157 167.162 460.321 154.235C459.668 151.742 454.717 153.62 455.554 156.672Z" fill="#222222"/>
<path d="M461.83 155.616C464.178 151.65 465.388 146.319 466.752 140.738C473.761 141.666 483.023 142.655 492.977 142.54C495.808 142.554 497.297 122.168 474.489 119.01C465.282 117.736 453.803 120.846 448.941 129.879C443.703 139.607 445.019 150.619 449.679 155.54C452.649 158.679 458.639 159.349 461.83 155.616Z" fill="#E82728"/>
<path d="M486.607 142.313L485.944 142.448C485.75 142.441 485.557 142.433 485.364 142.426C487.432 134.261 482.337 127.978 478.986 125.272C473.201 120.601 464.978 118.338 461.024 120.334L460.986 120.258C463.26 119.492 465.644 119.025 468.013 118.835C471.872 119.593 476.172 121.555 479.694 124.399C483.276 127.291 488.931 133.465 486.609 142.313H486.607Z" fill="white"/>
<path d="M487.88 142.507C489.497 136.7 488.006 130.962 483.671 126.322C478.649 120.946 470.902 118.297 464.405 119.731L464.324 119.36C467.224 118.763 470.2 118.605 473.016 118.847C477.272 119.894 481.382 122.227 484.494 125.555C489.043 130.419 490.641 136.427 489.039 142.53C488.651 142.524 488.265 142.517 487.88 142.507H487.88Z" fill="white"/>
<path d="M481.297 154.838C480.303 154.852 479.511 154.697 479.445 154.683C479.245 154.643 479.109 154.446 479.154 154.243C479.195 154.041 479.39 153.908 479.596 153.95C479.626 153.955 482.467 154.507 483.911 153.371C484.036 153.276 484.091 153.15 484.101 152.973C484.177 151.684 481.753 149.011 480.815 148.091C480.67 147.946 480.665 147.709 480.81 147.561C480.956 147.413 481.191 147.412 481.342 147.557C481.713 147.92 484.954 151.159 484.854 153.014C484.829 153.404 484.668 153.731 484.377 153.959C483.514 154.638 482.306 154.824 481.297 154.838Z" fill="#B3523D"/>
<path d="M472.447 146.51C472.357 147.536 471.66 148.327 470.897 148.28C470.129 148.232 469.587 147.362 469.688 146.337C469.778 145.313 470.475 144.52 471.238 144.568C472.001 144.616 472.543 145.486 472.447 146.51Z" fill="#222222"/>
<path d="M488.783 147.783C488.703 148.659 488.106 149.335 487.454 149.295C486.802 149.254 486.335 148.51 486.421 147.634C486.501 146.759 487.098 146.082 487.75 146.122C488.402 146.163 488.863 146.906 488.783 147.783Z" fill="#222222"/>
<path d="M470.822 156.319C470.822 156.319 475.007 161.441 484.509 160.8C484.509 160.8 479.126 168.124 472.734 165.088C466.342 162.053 470.822 156.319 470.822 156.319Z" fill="#B33A20"/>
<path d="M466.753 140.738C477.279 141.827 487.424 142.789 493.505 142.41C493.505 142.41 500.489 144.548 498.642 145.975C496.796 147.401 466.753 140.738 466.753 140.738Z" fill="#222222"/>
<path d="M448.545 161.8C448.545 161.8 444.63 159.977 442.753 163.881C443.259 173.664 450.713 182.925 454.551 183.844C455.178 182.262 456.512 180.311 459.318 178.763C459.318 178.763 448.571 169.864 448.546 161.799L448.545 161.8Z" fill="#417D51"/>
<path d="M522.203 358.403C520.728 374.294 507.342 386.414 492.3 385.473C477.259 384.532 466.266 370.888 467.741 354.998C469.216 339.107 482.607 326.987 497.644 327.928C512.686 328.868 523.683 342.512 522.203 358.403Z" fill="#222222"/>
<path d="M529.117 358.835C527.568 375.49 514.187 388.172 496.671 387.079C479.151 385.984 466.206 371.594 467.757 354.939C469.302 338.287 484.756 325.673 502.276 326.766C519.791 327.863 530.663 342.18 529.118 358.835H529.117Z" fill="#222222"/>
<path d="M514.232 357.906C513.183 369.141 503.716 377.71 493.084 377.045C482.447 376.381 474.675 366.733 475.714 355.498C476.763 344.262 486.23 335.691 496.861 336.356C507.498 337.02 515.275 346.667 514.232 357.906Z" fill="#CCCCCC"/>
<path d="M503.192 357.156C502.705 362.393 498.29 366.389 493.333 366.08C488.376 365.769 484.749 361.273 485.24 356.033C485.722 350.796 490.137 346.8 495.094 347.109C500.051 347.421 503.679 351.916 503.192 357.156Z" fill="#737373"/>
<path d="M509.003 334.441C503.499 341.395 496.044 346.571 487.419 348.732C486.897 348.861 486.371 348.982 485.839 349.091C484.991 349.267 484.138 349.408 483.274 349.52C481.338 349.772 479.381 349.878 477.425 349.829C476.682 349.814 475.94 349.772 475.202 349.713L474.645 349.667L440.563 346.852H440.56L408.05 344.603C392.762 343.647 394.567 337.829 409.179 335.802C454.702 335.988 475.072 287.675 463.562 262.287C459.639 253.001 470.034 245.876 480.034 244.359C481.333 244.163 482.633 244.059 483.892 244.059C484.755 244.057 485.603 244.107 486.422 244.209C486.682 244.244 486.933 244.277 487.184 244.321C488.453 244.488 489.688 244.754 490.877 245.13C494.454 246.267 497.584 248.39 499.657 251.704L515.064 286.484C522.556 303.392 518.983 321.835 509.004 334.441H509.003Z" fill="#F4B740"/>
<path d="M506.103 314.293C505.972 315.145 505.817 315.986 505.642 316.814L509.871 316.996C509.972 316.449 510.061 315.911 510.142 315.379C512.033 302.782 508.557 292.519 508.411 292.09L490.876 245.131C489.687 244.755 486.832 244.378 485.964 244.378L504.628 293.825C504.814 294.372 507.734 303.412 506.103 314.295V314.293Z" fill="white"/>
<path d="M506.685 213.846V213.849C506.234 213.794 505.772 213.779 505.306 213.811C504.513 213.864 503.736 214.037 502.967 214.323C497.283 216.433 492.527 224.643 491.859 234.167C491.403 240.662 492.958 246.292 495.723 249.648C496.6 250.716 497.599 251.55 498.698 252.116L491.288 249.54L490.661 249.319C485.553 247.314 482.182 240.23 482.748 231.588C483.4 221.496 489.18 212.957 495.834 212.002C497.037 212.04 498.287 212.14 499.571 212.307C501.828 212.599 504.197 213.098 506.686 213.845L506.685 213.846Z" fill="#E37C1D"/>
<path d="M490.66 249.32L468.854 241.742C468.854 241.742 461.233 238.284 465.583 227.913C465.583 227.913 475.402 211.346 495.832 212.002C489.18 212.957 483.399 221.496 482.747 231.588C482.181 240.23 485.552 247.313 490.66 249.319V249.32Z" fill="#F4B740"/>
<path d="M506.685 213.849C506.499 214.757 506.203 216.275 505.837 218.201C504.397 225.767 501.843 239.593 500.454 247.135C499.862 250.32 499.48 252.386 499.48 252.386L498.698 252.116C497.599 251.551 496.601 250.713 495.722 249.648C492.957 246.291 491.403 240.662 491.859 234.167C492.526 224.643 497.282 216.433 502.967 214.323C503.734 214.037 504.512 213.864 505.305 213.811C505.771 213.779 506.233 213.794 506.685 213.849Z" fill="#E82728"/>
<path d="M516.012 232.564C515.255 243.365 509.24 252.481 502.566 252.925C501.186 253.016 499.882 252.725 498.698 252.116C497.599 251.552 496.601 250.714 495.723 249.649C492.957 246.292 491.403 240.663 491.859 234.168C492.526 224.644 497.282 216.434 502.967 214.323C503.734 214.038 504.512 213.864 505.305 213.811C505.771 213.779 506.233 213.794 506.684 213.849C512.62 214.564 516.709 222.523 516.012 232.565L516.012 232.564Z" fill="#F4B740"/>
<path d="M514.718 232.685C514.096 241.645 509.098 249.208 503.564 249.576C502.421 249.653 501.342 249.411 500.353 248.905C499.44 248.438 498.612 247.744 497.884 246.859C495.591 244.075 494.302 239.405 494.678 234.015C495.235 226.111 499.179 219.298 503.9 217.548C504.532 217.313 505.179 217.166 505.836 217.125C506.222 217.098 506.608 217.109 506.98 217.155C511.902 217.748 515.298 224.353 514.717 232.685H514.718Z" fill="white"/>
<path d="M473.846 236.682L447.904 237.258L447.966 226.025L473.897 226.913C478.934 226.801 478.633 236.576 473.846 236.682Z" fill="#222222"/>
<path d="M451.531 231.563C451.516 234.664 449.891 237.214 447.905 237.258C445.918 237.302 444.322 234.823 444.337 231.721C444.354 228.618 445.98 226.07 447.967 226.025C449.956 225.981 451.551 228.461 451.531 231.563Z" fill="#222222"/>
<path d="M513.478 325.878C512.46 328.837 510.889 331.715 509.003 334.441C503.499 341.392 496.043 346.571 487.418 348.732C486.054 349.072 484.669 349.338 483.274 349.52C480.6 349.873 477.885 349.931 475.201 349.714L474.644 349.667L440.564 346.852C440.585 346.852 440.694 346.858 440.882 346.865C443.608 346.955 462.944 347.043 477.459 324.387C490.82 304.154 519.046 309.711 513.477 325.878L513.478 325.878Z" fill="#E37C1D"/>
<path d="M539.461 353.931C539.702 353.722 539.848 353.493 539.883 353.248C542.768 332.957 518.695 311.27 499.956 313.405C483.584 317.712 473.409 332.197 471.207 349.384L539.461 353.931Z" fill="#F4B740"/>
<path d="M450.607 225.446C450.607 225.446 454.36 219.945 462.985 222.964C471.61 225.985 468.675 235.629 466.352 236.849C464.034 238.069 456.011 239.182 457.18 237.052C458.349 234.924 459.583 231.369 457.617 228.434C456.267 226.429 450.547 226.113 450.547 226.113L450.607 225.446V225.446Z" fill="#FFA794"/>
<path d="M341.796 264.128L338.351 263.733L340.426 245.597L325.871 244.689L323.837 262.446L320.392 262.053L322.612 242.66C322.717 241.745 323.521 241.076 324.442 241.128L342.463 242.255C342.94 242.283 343.382 242.507 343.685 242.872C343.991 243.236 344.132 243.709 344.079 244.18L341.795 264.128H341.796Z" fill="#222222"/>
<path d="M366.028 340.793H366.023C366.003 341.31 365.973 341.828 365.932 342.348L366.276 340.813L366.028 340.793Z" fill="#6FECF2"/>
<path d="M363.717 352.198L347.801 349.831C348.99 347.384 349.77 344.682 350.038 341.818C350.112 341.031 350.144 340.251 350.139 339.48L366.022 340.791C366.002 341.309 365.972 341.826 365.931 342.347L363.717 352.197V352.198ZM309.075 344.065L300.428 342.78L301.014 335.438L309.184 336.099L309.522 336.129C309.287 337.143 309.116 338.187 309.019 339.255C308.865 340.896 308.889 342.507 309.075 344.065Z" fill="#101010"/>
<path d="M347.802 349.831L334.904 347.912C336.759 346.194 338.029 343.768 338.284 341.019C338.364 340.154 338.34 339.311 338.223 338.498L350.141 339.48C350.146 340.251 350.114 341.03 350.041 341.818C349.772 344.682 348.993 347.384 347.803 349.831H347.802ZM320.361 345.744L309.076 344.065C308.891 342.507 308.867 340.896 309.02 339.255C309.117 338.187 309.289 337.144 309.524 336.129L319.819 336.978C319.48 337.872 319.253 338.827 319.16 339.825C318.96 341.989 319.415 344.033 320.361 345.744Z" fill="#B4B4B4"/>
<path d="M334.904 347.912L320.36 345.745C319.415 344.034 318.959 341.989 319.159 339.826C319.253 338.829 319.479 337.873 319.818 336.979L338.222 338.499C338.34 339.311 338.363 340.154 338.284 341.019C338.028 343.768 336.759 346.194 334.904 347.912V347.912Z" fill="#4D4D4D"/>
<path d="M366.276 340.813L366.023 340.792L350.139 339.481L338.222 338.499L319.818 336.979L309.522 336.129L309.184 336.099L366.296 340.722L366.276 340.813Z" fill="#DB1314"/>
<path d="M527.968 364.972C528.448 363.282 528.805 361.526 529.02 359.721C528.81 361.555 528.469 363.311 527.968 364.972ZM467.63 356.577L467.61 356.574C467.786 353.898 468.127 351.384 468.794 349.185L468.844 349.187C468.303 351.052 467.926 352.996 467.741 354.998C467.691 355.527 467.656 356.053 467.63 356.577V356.577ZM529.257 355.942C529.267 355.048 529.237 354.161 529.172 353.286L529.232 353.289C529.262 354.186 529.272 355.071 529.257 355.942Z" fill="#6FECF2"/>
<path d="M467.645 356.58L467.63 356.577C467.655 356.054 467.69 355.528 467.74 354.999C467.926 352.997 468.302 351.052 468.843 349.188L468.874 349.191C468.317 351.04 467.936 352.961 467.755 354.939C467.7 355.489 467.665 356.036 467.645 356.58Z" fill="#101010"/>
<path d="M527.963 364.987L513.162 362.923C513.704 361.333 514.066 359.65 514.231 357.907C514.412 355.963 514.326 354.066 514.01 352.258L529.172 353.287C529.237 354.16 529.267 355.048 529.257 355.943C529.237 357.237 529.157 358.498 529.021 359.721C528.805 361.527 528.449 363.283 527.968 364.973C527.963 364.979 527.963 364.982 527.963 364.988V364.987ZM475.623 357.692L467.646 356.58C467.666 356.036 467.701 355.489 467.756 354.939C467.937 352.961 468.318 351.04 468.875 349.191L471.208 349.385H471.213L474.645 349.668L475.201 349.714C475.809 349.764 476.416 349.799 477.023 349.82C476.35 351.605 475.899 353.511 475.713 355.498C475.648 356.236 475.618 356.968 475.623 357.692Z" fill="#101010"/>
<path d="M513.162 362.923L501.847 361.346C502.575 360.106 503.051 358.682 503.192 357.156C503.388 355.058 502.921 353.078 501.978 351.44L514.01 352.258C514.326 354.065 514.411 355.962 514.231 357.906C514.065 359.65 513.704 361.332 513.162 362.923ZM485.417 359.056L475.623 357.692C475.618 356.968 475.648 356.236 475.713 355.498C475.899 353.511 476.351 351.605 477.023 349.82C477.364 349.832 477.715 349.837 478.056 349.841L487.548 350.473C486.28 351.984 485.437 353.908 485.24 356.033C485.14 357.08 485.205 358.097 485.416 359.056L485.417 359.056Z" fill="#B4B4B4"/>
<path d="M501.848 361.346L485.416 359.056C485.205 358.097 485.14 357.08 485.241 356.032C485.436 353.907 486.279 351.983 487.548 350.472L497.874 351.16L501.978 351.439C502.921 353.077 503.388 355.057 503.192 357.156C503.052 358.681 502.575 360.105 501.848 361.346V361.346Z" fill="#4D4D4D"/>
<path d="M478.057 349.84C477.716 349.837 477.365 349.831 477.024 349.82C476.417 349.799 475.81 349.764 475.203 349.714L474.646 349.667L471.214 349.384L478.058 349.84H478.057ZM471.208 349.384L468.875 349.19L468.845 349.187L468.795 349.185L471.218 349.349C471.213 349.361 471.213 349.373 471.208 349.384Z" fill="#9A0F0F"/>
<path d="M497.873 351.161L487.548 350.473L478.056 349.841L471.212 349.385H471.207C471.212 349.373 471.212 349.361 471.217 349.35L497.873 351.161Z" fill="#DB1314"/>
<path d="M314.204 148.168C314.342 158.306 306.225 166.637 296.074 166.774C285.923 166.913 277.582 158.804 277.443 148.665C277.305 138.527 285.425 130.196 295.576 130.059C305.727 129.921 314.068 138.03 314.204 148.168Z" fill="#56A66B"/>
<path d="M291.223 157.306L285.814 149.135L286.723 148.207L291.204 152.307L304.753 140.638L305.633 141.722L291.223 157.306Z" fill="white"/>
<path fill-rule="evenodd" clip-rule="evenodd" d="M511.947 216.845L600.798 212.811L511.947 216.845Z" fill="url(#paint4_linear)"/>
<path d="M164.617 137.375H188.006V116.357H164.617V137.375Z" fill="#94F3F7"/>
</g>
<defs>
<linearGradient id="paint0_linear" x1="277.28" y1="299.796" x2="83.0742" y2="263.101" gradientUnits="userSpaceOnUse">
<stop stop-color="#868686"/>
<stop offset="1" stop-color="#1E1C1C"/>
</linearGradient>
<linearGradient id="paint1_linear" x1="277.25" y1="299.795" x2="83.1147" y2="263.094" gradientUnits="userSpaceOnUse">
<stop stop-color="#F3F3F3"/>
<stop offset="1" stop-color="#E8E8E8"/>
</linearGradient>
<linearGradient id="paint2_linear" x1="277.263" y1="299.797" x2="83.1067" y2="263.093" gradientUnits="userSpaceOnUse">
<stop stop-color="white"/>
<stop offset="1" stop-color="white"/>
</linearGradient>
<linearGradient id="paint3_linear" x1="277.208" y1="299.792" x2="83.1334" y2="263.092" gradientUnits="userSpaceOnUse">
<stop stop-color="#C0C0C0"/>
<stop offset="1" stop-color="#898888"/>
</linearGradient>
<linearGradient id="paint4_linear" x1="506.485" y1="245.617" x2="602.965" y2="242.62" gradientUnits="userSpaceOnUse">
<stop stop-color="#CAF9FB"/>
<stop offset="1" stop-color="#9CF4F8"/>
</linearGradient>
<clipPath id="clip0">
<rect width="629" height="449" fill="white"/>
</clipPath>
</defs>
</svg>
