<svg width="36" height="36" viewBox="0 0 36 36" fill="none" xmlns="http://www.w3.org/2000/svg">
<path d="M35.722 31.9932L35.2084 31.4795C35.0025 31.2735 34.6686 31.2736 34.4627 31.4795C34.2567 31.6854 34.2567 32.0193 34.4626 32.2252L34.9016 32.6642L32.6644 34.9015L28.8609 31.0981L31.0982 28.8608L32.8726 30.6352C33.0786 30.8411 33.4124 30.8411 33.6184 30.6352C33.8243 30.4292 33.8243 30.0954 33.6184 29.8894L31.472 27.7431C31.4717 27.7428 31.4714 27.7424 31.4711 27.7421L29.9796 26.2505C29.9791 26.2501 29.9787 26.2498 29.9783 26.2494L28.662 24.9331C28.4827 24.7537 28.2443 24.6549 27.9907 24.6549C27.7371 24.6549 27.4987 24.7537 27.3195 24.933L27.2449 25.0076L25.3579 23.1202C26.7067 21.435 27.6808 19.4381 28.1535 17.2562H31.8692C32.1605 17.2562 32.3966 17.0202 32.3966 16.7289C32.3966 16.4376 32.1605 16.2015 31.8692 16.2015H28.3405C28.387 15.8662 28.4217 15.5271 28.4443 15.1848H34.3828C34.6741 15.1848 34.9102 14.9487 34.9102 14.6574C34.9102 14.3661 34.6741 14.1301 34.3828 14.1301H28.4754C28.4729 13.7888 28.4588 13.4498 28.4329 13.1132H31.8693C32.1606 13.1132 32.3966 12.8772 32.3966 12.5859C32.3966 12.2946 32.1606 12.0585 31.8693 12.0585H28.3125C27.944 9.63422 26.9587 7.3665 25.4083 5.40773C25.2275 5.17943 24.8959 5.1409 24.6675 5.32153C24.4391 5.5023 24.4005 5.83397 24.5813 6.06234C26.4396 8.41001 27.4219 11.2372 27.4219 14.2383C27.4219 21.5077 21.5077 27.4219 14.2383 27.4219C6.96881 27.4219 1.05469 21.5077 1.05469 14.2383C1.05469 6.96881 6.96881 1.05469 14.2383 1.05469C17.5245 1.05469 20.6726 2.27095 23.1025 4.4794C23.3179 4.67543 23.6516 4.6594 23.8474 4.44389C24.0433 4.22838 24.0274 3.89482 23.8118 3.69893C21.1875 1.31365 17.7875 0 14.2383 0C6.38726 0 0 6.38726 0 14.2383C0 21.1698 4.97911 26.9593 11.5483 28.2206V31.7783C11.5483 32.0696 11.7844 32.3056 12.0757 32.3056C12.367 32.3056 12.603 32.0696 12.603 31.7783V28.3821C12.9386 28.4207 13.2777 28.4477 13.6199 28.4624V34.2582C13.6199 34.5495 13.8559 34.7856 14.1472 34.7856C14.4385 34.7856 14.6746 34.5495 14.6746 34.2582V28.4692C15.0166 28.4589 15.3558 28.4371 15.6914 28.4029V31.7783C15.6914 32.0696 15.9275 32.3056 16.2188 32.3056C16.5101 32.3056 16.7461 32.0696 16.7461 31.7783V28.2554C19.1271 27.8305 21.3045 26.8113 23.1202 25.3579L25.0077 27.245L24.9332 27.3195C24.7538 27.4988 24.655 27.7372 24.655 27.9908C24.655 28.2444 24.7538 28.4827 24.933 28.662L26.2498 29.9787C26.2501 29.979 26.2503 29.9793 26.2506 29.9796L27.7421 31.4711C27.7424 31.4714 27.7429 31.4717 27.7431 31.472L31.993 35.7218C32.1723 35.9013 32.4107 36 32.6643 36C32.9179 36 33.1562 35.9013 33.3356 35.722L35.722 33.3356C35.9013 33.1562 36 32.9179 36 32.6643C36 32.4107 35.9013 32.1723 35.722 31.9932ZM24.6671 23.9209L26.499 25.7532L25.7533 26.499L23.9209 24.667C24.1787 24.4276 24.4276 24.1787 24.6671 23.9209ZM28.1151 30.3524L27.3693 29.6066L29.6066 27.3694L30.3523 28.1152L28.1151 30.3524ZM27.9908 25.7534L28.8608 26.6235L26.6235 28.8607L25.7535 27.9907L27.9908 25.7534Z" fill="#1B9AAA"/>
<path d="M6.8945 23.8916C9.00662 25.4792 11.5439 26.3353 14.2382 26.3672C20.9261 26.3672 26.3671 20.9262 26.3671 14.2383C26.3671 7.55037 20.9261 2.10938 14.2382 2.10938C11.0107 2.10938 7.97493 3.37268 5.6904 5.66655C3.41551 7.95066 2.14377 10.9929 2.10932 14.2327C2.07768 17.2152 3.1614 20.082 5.16081 22.3049C5.35557 22.5214 5.689 22.5391 5.90556 22.3443C6.12212 22.1496 6.13977 21.8161 5.945 21.5996C4.12279 19.5737 3.13511 16.9614 3.164 14.2439C3.19543 11.2807 4.35805 8.49888 6.43768 6.41088C8.52287 4.31712 11.2931 3.16406 14.2382 3.16406C20.3446 3.16406 25.3124 8.13192 25.3124 14.2383C25.3124 20.3446 20.3446 25.3125 14.2445 25.3126C11.7822 25.2833 9.45978 24.5004 7.52816 23.0486C7.2955 22.8734 6.96475 22.9205 6.78981 23.1533C6.61473 23.3861 6.66163 23.7167 6.8945 23.8916Z" fill="#1B9AAA"/>
<path d="M16.2422 4.81641H12.5859C12.1401 4.81641 11.7773 5.17915 11.7773 5.625V7.48828H8.36717C7.92132 7.48828 7.55858 7.85102 7.55858 8.29688V13.957H6.85278C6.56148 13.957 6.32544 14.1931 6.32544 14.4844C6.32544 14.7757 6.56148 15.0117 6.85278 15.0117H21.9753C22.2666 15.0117 22.5027 14.7757 22.5027 14.4844C22.5027 14.1931 22.2666 13.957 21.9753 13.957H21.2695V10.9688C21.2695 10.5229 20.9068 10.1602 20.4609 10.1602H17.0508V5.625C17.0508 5.17915 16.688 4.81641 16.2422 4.81641ZM8.61327 8.54297H11.7773V13.957H8.61327V8.54297ZM12.832 5.87109H15.9961V13.957H12.832V5.87109ZM20.2148 11.2148V13.957H17.0508V11.2148H20.2148Z" fill="#1B9AAA"/>
<path d="M20.3203 19.4803H17.8376L16.7098 16.5973C16.6301 16.3936 16.4348 16.2617 16.214 16.262C15.9952 16.264 15.8003 16.4009 15.7242 16.6061L14.183 20.7622L13.1058 17.709C13.0369 17.5135 12.8599 17.3765 12.6533 17.359C12.447 17.3411 12.2491 17.4464 12.148 17.6273L11.1136 19.4802H8.63745C8.34615 19.4802 8.11011 19.7163 8.11011 20.0076C8.11011 20.2989 8.34615 20.5349 8.63745 20.5349H11.4231C11.6142 20.5349 11.7904 20.4315 11.8836 20.2646L12.4997 19.1611L13.6733 22.4875C13.7472 22.697 13.9443 22.8376 14.1664 22.8395H14.1707C14.391 22.8395 14.5883 22.7024 14.6651 22.4954L16.2318 18.2705L16.9865 20.1997C17.0656 20.4019 17.2604 20.535 17.4776 20.535H20.3203C20.6116 20.535 20.8476 20.2989 20.8476 20.0076C20.8476 19.7163 20.6116 19.4803 20.3203 19.4803Z" fill="#1B9AAA"/>
</svg>
