<svg width="36" height="32" viewBox="0 0 36 32" fill="none" xmlns="http://www.w3.org/2000/svg">
<path d="M25.5766 17.4012H20.6849C19.3461 17.4012 18.2574 18.4899 18.2574 19.8287V23.5802C18.2574 24.919 19.3461 26.0077 20.6849 26.0077H25.5766C26.9154 26.0077 28.0041 24.919 28.0041 23.5802V19.8287C28.0041 18.4899 26.9154 17.4012 25.5766 17.4012ZM26.2387 23.5802C26.2387 23.948 25.9371 24.2423 25.5766 24.2423H20.6849C20.3171 24.2423 20.0229 23.9407 20.0229 23.5802V19.8287C20.0229 19.4609 20.3245 19.1667 20.6849 19.1667H25.5766C25.9444 19.1667 26.2387 19.4683 26.2387 19.8287V23.5802Z" fill="#1B9AAA"/>
<path d="M36 10.5823C36 10.4278 35.9632 10.2807 35.8823 10.1483L30.5272 0.732648C30.3727 0.460478 30.0785 0.283936 29.7622 0.283936H6.23049C5.91418 0.283936 5.61994 0.453122 5.46547 0.732648L0.117695 10.1483C0.0441357 10.2807 0 10.4278 0 10.5823C0 12.6934 1.27258 14.503 3.0895 15.3048V30.8332C3.0895 31.3187 3.48672 31.7159 3.97221 31.7159H8.8492C8.85656 31.7159 8.86392 31.7159 8.87127 31.7159H15.7123C15.7197 31.7159 15.727 31.7159 15.7344 31.7159H32.0204C32.5059 31.7159 32.9031 31.3187 32.9031 30.8332V15.4151C32.9031 15.3783 32.9031 15.3489 32.8958 15.3195C34.7201 14.5177 36 12.7008 36 10.5823ZM6.7454 2.05672H29.2472L33.4328 9.42002H2.56723L6.7454 2.05672ZM25.6208 11.1781C25.3412 12.767 23.951 13.9734 22.2812 13.9734C20.6114 13.9734 19.2211 12.767 18.9416 11.1781H25.6208ZM17.0658 11.1781C16.7863 12.767 15.396 13.9734 13.7262 13.9734C12.0564 13.9734 10.6661 12.767 10.3792 11.1781H17.0658ZM1.82427 11.1781H8.51083C8.2313 12.767 6.83367 13.9734 5.16387 13.9734C3.49407 13.9807 2.1038 12.767 1.82427 11.1781ZM14.8296 29.9505H9.75399V20.4245C9.75399 19.7331 10.313 19.1667 11.0119 19.1667H13.5791C14.2705 19.1667 14.8369 19.7257 14.8369 20.4245V29.9505H14.8296ZM31.1377 29.9505H16.595V20.4245C16.595 18.7621 15.2415 17.4012 13.5717 17.4012H11.0045C9.34205 17.4012 7.9812 18.7547 7.9812 20.4245V29.9578H4.85492V15.7388C4.95791 15.7461 5.06089 15.7461 5.16387 15.7461C6.94401 15.7461 8.51819 14.8414 9.44503 13.4658C10.3719 14.8414 11.9461 15.7461 13.7262 15.7461C15.5063 15.7461 17.0732 14.8414 18.0074 13.4658C18.9342 14.8414 20.5084 15.7461 22.2812 15.7461C24.0613 15.7461 25.6281 14.8414 26.555 13.4658C27.4818 14.8414 29.056 15.7461 30.8361 15.7461C30.9391 15.7461 31.0347 15.7388 31.1377 15.7388V29.9505ZM30.8361 13.9807C29.1663 13.9807 27.7761 12.7743 27.4965 11.1854H34.1831C33.8962 12.767 32.5059 13.9807 30.8361 13.9807Z" fill="#1B9AAA"/>
</svg>
