<svg width="153" height="153" viewBox="0 0 153 153" fill="none" xmlns="http://www.w3.org/2000/svg">
<path d="M76.4795 152.959C118.718 152.959 152.959 118.718 152.959 76.4795C152.959 34.241 118.718 0 76.4795 0C34.241 0 0 34.241 0 76.4795C0 118.718 34.241 152.959 76.4795 152.959Z" fill="#00BA88"/>
<path d="M76.4789 137.741C110.313 137.741 137.741 110.313 137.741 76.4795C137.741 42.6456 110.313 15.2178 76.4789 15.2178C42.645 15.2178 15.2173 42.6456 15.2173 76.4795C15.2173 110.313 42.645 137.741 76.4789 137.741Z" fill="#E7F8FC"/>
<path d="M66.2132 107.477C64.4335 107.479 62.722 106.794 61.4355 105.564L40.9186 85.8787C40.2644 85.2513 39.7402 84.5012 39.3759 83.6712C39.0116 82.8412 38.8144 81.9476 38.7955 81.0414C38.7765 80.1351 38.9363 79.234 39.2656 78.3895C39.5949 77.5451 40.0873 76.7737 40.7147 76.1195C41.3421 75.4653 42.0922 74.9411 42.9222 74.5768C43.7522 74.2125 44.6458 74.0153 45.5521 73.9963C46.4583 73.9774 47.3594 74.1371 48.2039 74.4664C49.0484 74.7957 49.8197 75.2881 50.4739 75.9156L65.7077 90.5269L102.006 47.9112C102.59 47.2076 103.308 46.627 104.118 46.2029C104.927 45.7789 105.813 45.5199 106.724 45.4411C107.635 45.3622 108.552 45.465 109.423 45.7434C110.294 46.0219 111.101 46.4705 111.797 47.0633C112.492 47.656 113.064 48.3811 113.477 49.1964C113.891 50.0117 114.138 50.901 114.205 51.8127C114.272 52.7244 114.158 53.6403 113.868 54.5074C113.578 55.3744 113.119 56.1753 112.518 56.8635L71.4678 105.05C70.8579 105.766 70.108 106.35 69.2641 106.766C68.4203 107.182 67.5003 107.421 66.5608 107.469C66.4455 107.474 66.3302 107.477 66.2132 107.477Z" fill="#00BA88"/>
</svg>
