<svg width="28" height="36" viewBox="0 0 28 36" fill="none" xmlns="http://www.w3.org/2000/svg">
<path d="M19.9753 24.7567L21.2266 19.7484C21.2692 19.3635 21.0987 19.1452 20.715 19.0932H10.328L9.98744 17.7782C9.92719 17.5455 9.7173 17.3831 9.47697 17.3831H7.2854C6.99417 17.3831 6.75806 17.6191 6.75806 17.9104C6.75806 18.2017 6.99417 18.4377 7.2854 18.4377H9.06881L10.7065 24.761C10.7422 24.8993 10.8317 25.0118 10.9482 25.0811C10.7877 25.3628 10.6954 25.6883 10.6954 26.0351C10.6954 27.1012 11.5628 27.9687 12.629 27.9687C13.6952 27.9687 14.5626 27.1012 14.5626 26.0351C14.5626 25.7187 14.4858 25.4201 14.3504 25.1562H16.2849C16.1496 25.4201 16.0727 25.7187 16.0727 26.0351C16.0727 27.1012 16.9401 27.9687 18.0063 27.9687C19.0725 27.9687 19.9399 27.1012 19.9399 26.0351C19.9399 25.696 19.8519 25.3772 19.698 25.0999C19.8328 25.0327 19.937 24.9102 19.9753 24.7567ZM10.6012 20.1479H20.0398L19.052 24.1015H11.6251L10.6012 20.1479ZM13.5079 26.035C13.5079 26.5197 13.1137 26.9139 12.629 26.9139C12.1444 26.9139 11.7501 26.5197 11.7501 26.035C11.7501 25.5503 12.1444 25.1561 12.629 25.1561C13.1137 25.1561 13.5079 25.5504 13.5079 26.035ZM18.0064 26.9139C17.5217 26.9139 17.1275 26.5197 17.1275 26.035C17.1275 25.5503 17.5217 25.1561 18.0064 25.1561C18.491 25.1561 18.8853 25.5503 18.8853 26.035C18.8853 26.5197 18.491 26.9139 18.0064 26.9139Z" fill="#1B9AAA"/>
<path d="M13.5079 22.6289H17.7618C18.0531 22.6289 18.2892 22.3929 18.2892 22.1016C18.2892 21.8103 18.0531 21.5742 17.7618 21.5742H13.5079C13.2167 21.5742 12.9806 21.8103 12.9806 22.1016C12.9806 22.3929 13.2167 22.6289 13.5079 22.6289Z" fill="#1B9AAA"/>
<path d="M27.1857 8.68612C27.1786 8.6187 27.1571 8.54923 27.1246 8.48981L25.0745 4.71073V1.01953C25.0745 0.457383 24.6171 0 24.0549 0H3.94556C3.38341 0 2.92603 0.457383 2.92603 1.01953V4.71066L0.877969 8.48609C0.835289 8.5628 0.811523 8.65448 0.811523 8.74209V11.6973C0.811523 12.9724 1.72144 14.0388 2.92603 14.2818V34.9805C2.92603 35.5426 3.38341 36 3.94556 36H24.0549C24.6171 36 25.0745 35.5426 25.0745 34.9805V20.9426C25.0745 20.6513 24.8384 20.4152 24.5471 20.4152C24.2559 20.4152 24.0198 20.6513 24.0198 20.9426V30.6204H13.7429C13.4517 30.6204 13.2156 30.8564 13.2156 31.1477C13.2156 31.439 13.4517 31.6751 13.7429 31.6751H24.0198V34.9453H3.98072V31.6751H11.4451C11.7363 31.6751 11.9724 31.439 11.9724 31.1477C11.9724 30.8564 11.7363 30.6204 11.4451 30.6204H3.98072V14.3339C5.07928 14.335 5.84576 14.0199 6.40341 13.2774C6.88484 13.9184 7.65117 14.3339 8.51278 14.3339H9.35857C10.2202 14.3339 10.9865 13.9184 11.4679 13.2774C11.9494 13.9184 12.7157 14.3339 13.5773 14.3339H14.423C15.2846 14.3339 16.051 13.9184 16.5324 13.2774C17.0138 13.9184 17.7802 14.3339 18.6418 14.3339H19.4876C20.3492 14.3339 21.1155 13.9184 21.597 13.2774C22.1547 14.02 22.883 14.3437 24.0198 14.3339V18.6441C24.0198 18.9354 24.2559 19.1714 24.5471 19.1714C24.8384 19.1714 25.0745 18.9354 25.0745 18.6441V14.2817C26.279 14.0387 27.1888 12.9723 27.1888 11.6973V8.74209C27.1888 8.72318 27.1876 8.70448 27.1857 8.68612ZM3.76296 5.37961H7.5694C7.86063 5.37961 8.09674 5.14357 8.09674 4.85227C8.09674 4.56096 7.86063 4.32492 7.5694 4.32492H3.98065V1.05469H24.0197V4.32492H9.86791C9.57668 4.32492 9.34057 4.56096 9.34057 4.85227C9.34057 5.14357 9.57668 5.37961 9.86791 5.37961H24.2374L25.7753 8.21461H2.22509L3.76296 5.37961ZM4.29396 13.2792H3.44817C2.5758 13.2792 1.86614 12.5696 1.86614 11.6973V9.26944H5.87599V11.6973C5.87599 12.5696 5.16633 13.2792 4.29396 13.2792ZM9.3585 13.2792H8.51271C7.64034 13.2792 6.93068 12.5696 6.93068 11.6973V9.26944H10.9405V11.6973C10.9405 12.5696 10.2309 13.2792 9.3585 13.2792ZM14.423 13.2792H13.5772C12.7049 13.2792 11.9952 12.5696 11.9952 11.6973V9.26944H16.005V11.6973C16.005 12.5696 15.2953 13.2792 14.423 13.2792ZM19.4875 13.2792H18.6417C17.7694 13.2792 17.0597 12.5696 17.0597 11.6973V9.26944H21.0695V11.6973C21.0695 12.5696 20.3599 13.2792 19.4875 13.2792ZM26.1341 11.6973C26.1341 12.5696 25.4244 13.2792 24.552 13.2792H23.7063C22.8339 13.2792 22.1242 12.5696 22.1242 11.6973V9.26944H26.1341V11.6973Z" fill="#1B9AAA"/>
</svg>
